<svg width="110" height="32" viewBox="0 0 110 32" fill="none" xmlns="http://www.w3.org/2000/svg">
<g clip-path="url(#clip0_1526_2754)">
<path fill-rule="evenodd" clip-rule="evenodd" d="M68.2418 25.025C61.8496 29.5733 52.5843 32 44.6071 32C33.4218 32 23.3522 28.0063 15.7341 21.3641C15.1356 20.8418 15.6719 20.13 16.3901 20.5367C24.6115 25.1544 34.7769 27.9324 45.2775 27.9324C52.3593 27.9324 60.1497 26.518 67.3129 23.5828C68.3951 23.1391 69.3 24.2669 68.2418 25.025Z" fill="#403F42"/>
<path fill-rule="evenodd" clip-rule="evenodd" d="M70.8993 22.0898C70.0853 21.0822 65.4982 21.6137 63.4393 21.8495C62.812 21.9234 62.7162 21.3965 63.2812 21.0175C66.9346 18.5353 72.9295 19.2518 73.6286 20.0838C74.3277 20.9204 73.4466 26.7213 70.0135 29.4901C69.4868 29.9153 68.984 29.6888 69.2186 29.1249C69.9895 27.2668 71.7181 23.1021 70.8993 22.0898Z" fill="#403F42"/>
<path fill-rule="evenodd" clip-rule="evenodd" d="M63.5829 3.49443V1.08161C63.5829 0.716451 63.8702 0.471471 64.215 0.471471H75.405C75.7642 0.471471 76.0515 0.721073 76.0515 1.08161V3.14776C76.0467 3.49443 75.745 3.94742 75.2087 4.66387L69.4102 12.6558C71.5649 12.6049 73.8393 12.9146 75.7929 13.9777C76.2334 14.2181 76.3531 14.5694 76.3866 14.9161V17.4907C76.3866 17.842 75.9844 18.2533 75.563 18.0407C72.1203 16.2981 67.5476 16.1086 63.7409 18.0592C63.3531 18.2626 62.9461 17.8558 62.9461 17.5045V15.0594C62.9461 14.6665 62.9509 13.9962 63.3579 13.4L70.0757 4.09995H64.2293C63.8702 4.09995 63.5829 3.85497 63.5829 3.49443Z" fill="#403F42"/>
<path fill-rule="evenodd" clip-rule="evenodd" d="M22.7633 18.5492H19.3588C19.0332 18.5261 18.7747 18.2903 18.7507 17.9899V1.12322C18.7507 0.78579 19.0428 0.517696 19.4067 0.517696H22.5813C22.9117 0.531553 23.175 0.776542 23.199 1.08161V3.28644H23.2612C24.0896 1.15557 25.6458 0.16178 27.743 0.16178C29.8738 0.16178 31.2049 1.15557 32.1625 3.28644C32.9861 1.15557 34.8583 0.16178 36.8646 0.16178C38.2915 0.16178 39.8524 0.730319 40.8053 2.00607C41.8827 3.4251 41.6624 5.48663 41.6624 7.29394L41.6576 17.939C41.6576 18.2765 41.3655 18.5492 41.0016 18.5492H37.602C37.262 18.5261 36.9891 18.2626 36.9891 17.939V8.99956C36.9891 8.28773 37.0561 6.51278 36.8933 5.83793C36.6395 4.70547 35.8782 4.38653 34.8918 4.38653C34.0683 4.38653 33.2064 4.9181 32.8568 5.76859C32.5073 6.61909 32.5408 8.04275 32.5408 8.99956V17.939C32.5408 18.2765 32.2487 18.5492 31.8848 18.5492H28.4852C28.1404 18.5261 27.8723 18.2626 27.8723 17.939L27.8675 8.99956C27.8675 7.1183 28.1883 4.34956 25.7703 4.34956C23.3235 4.34956 23.4192 7.04896 23.4192 8.99956V17.939C23.4192 18.2765 23.1272 18.5492 22.7633 18.5492Z" fill="#403F42"/>
<path fill-rule="evenodd" clip-rule="evenodd" d="M85.6854 0.16178C90.7369 0.16178 93.471 4.34956 93.471 9.67442C93.471 14.819 90.4496 18.9005 85.6854 18.9005C80.7248 18.9005 78.0242 14.7127 78.0242 9.49415C78.0242 4.24325 80.7583 0.16178 85.6854 0.16178ZM85.7141 3.60538C83.2051 3.60538 83.0471 6.90567 83.0471 8.96259C83.0471 11.0241 83.0135 15.4245 85.6854 15.4245C88.3237 15.4245 88.4482 11.8746 88.4482 9.71139C88.4482 8.28774 88.3859 6.58674 87.9406 5.23703C87.5576 4.06298 86.7962 3.60538 85.7141 3.60538Z" fill="#403F42"/>
<path fill-rule="evenodd" clip-rule="evenodd" d="M100.021 18.5492H96.6313C96.2913 18.5261 96.0184 18.2626 96.0184 17.939L96.0136 1.06775C96.0423 0.758053 96.3248 0.517696 96.6696 0.517696H99.825C100.122 0.531553 100.366 0.725698 100.433 0.989168V3.56839H100.495C101.448 1.26188 102.784 0.16178 105.135 0.16178C106.663 0.16178 108.152 0.693342 109.109 2.14936C110 3.49906 110 5.76859 110 7.40025V18.0176C109.962 18.3134 109.679 18.5492 109.344 18.5492H105.93C105.619 18.5261 105.36 18.3042 105.327 18.0176V8.85627C105.327 7.01198 105.547 4.31258 103.196 4.31258C102.368 4.31258 101.606 4.84876 101.228 5.66228C100.749 6.69305 100.687 7.71919 100.687 8.85627V17.939C100.682 18.2765 100.385 18.5492 100.021 18.5492Z" fill="#403F42"/>
<path fill-rule="evenodd" clip-rule="evenodd" d="M54.6624 10.4926C54.6624 11.7729 54.6959 12.8407 54.0256 13.9777C53.4845 14.9022 52.6226 15.4707 51.6698 15.4707C50.3626 15.4707 49.5965 14.5093 49.5965 13.0903C49.5965 10.2892 52.1965 9.78073 54.6624 9.78073V10.4926ZM58.0956 18.5029C57.8705 18.6971 57.5449 18.7109 57.2912 18.5815C56.1611 17.6756 55.9552 17.2549 55.3376 16.3906C53.4701 18.2302 52.1438 18.7803 49.7257 18.7803C46.8576 18.7803 44.6311 17.0747 44.6311 13.6588C44.6311 10.9918 46.125 9.17521 48.2606 8.28773C50.1088 7.50194 52.6897 7.36328 54.6624 7.14603V6.72078C54.6624 5.93962 54.7247 5.01516 54.2458 4.34031C53.8341 3.73479 53.0392 3.48519 52.3353 3.48519C51.0377 3.48519 49.8838 4.12769 49.6013 5.4589C49.5438 5.75473 49.3188 6.04593 49.0075 6.0598L45.7084 5.71775C45.4307 5.65766 45.1195 5.44041 45.2009 5.02903C45.9574 1.16482 49.5773 0 52.8142 0C54.4709 0 56.6352 0.42525 57.9424 1.63628C59.5991 3.12928 59.4411 5.12148 59.4411 7.28932V12.4108C59.4411 13.95 60.1019 14.6249 60.7243 15.4569C60.9398 15.7527 60.9877 16.1086 60.7099 16.3305C60.0157 16.8898 58.7803 17.9298 58.1004 18.5122L58.0956 18.5029Z" fill="#403F42"/>
<path fill-rule="evenodd" clip-rule="evenodd" d="M10.0313 10.4927C10.0313 11.7731 10.0649 12.8408 9.39451 13.9779C8.85343 14.9023 7.99634 15.4709 7.0387 15.4709C5.73151 15.4709 4.97018 14.5094 4.97018 13.0904C4.97018 10.2893 7.57019 9.78086 10.0313 9.78086V10.4927ZM13.4645 18.5031C13.2395 18.6972 12.9139 18.7111 12.6601 18.5817C11.5301 17.6757 11.3289 17.2551 10.7065 16.3907C8.83907 18.2304 7.51752 18.7804 5.09467 18.7804C2.23131 18.7804 0 17.0748 0 13.6589C0 10.9919 1.49872 9.17534 3.62948 8.28786C5.47773 7.50208 8.05859 7.36341 10.0313 7.14616V6.72091C10.0313 5.93975 10.0936 5.0153 9.61955 4.34045C9.20297 3.73493 8.40813 3.48532 7.70905 3.48532C6.41144 3.48532 5.25269 4.12782 4.97018 5.45903C4.91272 5.75486 4.68767 6.04606 4.38123 6.05993L1.07735 5.71788C0.799634 5.65779 0.493187 5.44054 0.569798 5.02916C1.33113 1.16495 4.94624 0.000132678 8.18308 0.000132678C9.83981 0.000132678 12.0041 0.425382 13.3113 1.63642C14.968 3.12941 14.81 5.12161 14.81 7.28945V12.4109C14.81 13.9501 15.4708 14.625 16.0932 15.457C16.3135 15.7528 16.3614 16.1087 16.0837 16.3306C15.3894 16.8899 14.154 17.9299 13.4741 18.5123L13.4645 18.5031Z" fill="#403F42"/>
</g>
<defs>
<clipPath id="clip0_1526_2754">
<rect width="110" height="32" fill="white"/>
</clipPath>
</defs>
</svg>
