<svg width="52" height="52" viewBox="0 0 52 52" fill="none" xmlns="http://www.w3.org/2000/svg">
<g clip-path="url(#clip0_1526_2727)">
<path fill-rule="evenodd" clip-rule="evenodd" d="M26 52.0005C11.6635 52.0005 0 40.3369 0 26.0005C0 11.664 11.6635 0.000488281 26 0.000488281C40.3363 0.000488281 52 11.664 52 26.0005C52 40.3369 40.3364 52.0005 26 52.0005ZM30.4007 15.9439H15.7068L13.4773 19.5268H28.1543L30.4007 15.9439ZM33.4035 15.9781L24.4208 30.2813H14.4569L16.7557 26.6955H22.7276L25.0089 23.1113H11.2028L8.92204 26.6955H12.1926L7.65483 33.8548H26.5927L33.5875 22.8238L36.1379 26.6955H33.8382L31.6603 30.2813H38.4703L40.835 33.8548H45.1791L33.4035 15.9781Z" fill="#403F42"/>
</g>
<defs>
<clipPath id="clip0_1526_2727">
<rect width="52" height="52" fill="white"/>
</clipPath>
</defs>
</svg>
