<svg width="106" height="36" viewBox="0 0 106 36" fill="none" xmlns="http://www.w3.org/2000/svg">
<path d="M45.1088 18.4619C45.1088 23.4589 41.2156 27.141 36.4378 27.141C31.66 27.141 27.7669 23.4589 27.7669 18.4619C27.7669 13.4297 31.66 9.78278 36.4378 9.78278C41.2156 9.78278 45.1088 13.4297 45.1088 18.4619ZM41.313 18.4619C41.313 15.3393 39.0567 13.2028 36.4378 13.2028C33.819 13.2028 31.5626 15.3393 31.5626 18.4619C31.5626 21.5532 33.819 23.721 36.4378 23.721C39.0567 23.721 41.313 21.5493 41.313 18.4619Z" fill="#403F42"/>
<path d="M63.8147 18.4619C63.8147 23.4589 59.9215 27.141 55.1437 27.141C50.3659 27.141 46.4728 23.4589 46.4728 18.4619C46.4728 13.4336 50.3659 9.78278 55.1437 9.78278C59.9215 9.78278 63.8147 13.4297 63.8147 18.4619ZM60.0189 18.4619C60.0189 15.3393 57.7625 13.2028 55.1437 13.2028C52.5249 13.2028 50.2685 15.3393 50.2685 18.4619C50.2685 21.5532 52.5249 23.721 55.1437 23.721C57.7625 23.721 60.0189 21.5493 60.0189 18.4619Z" fill="#403F42"/>
<path d="M81.7411 10.3071V25.8889C81.7411 32.2984 77.9766 34.9163 73.5261 34.9163C69.3368 34.9163 66.8154 32.1028 65.8645 29.8019L69.1692 28.4206C69.7577 29.8332 71.1996 31.5002 73.5222 31.5002C76.371 31.5002 78.1364 29.7354 78.1364 26.4132V25.165H78.0039C77.1543 26.2176 75.5175 27.1371 73.4521 27.1371C69.1302 27.1371 65.1708 23.3571 65.1708 18.4932C65.1708 13.5941 69.1302 9.78278 73.4521 9.78278C75.5136 9.78278 77.1504 10.7023 78.0039 11.7236H78.1364V10.311H81.7411V10.3071ZM78.4053 18.4932C78.4053 15.4371 76.3749 13.2028 73.7911 13.2028C71.1723 13.2028 68.9783 15.4371 68.9783 18.4932C68.9783 21.518 71.1723 23.721 73.7911 23.721C76.3749 23.721 78.4053 21.518 78.4053 18.4932Z" fill="#403F42"/>
<path d="M87.6842 1.17408V26.6089H83.9819V1.17408H87.6842Z" fill="#403F42"/>
<path d="M102.111 21.3184L105.057 23.2906C104.106 24.7032 101.815 27.1371 97.8555 27.1371C92.9452 27.1371 89.278 23.3258 89.278 18.458C89.278 13.2967 92.9764 9.77887 97.4307 9.77887C101.916 9.77887 104.11 13.3632 104.827 15.3002L105.221 16.2863L93.6661 21.0915C94.5508 22.8328 95.9264 23.721 97.8555 23.721C99.7884 23.721 101.129 22.7663 102.111 21.3184ZM93.0426 18.1958L100.767 14.9754C100.342 13.8915 99.0636 13.1363 97.5593 13.1363C95.6302 13.1363 92.9452 14.8463 93.0426 18.1958Z" fill="#403F42"/>
<path d="M13.7531 16.2041V12.5219H26.1106C26.2314 13.1636 26.2938 13.9228 26.2938 14.7445C26.2938 17.5071 25.5417 20.9232 23.1177 23.3571C20.76 25.8223 17.7475 27.1371 13.7569 27.1371C6.36033 27.1371 0.140625 21.0876 0.140625 13.6606C0.140625 6.23365 6.36033 0.184082 13.7569 0.184082C17.8489 0.184082 20.7639 1.79626 22.954 3.89756L20.3664 6.49582C18.7958 5.01669 16.6681 3.86626 13.7531 3.86626C8.35173 3.86626 4.12732 8.23713 4.12732 13.6606C4.12732 19.0841 8.35173 23.455 13.7531 23.455C17.2565 23.455 19.2518 22.0423 20.53 20.7589C21.5667 19.718 22.2486 18.231 22.5175 16.2002L13.7531 16.2041Z" fill="#403F42"/>
</svg>
