<svg width="72" height="30" viewBox="0 0 72 30" fill="none" xmlns="http://www.w3.org/2000/svg">
<path d="M4.95882 2.13377H0V7.07284H4.95882V2.13377Z" fill="#403F42"/>
<path d="M4.83532 27.8661V10.0785H0.141208V27.8661H4.83532ZM36.0353 28.0419V23.6829C35.3471 23.6829 34.7647 23.6477 34.3412 23.5774C33.8471 23.5071 33.4765 23.3313 33.2294 23.0853C32.9824 22.8392 32.8235 22.4876 32.7353 22.0306C32.6647 21.5912 32.6294 21.0112 32.6294 20.3081V14.086H36.0353V10.0785H32.6294V3.13564H27.9177V20.3433C27.9177 21.8021 28.0412 23.0325 28.2882 24.0168C28.5353 24.9835 28.9588 25.7745 29.5412 26.3721C30.1235 26.9697 30.9 27.3916 31.8353 27.6552C32.7882 27.9189 33.9882 28.0419 35.4177 28.0419H36.0353ZM63 27.8661V1.76465H58.2882V27.8661H63ZM23.3824 11.8186C22.0765 10.4124 20.2412 9.70934 17.9118 9.70934C16.7824 9.70934 15.7588 9.93784 14.8236 10.3948C13.9059 10.8518 13.1118 11.4846 12.4941 12.2931L12.2294 12.6271V10.0785H7.58826V27.8661H12.2647V18.3923V19.0426C12.2647 18.9371 12.2647 18.8317 12.2647 18.7262C12.3177 17.0564 12.7236 15.8261 13.5 15.0351C14.3294 14.1914 15.3353 13.7696 16.4824 13.7696C17.8412 13.7696 18.8824 14.1914 19.5706 14.9999C20.2412 15.8085 20.5941 16.951 20.5941 18.4098V27.8486H25.3412V17.7595C25.3588 15.2284 24.6883 13.2247 23.3824 11.8186ZM55.8529 18.9371C55.8529 17.654 55.6235 16.4588 55.1824 15.3339C54.7235 14.2266 54.0882 13.2423 53.2941 12.3986C52.4824 11.5549 51.5118 10.9046 50.3824 10.43C49.2529 9.95542 48 9.72692 46.6412 9.72692C45.353 9.72692 44.1353 9.97299 43.0059 10.4476C41.8765 10.9397 40.8882 11.5901 40.0588 12.4162C39.2294 13.2423 38.5588 14.2266 38.0824 15.3515C37.5882 16.4764 37.3588 17.6892 37.3588 18.9723C37.3588 20.2554 37.5882 21.4682 38.0471 22.5931C38.5059 23.718 39.1588 24.7023 39.9706 25.5284C40.7824 26.3545 41.7882 27.0224 42.953 27.497C44.1177 27.9892 45.4059 28.2352 46.7824 28.2352C50.7706 28.2352 53.2412 26.4248 54.7235 24.7375L51.3353 22.1713C50.6294 23.0149 48.9353 24.1574 46.8177 24.1574C45.4941 24.1574 44.4 23.8586 43.5706 23.2434C42.7412 22.6458 42.1765 21.8021 41.8765 20.7651L41.8235 20.6069H55.8529V18.9371ZM41.8588 17.3025C41.8588 16.0018 43.3588 13.7344 46.5882 13.7168C49.8177 13.7168 51.3353 15.9842 51.3353 17.2849L41.8588 17.3025Z" fill="#403F42"/>
</svg>
