<svg width="134" height="54" viewBox="0 0 134 54" fill="none" xmlns="http://www.w3.org/2000/svg">
<g clip-path="url(#clip0_1526_2808)">
<path d="M61.1338 18.045C61.1338 19.3423 60.0828 20.3874 58.7782 20.3874C57.4737 20.3874 56.4227 19.3423 56.4227 18.045C56.4227 16.7477 57.4374 15.7027 58.7782 15.7027C60.1191 15.7387 61.1338 16.7838 61.1338 18.045ZM51.4218 22.7658C51.4218 22.982 51.4218 23.3423 51.4218 23.3423C51.4218 23.3423 50.2984 21.9009 47.9066 21.9009C43.9566 21.9009 40.8763 24.8919 40.8763 29.036C40.8763 33.1441 43.9204 36.1712 47.9066 36.1712C50.3346 36.1712 51.4218 34.6937 51.4218 34.6937V35.3063C51.4218 35.5946 51.6392 35.8108 51.9291 35.8108H54.8645V22.2613C54.8645 22.2613 52.1828 22.2613 51.9291 22.2613C51.6392 22.2613 51.4218 22.5135 51.4218 22.7658ZM51.4218 31.4504C50.8782 32.2432 49.7911 32.9279 48.4865 32.9279C46.1672 32.9279 44.3915 31.4865 44.3915 29.036C44.3915 26.5856 46.1672 25.1441 48.4865 25.1441C49.7548 25.1441 50.9145 25.8649 51.4218 26.6216V31.4504ZM57.0388 22.2613H60.5177V35.8108H57.0388V22.2613ZM109.005 21.9009C106.613 21.9009 105.49 23.3423 105.49 23.3423V15.7387H102.011V35.8108C102.011 35.8108 104.693 35.8108 104.946 35.8108C105.236 35.8108 105.454 35.5586 105.454 35.3063V34.6937C105.454 34.6937 106.577 36.1712 108.969 36.1712C112.919 36.1712 115.999 33.1441 115.999 29.036C115.999 24.9279 112.919 21.9009 109.005 21.9009ZM108.425 32.8919C107.084 32.8919 106.033 32.2072 105.49 31.4144V26.5856C106.033 25.8649 107.193 25.1081 108.425 25.1081C110.745 25.1081 112.52 26.5495 112.52 29C112.52 31.4505 110.745 32.8919 108.425 32.8919ZM100.199 27.7748V35.8468H96.7201V28.1712C96.7201 25.9369 95.9954 25.036 94.0385 25.036C92.9876 25.036 91.9004 25.5766 91.2119 26.3694V35.8108H87.7329V22.2613H90.4871C90.777 22.2613 90.9944 22.5135 90.9944 22.7658V23.3423C92.0091 22.2973 93.3499 21.9009 94.6908 21.9009C96.2128 21.9009 97.4811 22.3333 98.4958 23.1982C99.7279 24.2072 100.199 25.5045 100.199 27.7748ZM79.2893 21.9009C76.8976 21.9009 75.7742 23.3423 75.7742 23.3423V15.7387H72.2953V35.8108C72.2953 35.8108 74.9769 35.8108 75.2306 35.8108C75.5205 35.8108 75.7379 35.5586 75.7379 35.3063V34.6937C75.7379 34.6937 76.8613 36.1712 79.2531 36.1712C83.2031 36.1712 86.2834 33.1441 86.2834 29.036C86.3196 24.9279 83.2394 21.9009 79.2893 21.9009ZM78.7095 32.8919C77.3687 32.8919 76.3178 32.2072 75.7742 31.4144V26.5856C76.3178 25.8649 77.4774 25.1081 78.7095 25.1081C81.0288 25.1081 82.8045 26.5495 82.8045 29C82.8045 31.4505 81.0288 32.8919 78.7095 32.8919ZM69.2875 21.9009C70.3384 21.9009 70.882 22.0811 70.882 22.0811V25.2883C70.882 25.2883 67.9829 24.3153 66.1709 26.3694V35.8468H62.692V22.2613C62.692 22.2613 65.3737 22.2613 65.6274 22.2613C65.9173 22.2613 66.1347 22.5135 66.1347 22.7658V23.3423C66.787 22.5856 68.2003 21.9009 69.2875 21.9009ZM33.1575 34.5856C32.9763 34.1532 32.7951 33.6847 32.6139 33.2883C32.324 32.6396 32.0341 32.027 31.7804 31.4504L31.7442 31.4144C29.2437 26.009 26.5621 20.5315 23.7354 15.1261L23.6267 14.9099C23.3368 14.3694 23.0469 13.7928 22.757 13.2162C22.3946 12.5676 22.0322 11.8829 21.4524 11.2342C20.2928 9.79279 18.6258 9 16.8501 9C15.0382 9 13.4074 9.79279 12.2115 11.1622C11.668 11.8108 11.2693 12.4955 10.907 13.1441C10.617 13.7207 10.3271 14.2973 10.0372 14.8378L9.92851 15.0541C7.13813 20.4595 4.42023 25.9369 1.91976 31.3423L1.88352 31.4144C1.62985 31.991 1.33994 32.6036 1.05004 33.2523C0.868842 33.6486 0.687648 34.0811 0.506455 34.5495C0.0353523 35.8829 -0.109602 37.1441 0.071591 38.4414C0.470216 41.1441 2.28215 43.4144 4.78262 44.4234C5.72482 44.8198 6.70327 45 7.71795 45C8.00786 45 8.37025 44.964 8.66016 44.9279C9.85603 44.7838 11.0882 44.3874 12.284 43.7027C13.7698 42.8739 15.1831 41.6847 16.7776 39.955C18.3721 41.6847 19.8217 42.8739 21.2712 43.7027C22.4671 44.3874 23.6992 44.7838 24.8951 44.9279C25.185 44.964 25.5474 45 25.8373 45C26.852 45 27.8667 44.8198 28.7726 44.4234C31.3093 43.4144 33.085 41.1081 33.4837 38.4414C33.7736 37.1802 33.6286 35.9189 33.1575 34.5856ZM16.8139 36.4595C14.857 34.009 13.5886 31.7027 13.1538 29.7568C12.9726 28.9279 12.9363 28.2072 13.045 27.5586C13.1175 26.982 13.3349 26.4775 13.6249 26.045C14.3134 25.0721 15.473 24.4595 16.8139 24.4595C18.1547 24.4595 19.3506 25.036 20.0029 26.045C20.2928 26.4775 20.5102 26.982 20.5827 27.5586C20.6914 28.2072 20.6552 28.964 20.474 29.7568C20.0391 31.6667 18.7708 33.973 16.8139 36.4595ZM31.2731 38.1532C31.0194 40.027 29.7511 41.6486 27.9754 42.3694C27.1056 42.7297 26.1634 42.8378 25.2212 42.7297C24.3153 42.6216 23.4093 42.3333 22.4671 41.7928C21.1625 41.0721 19.8579 39.955 18.3359 38.2973C20.7276 35.3784 22.1772 32.7117 22.7208 30.3333C22.9744 29.2162 23.0107 28.2072 22.902 27.2703C22.757 26.3694 22.4309 25.5405 21.9235 24.8198C20.8001 23.1982 18.9157 22.2613 16.8139 22.2613C14.712 22.2613 12.8276 23.2342 11.7042 24.8198C11.1969 25.5405 10.8707 26.3694 10.7258 27.2703C10.5808 28.2072 10.617 29.2523 10.907 30.3333C11.4505 32.7117 12.9363 35.4144 15.2918 38.3333C13.8061 39.991 12.4652 41.1081 11.1606 41.8288C10.2184 42.3694 9.31245 42.6577 8.40649 42.7658C7.42804 42.8739 6.48584 42.7297 5.65235 42.4054C3.87665 41.6847 2.6083 40.0631 2.35463 38.1892C2.24591 37.2883 2.31839 36.3874 2.68078 35.3784C2.78949 35.018 2.97069 34.6577 3.15188 34.2252C3.40555 33.6486 3.69546 33.036 3.98537 32.4234L4.02161 32.3514C6.52208 26.982 9.20374 21.5045 11.9941 16.1712L12.1028 15.955C12.3927 15.4144 12.6827 14.8378 12.9726 14.2973C13.2625 13.7207 13.5886 13.1802 13.9872 12.7117C14.7483 11.8468 15.7629 11.3784 16.8863 11.3784C18.0097 11.3784 19.0244 11.8468 19.7854 12.7117C20.1841 13.1802 20.5102 13.7207 20.8001 14.2973C21.09 14.8378 21.3799 15.4144 21.6698 15.955L21.7786 16.1712C24.5327 21.5405 27.2144 27.018 29.7148 32.3874V32.4234C30.0047 33 30.2584 33.6486 30.5483 34.2252C30.7295 34.6577 30.9107 35.018 31.0194 35.3784C31.3093 36.3153 31.418 37.2162 31.2731 38.1532Z" fill="#403F42"/>
</g>
<defs>
<clipPath id="clip0_1526_2808">
<rect width="116" height="36" fill="white" transform="translate(0 9)"/>
</clipPath>
</defs>
</svg>
