<svg width="134" height="54" viewBox="0 0 134 54" fill="none" xmlns="http://www.w3.org/2000/svg">
<g clip-path="url(#clip0_1526_2692)">
<path d="M12.6298 11.0117C12.8365 11.1105 12.9674 11.3152 13.1327 11.4775C13.4014 11.7175 13.6012 12.0351 13.863 12.2821C14.1868 12.5997 14.3935 13.002 14.6622 13.3619C15.1306 14.0889 15.544 14.8652 15.7575 15.7122C15.978 16.2909 16.0124 16.919 15.9986 17.5401C16.0124 18.1047 15.8609 18.6623 15.6128 19.1705C15.1857 19.9397 14.4142 20.455 13.6081 20.7302C12.6023 20.9772 11.4931 21.0196 10.5218 20.582C10.1704 20.3844 9.77087 20.2503 9.48842 19.9397C8.83396 19.3892 8.45506 18.4929 8.57906 17.6248C8.77195 16.0792 9.67442 14.7523 10.6389 13.609C10.7284 13.7783 10.6526 13.976 10.7147 14.1524C10.7973 14.5265 10.9282 14.9217 11.2038 15.1899C11.5414 14.8723 11.8997 14.5547 12.189 14.1877C12.4508 13.7925 12.6643 13.3549 12.7538 12.8891C12.7746 12.2962 12.8297 11.6751 12.6092 11.1105L12.6298 11.0117ZM0.00908166 18.0624C1.62112 18.0765 3.24005 18.0483 4.85215 18.0765C4.85215 19.721 4.86586 21.3654 4.8452 23.0099C5.98885 23.031 7.13236 23.0169 8.28283 23.0169C8.29661 23.144 8.3035 23.271 8.3035 23.398C8.28972 24.7531 8.31039 26.1011 8.28972 27.4562C7.13925 27.4703 5.99567 27.4562 4.8452 27.4633C4.86586 29.8982 4.83831 32.3261 4.85897 34.761C4.90031 34.9727 4.92786 35.1844 4.92097 35.4032C4.90024 35.6009 5.01735 35.7632 5.05876 35.9467C5.14831 36.3701 5.37565 36.7513 5.63737 37.083C6.02322 37.4783 6.51917 37.7535 7.04962 37.8734C7.53186 37.9511 8.01409 37.9934 8.50328 37.9581C8.53077 38.0428 8.54462 38.1275 8.54462 38.2193C8.53773 39.4897 8.53773 40.76 8.54462 42.0234C8.54462 42.1998 8.51017 42.3763 8.48261 42.5456C7.78682 42.5456 7.09109 42.595 6.39523 42.5456C5.98189 42.4538 5.54106 42.4962 5.14143 42.3127C4.03229 42.0445 2.97137 41.4799 2.17913 40.6259C1.01488 39.4755 0.38798 37.8523 0.133085 36.2431C0.0641942 36.0667 0.105528 35.862 0.0779033 35.6714C-0.0184745 35.2832 0.0227909 34.8738 0.00901281 34.4787C0.00219265 29.0089 0.00219261 23.5321 0.00908166 18.0624ZM23.5421 22.6358C23.8314 22.5582 24.1414 22.6146 24.4307 22.5511C25.0369 22.4735 25.6363 22.5723 26.2356 22.5935C26.6559 22.5864 27.0623 22.7134 27.4757 22.7981C29.0119 23.1792 30.4655 24.0191 31.5195 25.2472C31.7055 25.5648 31.988 25.7977 32.167 26.1223C32.6148 26.8493 32.9111 27.6609 33.1659 28.4796C33.3245 29.0795 33.4071 29.7006 33.4829 30.3146C33.5174 31.6767 33.4967 33.0459 33.5036 34.4081C33.4967 37.1253 33.5105 39.8425 33.4967 42.5598C31.8847 42.5386 30.2795 42.5527 28.6744 42.5456C28.6606 42.5386 28.6261 42.5104 28.6124 42.4962C28.6055 38.6922 28.6124 34.888 28.6124 31.091C28.6192 30.6251 28.5366 30.1735 28.4401 29.7288C28.2679 29.2771 28.0475 28.8466 27.7443 28.4796C27.5651 28.2608 27.3172 28.1197 27.1174 27.9291C26.8074 27.7174 26.4422 27.6186 26.091 27.5197C25.905 27.5056 25.719 27.5197 25.5467 27.4562C24.8096 27.4068 24.0587 27.4703 23.3698 27.7597C22.8668 28.0067 22.3984 28.3455 22.0678 28.8184C21.5235 29.4818 21.3444 30.3852 21.3582 31.2321C21.3582 35.0009 21.3651 38.7768 21.3582 42.5456C19.7323 42.5598 18.1066 42.5386 16.4807 42.5598C16.4532 38.925 16.4807 35.2832 16.467 31.6485C16.4738 31.1826 16.4601 30.7169 16.4945 30.251C16.5841 30.0181 16.522 29.7641 16.5909 29.5382C16.7149 28.6771 17.0318 27.8584 17.3831 27.075C17.7276 26.3904 18.1409 25.7341 18.6783 25.1906C19.0986 24.753 19.5325 24.2943 20.063 23.9908C21.0896 23.2569 22.3021 22.8122 23.5421 22.6358ZM81.2723 22.5935C81.8716 22.5793 82.4641 22.4594 83.0635 22.5582C83.3872 22.6005 83.7179 22.5935 84.0417 22.6076C84.1037 23.2216 84.0554 23.8427 84.0692 24.4567V26.9269C84.0692 27.0822 84.0899 27.2445 84.0279 27.3927C83.8694 27.2728 83.6559 27.3151 83.4768 27.2657C82.7465 27.2022 81.9956 27.2375 81.3067 27.5198C80.4869 27.8092 79.7704 28.4232 79.3708 29.2207C79.2537 29.3689 79.2537 29.5807 79.1228 29.7218C78.9092 30.5123 78.8955 31.338 78.9092 32.1497C78.9023 35.6221 78.9299 39.0874 78.8955 42.5598C77.2903 42.5387 75.6783 42.5598 74.0662 42.5457C74.0524 42.5316 74.0317 42.5034 74.018 42.4893V31.1616C73.9973 30.6887 74.1006 30.23 74.0938 29.7642C74.204 29.5383 74.1765 29.2772 74.2454 29.0443C74.5898 27.2587 75.5061 25.5719 76.8977 24.4215C77.1663 24.1109 77.5521 23.9627 77.869 23.7157C78.8956 23.0734 80.0874 22.7628 81.2723 22.5935ZM9.86731 23.0099C11.4931 23.0381 13.1189 23.0028 14.7448 23.024C14.7448 29.4818 14.7379 35.9325 14.7448 42.3833C14.7448 42.4468 14.7448 42.5739 14.6483 42.5527H9.88116C9.83976 41.487 9.8742 40.4142 9.86042 39.3485C9.86731 33.907 9.86042 28.4584 9.86731 23.0099ZM60.8807 36.109C61.2941 35.9467 61.6936 35.7349 62.1138 35.5868C62.72 35.3468 63.3125 35.0575 63.9187 34.8175C65.1725 34.2247 66.4677 33.7307 67.7353 33.1731C68.0383 33.0037 68.3828 32.926 68.679 32.7425C69.0166 32.6084 69.3542 32.4884 69.6849 32.3331C69.9742 32.1567 70.3049 32.0861 70.6011 31.9309C70.9938 31.7685 71.3727 31.5851 71.7723 31.4369C72.1787 31.2039 72.6334 31.091 73.0398 30.8651C73.1501 30.7875 73.3291 30.8086 73.398 30.6746C73.281 30.5052 73.3429 30.2935 73.281 30.1099C73.1913 29.7783 73.1018 29.4536 73.0261 29.129C72.7161 28.148 72.2683 27.2093 71.662 26.3906C70.9249 25.2966 69.9122 24.4144 68.7893 23.7651C68.0522 23.3064 67.2255 23.0452 66.3988 22.8194C65.889 22.7558 65.3999 22.5723 64.8832 22.5794C64.4147 22.5159 63.9325 22.4877 63.471 22.5723C62.6512 22.5865 61.8658 22.7911 61.0873 23.024C59.7302 23.511 58.4419 24.2521 57.4017 25.2755C57.0917 25.5719 56.8368 25.9177 56.5406 26.2212C56.079 26.8282 55.6587 27.4704 55.3419 28.1621C54.8941 29.1996 54.467 30.2864 54.4187 31.4369C54.2672 31.9874 54.3154 32.5661 54.3085 33.1307C54.2947 33.4907 54.3498 33.8435 54.4187 34.1894C54.3981 34.5563 54.5359 34.8951 54.5841 35.248C54.7012 35.9961 55.025 36.6877 55.3212 37.3794C56.1341 39.0874 57.4154 40.5695 59.0206 41.5364C60.0746 42.1998 61.2458 42.6727 62.472 42.8491C63.471 43.0115 64.4974 43.0397 65.5032 42.9057C65.8477 42.9338 66.1783 42.7786 66.5228 42.7574C67.9902 42.4045 69.43 41.7693 70.5391 40.7036C70.8699 40.4354 71.1799 40.1178 71.4417 39.7789C71.8825 39.3202 72.1995 38.7627 72.5163 38.2122C72.8195 37.6263 73.0675 37.0053 73.2467 36.3631C73.1502 36.3207 73.04 36.3348 72.9435 36.3348C71.3315 36.342 69.7263 36.3278 68.1143 36.3348C67.9627 36.3348 67.9628 36.5466 67.8662 36.6313C67.5907 37.0406 67.2393 37.3864 66.8673 37.7111C66.33 38.1064 65.6962 38.3181 65.0693 38.5086C64.9039 38.5299 64.7455 38.5227 64.5939 38.5863C64.2082 38.6145 63.8155 38.6005 63.4228 38.5934C62.9888 38.5087 62.5548 38.4099 62.1345 38.2687C61.487 37.93 60.8532 37.5418 60.3641 36.9912C60.2401 36.836 60.0403 36.716 59.9989 36.5113C60.1092 36.4619 60.2126 36.3843 60.3365 36.3631C60.5363 36.3278 60.6878 36.1655 60.8807 36.109ZM58.8966 32.5378C58.8002 32.2908 58.8897 32.0014 58.876 31.7403C58.9862 31.3803 59.0207 30.9992 59.1515 30.6392C59.4822 29.8417 59.8886 29.0583 60.4811 28.4301C60.7567 28.1972 60.9909 27.9149 61.3078 27.7385C61.542 27.6114 61.7694 27.4703 62.0105 27.3573C62.4583 27.2233 62.8923 27.0116 63.3608 27.0116C63.7878 26.9057 64.2288 26.9622 64.6628 26.9692C65.7994 27.1316 66.9431 27.6326 67.6802 28.5572C67.756 28.7407 67.501 28.7548 67.3977 28.8254C66.9499 29.0795 66.447 29.2065 65.9992 29.4677C65.7995 29.503 65.6272 29.63 65.4343 29.6935C64.0083 30.3287 62.5547 30.8862 61.1425 31.5497C60.3847 31.8532 59.6338 32.1778 58.8966 32.5378ZM53.7643 14.3853C52.2556 14.3712 50.7469 14.3853 49.2382 14.3783C49.1279 14.3924 48.9971 14.343 48.9075 14.4277C48.9213 17.7448 48.9075 21.069 48.9145 24.3861C48.9075 24.5061 48.9351 24.6261 48.8869 24.739C48.7491 24.7178 48.6802 24.5837 48.5769 24.5061C47.8811 23.8921 47.1027 23.3698 46.2346 23.0663C45.649 22.8334 45.036 22.7134 44.416 22.6005C43.7133 22.5864 43.0037 22.5652 42.2941 22.6076C42.2183 22.6287 42.1494 22.6499 42.0737 22.657C40.4961 22.8828 39.0218 23.638 37.8094 24.6755C37.1342 25.3248 36.4591 26.0023 35.9838 26.821C35.4258 27.6327 35.0675 28.5643 34.7231 29.4818C34.5646 30.0605 34.4061 30.6322 34.3372 31.2251C34.2063 32.1355 34.2614 33.0671 34.2752 33.9846C34.3097 34.2246 34.3854 34.4504 34.3923 34.6904C34.5163 35.4667 34.7368 36.229 35.0398 36.9559C35.2947 37.6546 35.7081 38.2898 36.087 38.925C36.3556 39.2779 36.6174 39.6449 36.9412 39.9555C37.4235 40.4424 37.8987 40.9718 38.505 41.3105C39.2214 41.8681 40.0688 42.1999 40.8955 42.5245C41.1986 42.5809 41.481 42.7574 41.791 42.7644C42.0528 42.7856 42.2939 42.9127 42.5558 42.8985C42.6936 42.8844 42.8176 42.9832 42.9622 42.969C43.6304 42.9902 44.3055 42.9902 44.9738 42.969C45.084 42.969 45.1942 42.9196 45.3113 42.9126C45.7728 42.9196 46.2 42.7361 46.6477 42.6726C47.2333 42.4538 47.8603 42.3127 48.4045 41.9881C49.2105 41.607 49.9407 41.0706 50.5952 40.4636C51.4219 39.7296 52.0901 38.8121 52.5861 37.8098C52.7997 37.3652 53.0408 36.9347 53.1786 36.4548C53.4404 35.7913 53.5575 35.0856 53.6471 34.3868C53.7986 33.7728 53.7504 33.1306 53.7641 32.4954C53.7643 26.4611 53.7643 20.4267 53.7643 14.3853ZM48.8662 33.4976C48.8249 34.2458 48.5493 34.9586 48.2255 35.6291C47.6813 36.6807 46.7651 37.4853 45.7248 37.9934C45.5663 38.0781 45.3596 38.0711 45.2495 38.2263C45.0566 38.2263 44.8637 38.2334 44.6777 38.304C44.0852 38.3181 43.4721 38.3746 42.8934 38.2052C42.6454 38.0852 42.3699 38.0359 42.1219 37.9017C41.8118 37.7253 41.4605 37.6053 41.2056 37.3371C40.7234 36.9913 40.3514 36.5184 40.0138 36.0314C39.7451 35.5586 39.4765 35.0716 39.3525 34.5352C39.2147 34.2529 39.2284 33.9353 39.1527 33.6389C39.132 32.8838 39.0907 32.1074 39.2629 31.3733C39.3387 31.1404 39.387 30.8934 39.4696 30.6605C39.6693 30.2864 39.7934 29.87 40.0551 29.5313C40.1929 29.2348 40.434 29.016 40.627 28.762C41.1437 28.155 41.8532 27.7668 42.5696 27.4634C42.8383 27.3999 43.1001 27.2588 43.3826 27.2588C43.9544 27.1105 44.5468 27.2305 45.1118 27.3364C45.8558 27.6116 46.5929 27.9928 47.1716 28.5574C47.3852 28.762 47.5435 29.0161 47.7572 29.2208C48.6389 30.4346 49.0453 31.9943 48.8662 33.4976ZM81.231 40.0754H83.0359C83.0428 40.2166 83.0428 40.3578 83.0359 40.4989C82.8293 40.5271 82.6226 40.4918 82.4228 40.5201C82.3953 41.1553 82.4228 41.7834 82.4091 42.4186C82.2231 42.4045 82.0371 42.4045 81.858 42.4116C81.8372 41.9104 81.8442 41.4022 81.851 40.9012C81.851 40.7671 81.8786 40.6118 81.7615 40.5201C81.5823 40.4919 81.4032 40.5272 81.2241 40.4989C81.2172 40.3578 81.2172 40.2166 81.231 40.0754ZM83.3666 40.0825C83.6215 40.0754 83.8764 40.0613 84.1314 40.0965C84.1176 40.3012 84.2829 40.4424 84.3311 40.633C84.4 40.8729 84.5033 41.0988 84.5722 41.3388C84.6273 41.4446 84.7237 41.5364 84.6893 41.6705C84.8271 41.1199 85.0406 40.5977 85.2542 40.0825C85.4953 40.0754 85.7433 40.0684 85.9913 40.0825C86.005 40.8376 85.9913 41.607 85.9913 42.3622C85.826 42.3763 85.6606 42.3763 85.4884 42.3622C85.4953 41.8328 85.4884 41.3035 85.5021 40.7812C85.4402 40.8377 85.3781 40.8871 85.3299 40.9577C85.2404 41.4376 84.9992 41.8752 84.8821 42.3551C84.7443 42.3763 84.6135 42.3763 84.4757 42.3622C84.4343 42.094 84.2483 41.8752 84.2483 41.6C84.0624 41.367 84.0554 41.0354 83.9108 40.7742C83.8144 40.9648 83.8902 41.1906 83.8694 41.3953C83.8419 41.727 83.9039 42.0658 83.8419 42.3975C83.6766 42.3975 83.4905 42.454 83.3597 42.334C83.3804 41.5858 83.3597 40.8377 83.3666 40.0825Z" fill="#403F42"/>
</g>
<defs>
<clipPath id="clip0_1526_2692">
<rect width="86" height="32" fill="white" transform="translate(0 11)"/>
</clipPath>
</defs>
</svg>
