<svg width="57" height="40" viewBox="0 0 57 40" fill="none" xmlns="http://www.w3.org/2000/svg">
<g clip-path="url(#clip0_1526_2794)">
<path fill-rule="evenodd" clip-rule="evenodd" d="M0.213867 0.9485H8.82402V23.8347C8.82402 27.4566 10.4968 29.614 11.8195 30.5389C10.4192 31.7718 6.13986 32.8506 2.94987 30.2305C1.06915 28.6861 0.213867 26.1465 0.213867 23.7576V0.9485ZM54.0239 19.9596V17.5545H56.6499V9.11673H53.7661C52.659 4.05091 48.1053 0.254883 42.6594 0.254883C36.3857 0.254883 31.3001 5.29205 31.3001 11.5054V31.2101C33.0874 31.4589 35.2167 31.1791 37.0284 29.6912C38.9088 28.1465 39.7641 25.6072 39.7641 23.2183V22.4923H44.0643V14.0546H39.7641V11.5054H39.7744C39.7744 9.92751 41.066 8.64836 42.6594 8.64836C44.2525 8.64836 45.5492 9.92751 45.5492 11.5054V19.9596C45.5492 26.1729 50.6402 31.2101 56.9137 31.2101V22.8166C55.3205 22.8166 54.0239 21.5374 54.0239 19.9596ZM21.4141 9.11673V21.5C21.4141 22.203 20.8252 22.7729 20.0986 22.7729C19.3719 22.7729 18.783 22.203 18.783 21.5V9.11673H10.2633V23.6807C10.2633 26.3006 11.1604 29.614 15.243 30.6929C19.3298 31.7729 21.7006 29.5372 21.7006 29.5372C21.4846 31.0101 20.084 32.0889 17.8277 32.3201C16.1206 32.4949 13.9374 31.9349 12.8484 31.4725V39.1885C15.6233 39.999 18.5584 40.2608 21.4308 39.7088C26.6435 38.7071 29.9335 34.3919 29.9335 28.6509V9.11673H21.4141Z" fill="#403F42"/>
</g>
<defs>
<clipPath id="clip0_1526_2794">
<rect width="57" height="40" fill="white"/>
</clipPath>
</defs>
</svg>
