<svg width="118" height="30" viewBox="0 0 118 30" fill="none" xmlns="http://www.w3.org/2000/svg">
<g clip-path="url(#clip0_1526_2787)">
<path d="M37.7933 23.5038L39.2624 20.1022C40.85 21.2833 42.9588 21.8975 45.0439 21.8975C46.5841 21.8975 47.5556 21.307 47.5556 20.4093C47.5319 17.9054 38.3383 19.866 38.2672 13.5825C38.2435 10.3936 41.0869 7.93688 45.115 7.93688C47.5082 7.93688 49.9014 8.52743 51.6074 9.87389L50.2331 13.3463C48.6692 12.3542 46.7263 11.6455 44.8781 11.6455C43.6222 11.6455 42.7929 12.2361 42.7929 12.992C42.8166 15.4487 52.0813 14.1022 52.1761 20.1022C52.1761 23.3621 49.4038 25.6534 45.4231 25.6534C42.5086 25.6534 39.8311 24.9684 37.7933 23.5038ZM94.1632 18.8739C93.4287 20.1495 92.0544 21.0235 90.4668 21.0235C88.121 21.0235 86.2255 19.1337 86.2255 16.7951C86.2255 14.4566 88.121 12.5668 90.4668 12.5668C92.0544 12.5668 93.4287 13.4408 94.1632 14.7164L98.215 12.4723C96.6986 9.7794 93.7841 7.93688 90.4668 7.93688C85.562 7.93688 81.5813 11.9054 81.5813 16.7951C81.5813 21.6849 85.562 25.6534 90.4668 25.6534C93.8078 25.6534 96.6986 23.8345 98.215 21.118L94.1632 18.8739ZM54.2138 0.590423H59.2845V25.3227H54.2138V0.590423ZM100.205 0.590423V25.3227H105.276V17.9054L111.295 25.3227H117.787L110.133 16.5117L117.218 8.29121H111.01L105.276 15.118V0.590423H100.205ZM74.3544 18.9211C73.6198 20.1259 72.1034 21.0235 70.3974 21.0235C68.0516 21.0235 66.156 19.1337 66.156 16.7951C66.156 14.4566 68.0516 12.5668 70.3974 12.5668C72.1034 12.5668 73.6198 13.5117 74.3544 14.74V18.9211ZM74.3544 8.29121V10.2991C73.5251 8.90538 71.4636 7.93688 69.3074 7.93688C64.8528 7.93688 61.3459 11.8581 61.3459 16.7715C61.3459 21.6849 64.8528 25.6534 69.3074 25.6534C71.4636 25.6534 73.5251 24.6849 74.3544 23.2912V25.2991H79.4251V8.29121H74.3544Z" fill="#403F42"/>
<path d="M6.44538 18.8975C6.44538 20.6219 5.04739 22.0156 3.31767 22.0156C1.58795 22.0156 0.189962 20.6219 0.189962 18.8975C0.189962 17.1731 1.58795 15.7794 3.31767 15.7794H6.44538V18.8975ZM8.00924 18.8975C8.00924 17.1731 9.40723 15.7794 11.137 15.7794C12.8667 15.7794 14.2647 17.1731 14.2647 18.8975V26.6928C14.2647 28.4172 12.8667 29.8109 11.137 29.8109C9.40723 29.8109 8.00924 28.4172 8.00924 26.6928V18.8975Z" fill="#403F42"/>
<path d="M11.1367 6.37782C9.40698 6.37782 8.00899 4.98412 8.00899 3.25971C8.00899 1.5353 9.40698 0.141602 11.1367 0.141602C12.8664 0.141602 14.2644 1.5353 14.2644 3.25971V6.37782H11.1367ZM11.1367 7.9605C12.8664 7.9605 14.2644 9.3542 14.2644 11.0786C14.2644 12.803 12.8664 14.1967 11.1367 14.1967H3.29373C1.56401 14.1967 0.166016 12.803 0.166016 11.0786C0.166016 9.3542 1.56401 7.9605 3.29373 7.9605H11.1367Z" fill="#403F42"/>
<path d="M23.6712 11.0786C23.6712 9.3542 25.0692 7.9605 26.7989 7.9605C28.5287 7.9605 29.9267 9.3542 29.9267 11.0786C29.9267 12.803 28.5287 14.1967 26.7989 14.1967H23.6712V11.0786ZM22.1074 11.0786C22.1074 12.803 20.7094 14.1967 18.9797 14.1967C17.2499 14.1967 15.852 12.803 15.852 11.0786V3.25971C15.852 1.5353 17.2499 0.141602 18.9797 0.141602C20.7094 0.141602 22.1074 1.5353 22.1074 3.25971V11.0786Z" fill="#403F42"/>
<path d="M18.9797 23.5747C20.7094 23.5747 22.1074 24.9684 22.1074 26.6928C22.1074 28.4172 20.7094 29.8109 18.9797 29.8109C17.2499 29.8109 15.852 28.4172 15.852 26.6928V23.5747H18.9797ZM18.9797 22.0156C17.2499 22.0156 15.852 20.6219 15.852 18.8975C15.852 17.1731 17.2499 15.7794 18.9797 15.7794H26.8226C28.5524 15.7794 29.9503 17.1731 29.9503 18.8975C29.9503 20.6219 28.5524 22.0156 26.8226 22.0156H18.9797Z" fill="#403F42"/>
</g>
<defs>
<clipPath id="clip0_1526_2787">
<rect width="118" height="30" fill="white"/>
</clipPath>
</defs>
</svg>
