<svg width="127" height="38" viewBox="0 0 127 38" fill="none" xmlns="http://www.w3.org/2000/svg">
<g clip-path="url(#clip0_1526_2831)">
<path d="M19.0833 0.0625C8.57593 0.0625 0.0576172 8.54306 0.0576172 19.0041C0.0576172 29.4657 8.57593 37.9455 19.0833 37.9455C29.5918 37.9455 38.1092 29.4657 38.1092 19.0041C38.1092 8.54374 29.5918 0.0634048 19.0831 0.0634048L19.0833 0.0625ZM27.8084 27.3818C27.4676 27.9382 26.736 28.1146 26.1771 27.7731C21.7101 25.0565 16.0867 24.4413 9.46402 25.9477C8.82584 26.0925 8.18971 25.6944 8.0443 25.0588C7.89822 24.4232 8.29649 23.7899 8.93626 23.6451C16.1837 21.9966 22.4003 22.7064 27.4153 25.7577C27.9742 26.0993 28.1514 26.8253 27.8084 27.3818ZM30.1371 22.2242C29.7077 22.919 28.7944 23.1384 28.0969 22.7109C22.9828 19.5814 15.1872 18.675 9.13823 20.5031C8.35374 20.739 7.52517 20.2989 7.28708 19.5192C7.0508 18.7381 7.49314 17.9148 8.27627 17.6773C15.1858 15.59 23.7757 16.6011 29.6486 20.1941C30.3461 20.6216 30.5665 21.5309 30.1371 22.2244V22.2242ZM30.337 16.8535C24.2051 13.2275 14.0883 12.8941 8.23378 14.6631C7.29366 14.947 6.29947 14.4186 6.01458 13.4826C5.72968 12.5462 6.25994 11.557 7.20074 11.2725C13.9213 9.24131 25.0934 9.63375 32.1532 13.8063C33.0006 14.3059 33.2778 15.3932 32.7757 16.234C32.2759 17.0759 31.1808 17.3534 30.3379 16.8535H30.337ZM51.8202 17.5484C48.535 16.7685 47.9512 16.2211 47.9512 15.0709C47.9512 13.9843 48.9781 13.253 50.5071 13.253C51.9883 13.253 53.456 13.8083 54.9964 14.9515C55.0418 14.9861 55.1009 14.9999 55.1577 14.9908C55.2167 14.9822 55.2667 14.9508 55.3008 14.9035L56.9048 12.6525C56.9707 12.5597 56.9525 12.4319 56.8639 12.3612C55.0304 10.897 52.9675 10.1852 50.5548 10.1852C47.0083 10.1852 44.5297 12.3044 44.5297 15.3365C44.5297 18.5879 46.6675 19.7393 50.3617 20.628C53.5037 21.3488 54.0353 21.9528 54.0353 23.0321C54.0353 24.2287 52.963 24.9729 51.2363 24.9729C49.3189 24.9729 47.7535 24.3282 46.0041 22.8218C45.961 22.7833 45.9019 22.7675 45.8474 22.7698C45.7883 22.7743 45.736 22.8014 45.6997 22.8444L43.9003 24.9751C43.8254 25.0656 43.8344 25.1968 43.9208 25.2737C45.9564 27.0832 48.4601 28.0377 51.1636 28.0377C54.985 28.0377 57.4546 25.959 57.4546 22.7404C57.4614 20.0245 55.8279 18.5203 51.827 17.5513L51.8202 17.5484ZM66.1015 14.3229C64.4453 14.3229 63.0867 14.9725 61.9643 16.3037V14.8054C61.9643 14.6871 61.8689 14.5907 61.7508 14.5907H58.8086C58.6905 14.5907 58.5951 14.6871 58.5951 14.8054V31.4532C58.5951 31.5708 58.6905 31.6681 58.8086 31.6681H61.7508C61.8689 31.6681 61.9643 31.5708 61.9643 31.4532V26.1988C63.0867 27.4496 64.4453 28.0626 66.1015 28.0626C69.1799 28.0626 72.297 25.7034 72.297 21.1934C72.3015 16.6825 69.1845 14.3227 66.1038 14.3227L66.1015 14.3229ZM68.8755 21.1934C68.8755 23.489 67.4555 25.0927 65.4199 25.0927C63.4093 25.0927 61.8916 23.4167 61.8916 21.1934C61.8916 18.97 63.4093 17.2944 65.4199 17.2944C67.4215 17.2941 68.8755 18.9336 68.8755 21.1932V21.1934ZM80.2828 14.3229C76.3183 14.3229 73.2126 17.362 73.2126 21.2425C73.2126 25.0814 76.2978 28.0875 80.2351 28.0875C84.2132 28.0875 87.328 25.0588 87.328 21.1934C87.328 17.3412 84.2336 14.3234 80.2828 14.3234V14.3229ZM80.2828 25.1154C78.1744 25.1154 76.5841 23.428 76.5841 21.1923C76.5841 18.9465 78.1199 17.3168 80.2351 17.3168C82.357 17.3168 83.9565 19.0035 83.9565 21.2414C83.9565 23.4868 82.4116 25.1154 80.2828 25.1154ZM95.7931 14.5907H92.5557V11.296C92.5557 11.1779 92.4602 11.0816 92.3421 11.0816H89.4C89.2818 11.0816 89.1841 11.1779 89.1841 11.296V14.5907H87.771C87.6529 14.5907 87.5574 14.6871 87.5574 14.8054V17.3222C87.5574 17.4403 87.6529 17.5368 87.771 17.5368H89.1841V24.05C89.1841 26.6806 90.4996 28.0151 93.0964 28.0151C94.1505 28.0151 95.0252 27.798 95.8499 27.332C95.9181 27.2958 95.959 27.2234 95.959 27.1465V24.7489C95.959 24.6765 95.9204 24.6064 95.8567 24.568C95.7931 24.5273 95.7136 24.525 95.6477 24.5589C95.082 24.8417 94.5345 24.9729 93.9211 24.9729C92.9782 24.9729 92.5557 24.5453 92.5557 23.5908V17.538H95.7931C95.9113 17.538 96.0067 17.4416 96.0067 17.3233V14.8067C96.0112 14.6884 95.9158 14.5921 95.7954 14.5921L95.7931 14.5907ZM107.071 14.6036V14.1989C107.071 13.0085 107.53 12.4776 108.557 12.4776C109.17 12.4776 109.663 12.5989 110.215 12.7821C110.283 12.8034 110.354 12.7927 110.408 12.7522C110.465 12.7117 110.497 12.6468 110.497 12.5781V10.1103C110.497 10.016 110.438 9.93255 110.345 9.90472C109.763 9.73214 109.018 9.55503 107.9 9.55503C105.185 9.55503 103.747 11.0782 103.747 13.9583V14.578H102.334C102.216 14.578 102.118 14.6744 102.118 14.7925V17.3222C102.118 17.4403 102.216 17.5368 102.334 17.5368H103.747V27.5808C103.747 27.7007 103.845 27.7957 103.963 27.7957H106.903C107.023 27.7957 107.119 27.7007 107.119 27.5808V17.5375H109.865L114.073 27.5808C113.596 28.6349 113.126 28.8452 112.485 28.8452C111.967 28.8452 111.419 28.6914 110.863 28.3861C110.81 28.3589 110.747 28.3544 110.692 28.3702C110.636 28.3906 110.588 28.4313 110.565 28.4856L109.568 30.6638C109.52 30.7679 109.561 30.8877 109.661 30.942C110.701 31.503 111.64 31.7427 112.801 31.7427C114.973 31.7427 116.174 30.7339 117.231 28.0242L122.334 14.8967C122.361 14.8307 122.352 14.7561 122.311 14.6975C122.272 14.6393 122.206 14.6043 122.136 14.6043H119.073C118.98 14.6043 118.898 14.6624 118.869 14.7481L115.731 23.6677L112.296 14.7423C112.265 14.6592 112.185 14.6043 112.096 14.6043H107.071V14.6036ZM100.532 14.5907H97.5902C97.4721 14.5907 97.3744 14.6871 97.3744 14.8054V27.5808C97.3744 27.7007 97.4721 27.7957 97.5902 27.7957H100.532C100.65 27.7957 100.748 27.7007 100.748 27.5808V14.8063C100.748 14.688 100.653 14.5916 100.532 14.5916V14.5907ZM99.0783 8.77332C97.9128 8.77332 96.9677 9.71246 96.9677 10.8726C96.9677 12.0334 97.9128 12.9737 99.0783 12.9737C100.244 12.9737 101.187 12.0334 101.187 10.8726C101.187 9.71269 100.242 8.77332 99.0783 8.77332ZM124.846 18.6986C123.683 18.6986 122.777 17.7678 122.777 16.6375C122.777 15.5072 123.695 14.5658 124.858 14.5658C126.021 14.5658 126.927 15.4964 126.927 16.6257C126.927 17.756 126.01 18.6986 124.846 18.6986ZM124.858 14.7708C123.797 14.7708 122.995 15.6099 122.995 16.6375C122.995 17.6646 123.792 18.4925 124.846 18.4925C125.907 18.4925 126.709 17.654 126.709 16.6257C126.709 15.5986 125.912 14.7708 124.858 14.7708ZM125.317 16.8377L125.903 17.6538H125.408L124.88 16.9051H124.428V17.6538H124.015V15.4905H124.983C125.489 15.4905 125.821 15.7477 125.821 16.1806C125.823 16.5353 125.617 16.752 125.319 16.8377H125.317ZM124.967 15.8617H124.428V16.5459H124.967C125.235 16.5459 125.396 16.4149 125.396 16.2034C125.396 15.9809 125.235 15.8617 124.967 15.8617Z" fill="#403F42"/>
</g>
<defs>
<clipPath id="clip0_1526_2831">
<rect width="127" height="38" fill="white"/>
</clipPath>
</defs>
</svg>
