<svg width="47" height="46" viewBox="0 0 47 46" fill="none" xmlns="http://www.w3.org/2000/svg">
<path d="M14.1562 20.125C17.7288 20.125 20.625 17.2288 20.625 13.6562C20.625 10.0837 17.7288 7.1875 14.1562 7.1875C10.5837 7.1875 7.6875 10.0837 7.6875 13.6562C7.6875 17.2288 10.5837 20.125 14.1562 20.125Z" stroke="white" stroke-width="2" stroke-linecap="round" stroke-linejoin="round"/>
<path d="M32.8438 20.125C36.4163 20.125 39.3125 17.2288 39.3125 13.6562C39.3125 10.0837 36.4163 7.1875 32.8438 7.1875C29.2712 7.1875 26.375 10.0837 26.375 13.6562C26.375 17.2288 29.2712 20.125 32.8438 20.125Z" stroke="white" stroke-width="2" stroke-linecap="round" stroke-linejoin="round"/>
<path d="M14.1562 38.8125C17.7288 38.8125 20.625 35.9163 20.625 32.3438C20.625 28.7712 17.7288 25.875 14.1562 25.875C10.5837 25.875 7.6875 28.7712 7.6875 32.3438C7.6875 35.9163 10.5837 38.8125 14.1562 38.8125Z" stroke="white" stroke-width="2" stroke-linecap="round" stroke-linejoin="round"/>
<path d="M32.8438 38.8125C36.4163 38.8125 39.3125 35.9163 39.3125 32.3438C39.3125 28.7712 36.4163 25.875 32.8438 25.875C29.2712 25.875 26.375 28.7712 26.375 32.3438C26.375 35.9163 29.2712 38.8125 32.8438 38.8125Z" stroke="white" stroke-width="2" stroke-linecap="round" stroke-linejoin="round"/>
</svg>
