<svg width="64" height="21" viewBox="0 0 64 21" fill="none" xmlns="http://www.w3.org/2000/svg">
<path fill-rule="evenodd" clip-rule="evenodd" d="M26.7186 6.01418H22.5754V4.49946H26.6369V2.98474H22.5754V1.63337H26.7186V0.118652H20.8008V7.53632H26.7186V6.01418Z" fill="url(#paint0_radial_288_4915)"/>
<path fill-rule="evenodd" clip-rule="evenodd" d="M7.26449 7.529H10.9028V1.70772L13.5238 7.529H15.1277L17.7487 1.70772V7.529H19.6124V0.111328H16.6498L14.5337 5.16782L12.1651 0.111328H9.29154V7.11319L6.24726 0.111328H3.6262L0.411133 7.529H2.35651L3.03219 5.8435H6.75959L7.26449 7.529ZM3.46285 4.32136L4.64344 1.36617L5.82403 4.32136H3.46285Z" fill="url(#paint1_radial_288_4915)"/>
<path fill-rule="evenodd" clip-rule="evenodd" d="M29.7631 4.8333H31.7085C32.3842 4.8333 32.7257 4.91497 32.9782 5.16743C33.3197 5.50156 33.2306 6.17724 33.2306 6.60047V7.52861H35.0052V6.09556C35.0052 5.41988 34.9236 5.08575 34.7528 4.7442C34.582 4.49175 34.2479 4.23929 33.9063 4.15019C34.3296 3.97941 35.176 3.39283 35.176 2.12314C35.176 1.27668 34.8345 0.771774 34.2479 0.437645C33.6539 0.103516 32.9782 0.103516 32.0501 0.103516H27.9885V7.52118H29.7631V4.8333ZM29.7631 1.62566H31.961C32.3025 1.62566 32.6366 1.62566 32.8074 1.79644C33.0599 1.87811 33.149 2.13057 33.149 2.47212C33.149 2.81367 32.9782 3.06613 32.8074 3.1478C32.555 3.31858 32.3025 3.31858 31.961 3.31858H29.7631V1.62566Z" fill="url(#paint2_radial_288_4915)"/>
<path fill-rule="evenodd" clip-rule="evenodd" d="M36.1038 0.111328H37.9675V7.529H36.1038V0.111328Z" fill="url(#paint3_radial_288_4915)"/>
<path fill-rule="evenodd" clip-rule="evenodd" d="M42.3632 7.52874H44.4794L45.155 5.84325H48.875L49.5507 7.52874H53.189V1.95992L56.5748 7.52874H59.1142V0.111074H57.2505V5.25666L54.1245 0.111074H51.4218V7.11294L48.3775 0.111074H45.6748L43.1354 5.93235H42.3781C41.8731 5.93235 41.4499 5.85067 41.1084 5.50912C40.7668 5.16756 40.6035 4.58098 40.6035 3.73452C40.6035 2.97716 40.7742 2.38315 41.1084 2.04902C41.4425 1.71489 41.8657 1.62579 42.4597 1.62579H44.1526V0.0219727H42.4597C41.19 0.0219727 40.3436 0.274425 39.757 0.868433C38.9996 1.62579 38.8289 2.64303 38.8289 3.73452C38.8289 5.08589 39.1704 5.92492 39.757 6.60061C40.4178 7.35797 41.5167 7.52874 42.3632 7.52874ZM47.0113 1.37334L48.281 4.32853H45.8307L47.0113 1.37334Z" fill="url(#paint4_radial_288_4915)"/>
<path fill-rule="evenodd" clip-rule="evenodd" d="M31.7079 12.9268H26.0425L23.763 15.3696L21.5652 12.9268H14.3777V20.3444H21.387L23.6665 17.9016L25.8643 20.3444H29.3318V17.8125H31.5297C33.0518 17.8125 34.6556 17.3892 34.6556 15.2805C34.7521 13.2683 33.1409 12.9268 31.7079 12.9268ZM20.5405 18.748H16.1449V17.2333H20.0356V15.7186H16.1449V14.3672H20.6296L22.575 16.5576L20.5405 18.748ZM27.6463 19.6762L24.9436 16.6393L27.6463 13.6841V19.6762ZM31.7079 16.2978H29.4283V14.4415H31.7079C32.3835 14.4415 32.8068 14.6939 32.8068 15.3696C32.8068 15.9636 32.3835 16.2978 31.7079 16.2978Z" fill="url(#paint5_radial_288_4915)"/>
<path fill-rule="evenodd" clip-rule="evenodd" d="M54.451 15.7931H53.5229C53.1814 15.7931 53.018 15.7931 52.8472 15.7114C52.5948 15.6297 52.424 15.4589 52.424 15.1174C52.424 14.8649 52.5057 14.6942 52.6765 14.6125C52.8472 14.5308 53.0997 14.4417 53.3521 14.4417H56.6489V12.8379H53.0997C51.236 12.8379 50.5603 13.9368 50.5603 15.0283C50.5603 17.3895 52.6765 17.3078 54.2803 17.3078C54.6218 17.3078 54.7852 17.3895 54.956 17.4786C55.0376 17.5602 55.2084 17.731 55.2084 17.9835C55.2084 18.1543 55.1267 18.3176 55.0376 18.4884C54.8669 18.6592 54.6144 18.6592 54.2803 18.6592H50.8128V20.263H54.2803C56.0549 20.263 57.0721 19.5056 57.0721 17.9018C57.0721 17.1444 56.9013 16.7212 56.5672 16.298C56.0549 15.9639 55.4683 15.7931 54.451 15.7931Z" fill="url(#paint6_radial_288_4915)"/>
<path fill-rule="evenodd" clip-rule="evenodd" d="M63.5832 12.9268H60.034C58.1703 12.9268 57.4946 14.0257 57.4946 15.1172C57.4946 17.4783 59.6108 17.3967 61.2146 17.3967C61.5562 17.3967 61.7195 17.4783 61.8086 17.5674C61.9794 17.6491 62.0611 17.8199 62.0611 18.0723C62.0611 18.2431 61.9794 18.4065 61.8903 18.5773C61.7195 18.748 61.4671 18.748 61.1329 18.748H57.6654V20.3519H61.1329C62.3135 20.3519 63.0783 20.0177 63.5832 19.4237C63.8357 19.0896 63.9248 18.5773 63.9248 17.9907C63.9248 17.315 63.8431 16.9809 63.5832 16.5576C63.5015 16.476 63.5015 16.3869 63.4124 16.3869C62.9892 15.9636 62.3952 15.7928 61.3854 15.7928H60.4572C60.1157 15.7928 59.9523 15.7928 59.7816 15.7112C59.5291 15.6295 59.3583 15.4587 59.3583 15.1172C59.3583 14.8647 59.44 14.6939 59.6108 14.6123C59.7816 14.5306 60.034 14.4415 60.3681 14.4415H63.5832" fill="#2E77BC"/>
<path fill-rule="evenodd" clip-rule="evenodd" d="M43.7144 20.3516H49.7213V18.8369L45.4964 18.7553V17.3222H49.5579V15.8075H45.4964V14.4561H49.7213V12.9414H43.7144V20.3516Z" fill="url(#paint7_radial_288_4915)"/>
<path fill-rule="evenodd" clip-rule="evenodd" d="M42.7856 14.8648C42.7856 14.0184 42.4441 13.5135 41.8575 13.1793C41.2635 12.8452 40.5878 12.8452 39.7413 12.8452H35.5981V20.2629H37.3727V17.5676H39.3181C39.9938 17.5676 40.3354 17.6492 40.5878 17.9017C40.9294 18.2358 40.8403 18.9115 40.8403 19.3347V20.2629H42.6149V18.8298C42.6149 18.1542 42.5332 17.82 42.3624 17.4785C42.1916 17.226 41.8575 16.9736 41.5159 16.8845C41.9392 16.7211 42.7856 16.0454 42.7856 14.8648ZM40.417 15.9638C40.1646 16.1345 39.9121 16.1345 39.5706 16.1345H37.3727V14.449H39.5706C39.9121 14.449 40.2463 14.449 40.417 14.6198C40.6695 14.7015 40.7586 14.9539 40.7586 15.2955C40.7512 15.5405 40.6695 15.793 40.417 15.9638Z" fill="url(#paint8_radial_288_4915)"/>
<defs>
<radialGradient id="paint0_radial_288_4915" cx="0" cy="0" r="1" gradientUnits="userSpaceOnUse" gradientTransform="translate(11.3762 -13.1712) scale(59.5095 59.5095)">
<stop stop-color="#9DD5F6"/>
<stop offset="0.0711" stop-color="#98D3F5"/>
<stop offset="0.1575" stop-color="#89CEF3"/>
<stop offset="0.2516" stop-color="#70C6EF"/>
<stop offset="0.3514" stop-color="#4EBBEA"/>
<stop offset="0.4546" stop-color="#23ADE3"/>
<stop offset="0.5" stop-color="#0DA6E0"/>
<stop offset="1" stop-color="#2E77BC"/>
</radialGradient>
<radialGradient id="paint1_radial_288_4915" cx="0" cy="0" r="1" gradientUnits="userSpaceOnUse" gradientTransform="translate(1.91225 -12.0607) scale(59.5095 59.5096)">
<stop stop-color="#9DD5F6"/>
<stop offset="0.0711" stop-color="#98D3F5"/>
<stop offset="0.1575" stop-color="#89CEF3"/>
<stop offset="0.2516" stop-color="#70C6EF"/>
<stop offset="0.3514" stop-color="#4EBBEA"/>
<stop offset="0.4546" stop-color="#23ADE3"/>
<stop offset="0.5" stop-color="#0DA6E0"/>
<stop offset="1" stop-color="#2E77BC"/>
</radialGradient>
<radialGradient id="paint2_radial_288_4915" cx="0" cy="0" r="1" gradientUnits="userSpaceOnUse" gradientTransform="translate(11.3766 -12.2332) scale(59.5095 59.5095)">
<stop stop-color="#9DD5F6"/>
<stop offset="0.0711" stop-color="#98D3F5"/>
<stop offset="0.1575" stop-color="#89CEF3"/>
<stop offset="0.2516" stop-color="#70C6EF"/>
<stop offset="0.3514" stop-color="#4EBBEA"/>
<stop offset="0.4546" stop-color="#23ADE3"/>
<stop offset="0.5" stop-color="#0DA6E0"/>
<stop offset="1" stop-color="#2E77BC"/>
</radialGradient>
<radialGradient id="paint3_radial_288_4915" cx="0" cy="0" r="1" gradientUnits="userSpaceOnUse" gradientTransform="translate(11.3758 -16.1792) scale(59.5093 59.5094)">
<stop stop-color="#9DD5F6"/>
<stop offset="0.0711" stop-color="#98D3F5"/>
<stop offset="0.1575" stop-color="#89CEF3"/>
<stop offset="0.2516" stop-color="#70C6EF"/>
<stop offset="0.3514" stop-color="#4EBBEA"/>
<stop offset="0.4546" stop-color="#23ADE3"/>
<stop offset="0.5" stop-color="#0DA6E0"/>
<stop offset="1" stop-color="#2E77BC"/>
</radialGradient>
<radialGradient id="paint4_radial_288_4915" cx="0" cy="0" r="1" gradientUnits="userSpaceOnUse" gradientTransform="translate(-0.145029 -12.0613) scale(59.5094 59.5095)">
<stop stop-color="#9DD5F6"/>
<stop offset="0.0711" stop-color="#98D3F5"/>
<stop offset="0.1575" stop-color="#89CEF3"/>
<stop offset="0.2516" stop-color="#70C6EF"/>
<stop offset="0.3514" stop-color="#4EBBEA"/>
<stop offset="0.4546" stop-color="#23ADE3"/>
<stop offset="0.5" stop-color="#0DA6E0"/>
<stop offset="1" stop-color="#2E77BC"/>
</radialGradient>
<radialGradient id="paint5_radial_288_4915" cx="0" cy="0" r="1" gradientUnits="userSpaceOnUse" gradientTransform="translate(0.912134 -12.0587) scale(59.5095 59.5096)">
<stop stop-color="#9DD5F6"/>
<stop offset="0.0711" stop-color="#98D3F5"/>
<stop offset="0.1575" stop-color="#89CEF3"/>
<stop offset="0.2516" stop-color="#70C6EF"/>
<stop offset="0.3514" stop-color="#4EBBEA"/>
<stop offset="0.4546" stop-color="#23ADE3"/>
<stop offset="0.5" stop-color="#0DA6E0"/>
<stop offset="1" stop-color="#2E77BC"/>
</radialGradient>
<radialGradient id="paint6_radial_288_4915" cx="0" cy="0" r="1" gradientUnits="userSpaceOnUse" gradientTransform="translate(11.3762 -13.0473) scale(59.5094 59.5095)">
<stop stop-color="#9DD5F6"/>
<stop offset="0.0711" stop-color="#98D3F5"/>
<stop offset="0.1575" stop-color="#89CEF3"/>
<stop offset="0.2516" stop-color="#70C6EF"/>
<stop offset="0.3514" stop-color="#4EBBEA"/>
<stop offset="0.4546" stop-color="#23ADE3"/>
<stop offset="0.5" stop-color="#0DA6E0"/>
<stop offset="1" stop-color="#2E77BC"/>
</radialGradient>
<radialGradient id="paint7_radial_288_4915" cx="0" cy="0" r="1" gradientUnits="userSpaceOnUse" gradientTransform="translate(11.3762 -13.5976) scale(59.5095 59.5095)">
<stop stop-color="#9DD5F6"/>
<stop offset="0.0711" stop-color="#98D3F5"/>
<stop offset="0.1575" stop-color="#89CEF3"/>
<stop offset="0.2516" stop-color="#70C6EF"/>
<stop offset="0.3514" stop-color="#4EBBEA"/>
<stop offset="0.4546" stop-color="#23ADE3"/>
<stop offset="0.5" stop-color="#0DA6E0"/>
<stop offset="1" stop-color="#2E77BC"/>
</radialGradient>
<radialGradient id="paint8_radial_288_4915" cx="0" cy="0" r="1" gradientUnits="userSpaceOnUse" gradientTransform="translate(11.3756 -12.3131) scale(59.5096 59.5096)">
<stop stop-color="#9DD5F6"/>
<stop offset="0.0711" stop-color="#98D3F5"/>
<stop offset="0.1575" stop-color="#89CEF3"/>
<stop offset="0.2516" stop-color="#70C6EF"/>
<stop offset="0.3514" stop-color="#4EBBEA"/>
<stop offset="0.4546" stop-color="#23ADE3"/>
<stop offset="0.5" stop-color="#0DA6E0"/>
<stop offset="1" stop-color="#2E77BC"/>
</radialGradient>
</defs>
</svg>
