<svg width="50" height="28" viewBox="0 0 50 28" fill="none" xmlns="http://www.w3.org/2000/svg">
<path d="M27.9125 2.19775H19.0989V18.3622H27.9125" fill="#FF5F00"/>
<path d="M19.6554 10.2838C19.6554 6.99444 21.1701 4.0838 23.4867 2.19783C21.779 0.831611 19.6257 0 17.2794 0C11.7105 0 7.21094 4.59613 7.21094 10.2838C7.21094 15.964 11.7105 20.5601 17.2794 20.5601C19.6257 20.5601 21.779 19.7359 23.4867 18.3623C21.1627 16.506 19.6554 13.5656 19.6554 10.2838Z" fill="#EB001B"/>
<path d="M39.7926 10.2838C39.7926 15.964 35.2856 20.5601 29.7242 20.5601C27.3779 20.5601 25.2246 19.7359 23.5168 18.3623C25.8632 16.4763 27.3482 13.5656 27.3482 10.2838C27.3482 6.99444 25.8409 4.0838 23.5168 2.19783C25.2246 0.831611 27.3779 0 29.7242 0C35.2856 0 39.7926 4.62583 39.7926 10.2838Z" fill="#F79E1B"/>
<path d="M7.58239 27.8962V25.0598C7.58239 23.9683 6.92898 23.2555 5.8078 23.2555C5.25091 23.2555 4.64206 23.4411 4.21882 24.0649C3.89212 23.5451 3.42434 23.2555 2.72638 23.2555C2.2586 23.2555 1.79082 23.3966 1.41957 23.9164V23.352H0.439453V27.8962H1.41957V25.3865C1.41957 24.5846 1.83537 24.2059 2.4962 24.2059C3.14961 24.2059 3.47632 24.6366 3.47632 25.3939V27.9036H4.45643V25.3939C4.45643 24.592 4.92421 24.2134 5.53307 24.2134C6.18647 24.2134 6.51318 24.644 6.51318 25.4014V27.9111L7.58239 27.8962ZM22.0984 23.352H20.5095V21.9784H19.5294V23.352H18.6458V24.2505H19.5294V26.3295C19.5294 27.3764 19.9526 27.9927 21.0664 27.9927C21.4896 27.9927 21.9574 27.8517 22.2841 27.6586L22.0093 26.8121C21.7272 26.9978 21.4005 27.0497 21.1703 27.0497C20.7025 27.0497 20.5169 26.7602 20.5169 26.2924V24.2579H22.1059L22.0984 23.352ZM30.4071 23.2555C29.8502 23.2555 29.479 23.5377 29.2414 23.9164V23.352H28.2613V27.8962H29.2414V25.342C29.2414 24.5846 29.5681 24.1614 30.177 24.1614C30.3626 24.1614 30.5928 24.2134 30.7858 24.2579L31.068 23.3075C30.8749 23.2555 30.5928 23.2555 30.4071 23.2555ZM17.8513 23.7307C17.3835 23.3966 16.7301 23.2555 16.0321 23.2555C14.911 23.2555 14.161 23.8273 14.161 24.7257C14.161 25.4831 14.7253 25.9063 15.698 26.0474L16.1732 26.0993C16.6856 26.1959 16.9603 26.3369 16.9603 26.5745C16.9603 26.9087 16.589 27.1463 15.9356 27.1463C15.2822 27.1463 14.7625 26.9087 14.4432 26.6711L13.9754 27.4284C14.4877 27.8071 15.1857 27.9927 15.8911 27.9927C17.1979 27.9927 17.9404 27.3765 17.9404 26.5226C17.9404 25.7207 17.3315 25.29 16.4034 25.1489L15.9356 25.1044C15.5124 25.0598 15.1857 24.9633 15.1857 24.6811C15.1857 24.347 15.5124 24.1614 16.0247 24.1614C16.5816 24.1614 17.1459 24.399 17.4206 24.5401L17.8513 23.7307ZM43.8985 23.2555C43.3342 23.2555 42.963 23.5377 42.7328 23.9164V23.352H41.7527V27.8962H42.7328V25.342C42.7328 24.5846 43.0595 24.1614 43.6683 24.1614C43.854 24.1614 44.0841 24.2134 44.2698 24.2579L44.5519 23.3075C44.3663 23.2555 44.0841 23.2555 43.8985 23.2555ZM31.3872 25.6167C31.3872 26.9978 32.3228 27.9853 33.7707 27.9853C34.4241 27.9853 34.8919 27.8442 35.3597 27.4655L34.8919 26.6636C34.5206 26.9458 34.1419 27.0869 33.7261 27.0869C32.9317 27.0869 32.3748 26.5151 32.3748 25.6167C32.3748 24.7702 32.9317 24.1985 33.7261 24.154C34.1419 24.154 34.5206 24.295 34.8919 24.5846L35.3597 23.7827C34.8919 23.404 34.4241 23.2629 33.7707 23.2629C32.3228 23.2555 31.3872 24.2505 31.3872 25.6167ZM40.4459 25.6167V23.352H39.4583V23.9164C39.1316 23.4931 38.6638 23.2555 38.0624 23.2555C36.8001 23.2555 35.82 24.2505 35.82 25.6241C35.82 26.9978 36.8001 27.9927 38.0624 27.9927C38.7158 27.9927 39.1836 27.7551 39.4583 27.3319V27.8962H40.4459V25.6167ZM36.8521 25.6167C36.8521 24.8148 37.3644 24.154 38.2035 24.154C38.998 24.154 39.5548 24.7702 39.5548 25.6241C39.5548 26.4335 38.9905 27.0943 38.2035 27.0943C37.357 27.0497 36.8521 26.4335 36.8521 25.6167ZM25.1279 23.2555C23.8211 23.2555 22.8929 24.2059 22.8929 25.6241C22.8929 27.0497 23.8211 27.9927 25.1799 27.9927C25.8333 27.9927 26.4867 27.8071 26.999 27.3765L26.5312 26.6636C26.16 26.9458 25.6922 27.1388 25.2244 27.1388C24.6156 27.1388 24.0067 26.8567 23.8656 26.0474H27.1846V25.6761C27.2366 24.2059 26.3902 23.2555 25.1279 23.2555ZM25.1279 24.1094C25.7367 24.1094 26.16 24.4807 26.2491 25.1935H23.9176C24.0067 24.5846 24.4299 24.1094 25.1279 24.1094ZM49.4525 25.6241V21.5552H48.465V23.9238C48.1382 23.5005 47.6779 23.2629 47.069 23.2629C45.8068 23.2629 44.8267 24.2579 44.8267 25.6316C44.8267 27.0126 45.8068 28.0002 47.069 28.0002C47.7224 28.0002 48.1902 27.7626 48.465 27.3393V27.9036H49.4525V25.6241ZM45.8587 25.6241C45.8587 24.8222 46.3711 24.1614 47.2175 24.1614C48.012 24.1614 48.5689 24.7777 48.5689 25.6316C48.5689 26.4409 48.0046 27.1017 47.2175 27.1017C46.3711 27.0497 45.8587 26.4335 45.8587 25.6241ZM13.0844 25.6241V23.3595H12.1117V23.9238C11.785 23.5005 11.3172 23.2629 10.7084 23.2629C9.44609 23.2629 8.46598 24.2579 8.46598 25.6316C8.46598 27.0126 9.44609 28.0002 10.7084 28.0002C11.3618 28.0002 11.8295 27.7626 12.1043 27.3393V27.9036H13.077L13.0844 25.6241ZM9.44609 25.6241C9.44609 24.8222 9.95842 24.1614 10.7975 24.1614C11.5919 24.1614 12.1488 24.7777 12.1488 25.6316C12.1488 26.4409 11.5845 27.1017 10.7975 27.1017C9.95842 27.0497 9.44609 26.4335 9.44609 25.6241Z" fill="#3E3939"/>
</svg>
