<svg width="56" height="18" viewBox="0 0 56 18" fill="none" xmlns="http://www.w3.org/2000/svg">
<path d="M27.7274 0.322634L23.9916 17.7374H19.46L23.1958 0.322634H27.7274ZM46.7674 11.5623L49.1474 5.02709L50.5179 11.5698H46.7674V11.5623ZM51.8147 17.7374H56L52.3453 0.322634H48.4842C47.6147 0.322634 46.8779 0.825343 46.5537 1.59816L39.76 17.7374H44.5126L45.4558 15.1338H51.2621L51.8147 17.7374ZM40.0032 12.05C40.0179 7.4506 33.6221 7.19549 33.6663 5.13964C33.6811 4.51688 34.2779 3.8566 35.5821 3.68403C36.2305 3.6015 38.0137 3.53397 40.04 4.46436L40.8358 0.772821C39.7453 0.382659 38.3453 0 36.5989 0C32.1263 0 28.98 2.36348 28.9579 5.75489C28.9284 8.26093 31.2053 9.65651 32.9147 10.4969C34.6832 11.3522 35.2726 11.8999 35.2653 12.6578C35.2579 13.8282 33.8579 14.346 32.5611 14.361C30.2842 14.3985 28.9653 13.7457 27.9116 13.258L27.0937 17.0771C28.1547 17.5573 30.1074 17.9775 32.1263 18C36.8789 18.0075 39.9884 15.6665 40.0032 12.05ZM21.2653 0.315131L13.9263 17.7374H9.14421L5.54105 3.8416C5.32 2.98624 5.13579 2.67111 4.46526 2.31096C3.37474 1.72572 1.57684 1.17049 0 0.832847L0.103158 0.330137H7.80316C8.78316 0.330137 9.66737 0.982909 9.88842 2.10838L11.7968 12.1926L16.5053 0.33764L21.2653 0.315131Z" fill="#1A1F71"/>
</svg>
