<svg width="24" height="165" viewBox="0 0 24 165" fill="none" xmlns="http://www.w3.org/2000/svg">
<rect x="11" y="105" width="2" height="60" fill="white" fill-opacity="0.75"/>
<rect opacity="0.5" x="11" y="135" width="2" height="30" fill="white"/>
<path d="M18 87.6318L6.24 87.6318L6.24 82.911C6.24 81.6902 6.5256 80.7606 7.0968 80.1222C7.6568 79.4726 8.3792 79.1478 9.264 79.1478C10.0032 79.1478 10.5968 79.3494 11.0448 79.7526C11.4816 80.1446 11.7784 80.6262 11.9352 81.1974C12.0696 80.5254 12.4056 79.971 12.9432 79.5342C13.4696 79.0974 14.0856 78.879 14.7912 78.879C15.7208 78.879 16.488 79.215 17.0928 79.887C17.6976 80.559 18 81.511 18 82.743L18 87.6318ZM11.1792 85.4814L11.1792 83.2302C11.1792 82.6254 11.0392 82.1606 10.7592 81.8358C10.4792 81.511 10.0816 81.3486 9.5664 81.3486C9.0736 81.3486 8.6872 81.511 8.4072 81.8358C8.116 82.1494 7.9704 82.6254 7.9704 83.2638L7.9704 85.4814L11.1792 85.4814ZM16.2528 85.4814L16.2528 83.079C16.2528 82.4406 16.1072 81.9478 15.816 81.6006C15.5136 81.2422 15.0936 81.063 14.556 81.063C14.0072 81.063 13.576 81.2478 13.2624 81.6174C12.9488 81.987 12.792 82.4854 12.792 83.1126L12.792 85.4814L16.2528 85.4814ZM18.2016 74.631C18.2016 75.3478 18.0896 75.9358 17.8656 76.395C17.6304 76.8542 17.3224 77.1958 16.9416 77.4198C16.5608 77.6438 16.1408 77.7558 15.6816 77.7558C14.9088 77.7558 14.2816 77.4534 13.8 76.8486C13.3184 76.2438 13.0776 75.3366 13.0776 74.127L13.0776 72.0102L12.876 72.0102C12.3048 72.0102 11.8848 72.1726 11.616 72.4974C11.3472 72.8222 11.2128 73.2254 11.2128 73.707C11.2128 74.1438 11.3192 74.5246 11.532 74.8494C11.7336 75.1742 12.036 75.3758 12.4392 75.4542L12.4392 77.5542C11.8344 77.4982 11.308 77.2966 10.86 76.9494C10.412 76.591 10.0704 76.1318 9.8352 75.5718C9.5888 75.0118 9.4656 74.3846 9.4656 73.6902C9.4656 72.503 9.7624 71.5678 10.356 70.8846C10.9496 70.2014 11.7896 69.8598 12.876 69.8598L18 69.8598L18 71.691L16.656 71.8926C17.104 72.139 17.4736 72.4862 17.7648 72.9342C18.056 73.371 18.2016 73.9366 18.2016 74.631ZM16.5216 74.1438C16.5216 73.5278 16.32 73.0518 15.9168 72.7158C15.5136 72.3686 15.0152 72.1502 14.4216 72.0606L14.4216 73.8918C14.4216 74.463 14.528 74.8718 14.7408 75.1182C14.9424 75.3646 15.1944 75.4878 15.4968 75.4878C15.8216 75.4878 16.0736 75.3646 16.2528 75.1182C16.432 74.8718 16.5216 74.547 16.5216 74.1438ZM18.2016 64.1453C18.2016 64.9965 18.0168 65.7469 17.6472 66.3965C17.2776 67.0461 16.7624 67.5613 16.1016 67.9421C15.4408 68.3117 14.6848 68.4965 13.8336 68.4965C12.9824 68.4965 12.2264 68.3117 11.5656 67.9421C10.9048 67.5613 10.3896 67.0461 10.02 66.3965C9.6504 65.7469 9.4656 64.9965 9.4656 64.1453C9.4656 63.0813 9.7456 62.1853 10.3056 61.4573C10.8544 60.7293 11.616 60.2645 12.5904 60.0629L12.5904 62.3309C12.1872 62.4429 11.8736 62.6669 11.6496 63.0029C11.4144 63.3277 11.2968 63.7141 11.2968 64.1621C11.2968 64.7557 11.5208 65.2597 11.9688 65.6741C12.4168 66.0885 13.0384 66.2957 13.8336 66.2957C14.6288 66.2957 15.2504 66.0885 15.6984 65.6741C16.1464 65.2597 16.3704 64.7557 16.3704 64.1621C16.3704 63.7141 16.2584 63.3277 16.0344 63.0029C15.8104 62.6669 15.4912 62.4429 15.0768 62.3309L15.0768 60.0629C16.0176 60.2645 16.7736 60.7293 17.3448 61.4573C17.916 62.1853 18.2016 63.0813 18.2016 64.1453ZM18 58.5742L5.904 58.5742L5.904 56.4238L13.044 56.4238L9.6672 53.467L9.6672 50.9134L13.464 54.3238L18 50.359L18 53.047L13.8168 56.4238L18 56.4238L18 58.5742ZM18 42.1499C18 43.0235 17.7872 43.7235 17.3616 44.2499C16.936 44.7763 16.18 45.0395 15.0936 45.0395L11.4648 45.0395L11.4648 46.4675L9.6672 46.4675L9.6672 45.0395L7.4328 44.7875L7.4328 42.8891L9.6672 42.8891L9.6672 40.6379L11.4648 40.6379L11.4648 42.8891L15.1104 42.8891C15.5136 42.8891 15.7936 42.8051 15.9504 42.6371C16.096 42.4579 16.1688 42.1555 16.1688 41.7299L16.1688 40.6883L18 40.6883L18 42.1499ZM18.2016 35.4265C18.2016 36.2329 18.0168 36.9609 17.6472 37.6105C17.2776 38.2489 16.768 38.7585 16.1184 39.1393C15.4576 39.5089 14.696 39.6937 13.8336 39.6937C12.9712 39.6937 12.2152 39.5033 11.5656 39.1225C10.9048 38.7417 10.3896 38.2321 10.02 37.5937C9.6504 36.9441 9.4656 36.2161 9.4656 35.4097C9.4656 34.6145 9.6504 33.8977 10.02 33.2593C10.3896 32.6097 10.9048 32.1001 11.5656 31.7305C12.2152 31.3497 12.9712 31.1593 13.8336 31.1593C14.696 31.1593 15.4576 31.3497 16.1184 31.7305C16.768 32.1001 17.2776 32.6097 17.6472 33.2593C18.0168 33.9089 18.2016 34.6313 18.2016 35.4265ZM16.3368 35.4265C16.3368 34.8665 16.1296 34.3793 15.7152 33.9649C15.2896 33.5505 14.6624 33.3433 13.8336 33.3433C13.0048 33.3433 12.3832 33.5505 11.9688 33.9649C11.5432 34.3793 11.3304 34.8609 11.3304 35.4097C11.3304 35.9809 11.5432 36.4737 11.9688 36.8881C12.3832 37.2913 13.0048 37.4929 13.8336 37.4929C14.6624 37.4929 15.2896 37.2913 15.7152 36.8881C16.1296 36.4737 16.3368 35.9865 16.3368 35.4265ZM18 22.3607C18 23.2343 17.7872 23.9343 17.3616 24.4607C16.936 24.9871 16.18 25.2503 15.0936 25.2503L11.4648 25.2503L11.4648 26.6783L9.6672 26.6783L9.6672 25.2503L7.4328 24.9983L7.4328 23.0999L9.6672 23.0999L9.6672 20.8487L11.4648 20.8487L11.4648 23.0999L15.1104 23.0999C15.5136 23.0999 15.7936 23.0159 15.9504 22.8479C16.096 22.6687 16.1688 22.3663 16.1688 21.9407L16.1688 20.8991L18 20.8991L18 22.3607ZM18.2016 15.6373C18.2016 16.4437 18.0168 17.1717 17.6472 17.8213C17.2776 18.4597 16.768 18.9693 16.1184 19.3501C15.4576 19.7197 14.696 19.9045 13.8336 19.9045C12.9712 19.9045 12.2152 19.7141 11.5656 19.3333C10.9048 18.9525 10.3896 18.4429 10.02 17.8045C9.6504 17.1549 9.4656 16.4269 9.4656 15.6205C9.4656 14.8253 9.6504 14.1085 10.02 13.4701C10.3896 12.8205 10.9048 12.3109 11.5656 11.9413C12.2152 11.5605 12.9712 11.3701 13.8336 11.3701C14.696 11.3701 15.4576 11.5605 16.1184 11.9413C16.768 12.3109 17.2776 12.8205 17.6472 13.4701C18.0168 14.1197 18.2016 14.8421 18.2016 15.6373ZM16.3368 15.6373C16.3368 15.0773 16.1296 14.5901 15.7152 14.1757C15.2896 13.7613 14.6624 13.5541 13.8336 13.5541C13.0048 13.5541 12.3832 13.7613 11.9688 14.1757C11.5432 14.5901 11.3304 15.0717 11.3304 15.6205C11.3304 16.1917 11.5432 16.6845 11.9688 17.0989C12.3832 17.5021 13.0048 17.7037 13.8336 17.7037C14.6624 17.7037 15.2896 17.5021 15.7152 17.0989C16.1296 16.6845 16.3368 16.1973 16.3368 15.6373ZM21.696 9.86737L9.6672 9.86737L9.6672 7.95217L10.86 7.71697C10.4904 7.44817 10.1656 7.09537 9.8856 6.65857C9.6056 6.21057 9.4656 5.63377 9.4656 4.92817C9.4656 4.14417 9.656 3.44417 10.0368 2.82817C10.4176 2.21217 10.9384 1.72497 11.5992 1.36657C12.26 1.00817 13.0104 0.828973 13.8504 0.828973C14.6904 0.828973 15.4408 1.00817 16.1016 1.36657C16.7512 1.72497 17.2664 2.21217 17.6472 2.82817C18.0168 3.44417 18.2016 4.14417 18.2016 4.92817C18.2016 5.55537 18.084 6.10417 17.8488 6.57457C17.6136 7.04497 17.2832 7.42577 16.8576 7.71697L21.696 7.71697L21.696 9.86737ZM16.32 5.38177C16.32 4.69857 16.0904 4.13297 15.6312 3.68497C15.172 3.23697 14.5784 3.01297 13.8504 3.01297C13.1224 3.01297 12.5232 3.23697 12.0528 3.68497C11.5824 4.13297 11.3472 4.69857 11.3472 5.38177C11.3472 6.07617 11.5824 6.64737 12.0528 7.09537C12.512 7.53217 13.1056 7.75057 13.8336 7.75057C14.5616 7.75057 15.1608 7.53217 15.6312 7.09537C16.0904 6.64737 16.32 6.07617 16.32 5.38177Z" fill="white" fill-opacity="0.75"/>
</svg>
