<svg width="22" height="23" viewBox="0 0 22 23" fill="none" xmlns="http://www.w3.org/2000/svg">
<path fill-rule="evenodd" clip-rule="evenodd" d="M20.625 3.25C20.625 2.88533 20.4801 2.53559 20.2223 2.27773C19.9644 2.01987 19.6147 1.875 19.25 1.875H2.75C2.38533 1.875 2.03559 2.01987 1.77773 2.27773C1.51987 2.53559 1.375 2.88533 1.375 3.25V19.75C1.375 20.1147 1.51987 20.4644 1.77773 20.7223C2.03559 20.9801 2.38533 21.125 2.75 21.125H19.25C19.6147 21.125 19.9644 20.9801 20.2223 20.7223C20.4801 20.4644 20.625 20.1147 20.625 19.75V3.25ZM0 3.25C0 2.52065 0.289731 1.82118 0.805456 1.30546C1.32118 0.789731 2.02065 0.5 2.75 0.5L19.25 0.5C19.9793 0.5 20.6788 0.789731 21.1945 1.30546C21.7103 1.82118 22 2.52065 22 3.25V19.75C22 20.4793 21.7103 21.1788 21.1945 21.6945C20.6788 22.2103 19.9793 22.5 19.25 22.5H2.75C2.02065 22.5 1.32118 22.2103 0.805456 21.6945C0.289731 21.1788 0 20.4793 0 19.75V3.25ZM8.04925 15.3541C7.92034 15.4832 7.74542 15.5558 7.56299 15.5559C7.38055 15.5561 7.20553 15.4837 7.07644 15.3548C6.94734 15.2259 6.87475 15.051 6.87462 14.8685C6.87449 14.6861 6.94684 14.5111 7.07575 14.382L12.7091 8.75H8.90312C8.72079 8.75 8.54592 8.67757 8.41699 8.54864C8.28806 8.4197 8.21562 8.24484 8.21562 8.0625C8.21562 7.88016 8.28806 7.7053 8.41699 7.57636C8.54592 7.44743 8.72079 7.375 8.90312 7.375H14.3687C14.5511 7.375 14.726 7.44743 14.8549 7.57636C14.9838 7.7053 15.0562 7.88016 15.0562 8.0625V13.5281C15.0562 13.7105 14.9838 13.8853 14.8549 14.0143C14.726 14.1432 14.5511 14.2156 14.3687 14.2156C14.1864 14.2156 14.0115 14.1432 13.8826 14.0143C13.7537 13.8853 13.6812 13.7105 13.6812 13.5281V9.72213L8.04925 15.3541Z" fill="#161519"/>
</svg>
