<svg width="107" height="16" viewBox="0 0 107 16" fill="none" xmlns="http://www.w3.org/2000/svg">
<path d="M6.034 2.726C5.59533 2.082 4.956 1.76 4.116 1.76C3.85467 1.76 3.598 1.79733 3.346 1.872C3.094 1.93733 2.86533 2.04467 2.66 2.194C2.464 2.334 2.30533 2.52067 2.184 2.754C2.06267 2.978 2.002 3.244 2.002 3.552C2.002 4 2.128 4.35 2.38 4.602C2.632 4.84467 2.94467 5.04533 3.318 5.204C3.69133 5.36267 4.09733 5.50733 4.536 5.638C4.984 5.75933 5.39467 5.92733 5.768 6.142C6.14133 6.34733 6.454 6.62267 6.706 6.968C6.958 7.31333 7.084 7.78467 7.084 8.382C7.084 8.83 6.986 9.236 6.79 9.6C6.60333 9.95467 6.35133 10.2533 6.034 10.496C5.726 10.7387 5.376 10.9253 4.984 11.056C4.60133 11.1867 4.214 11.252 3.822 11.252C3.21533 11.252 2.63667 11.14 2.086 10.916C1.54467 10.6827 1.08267 10.3047 0.7 9.782L1.61 9.124C1.82467 9.488 2.12333 9.782 2.506 10.006C2.88867 10.2207 3.34133 10.328 3.864 10.328C4.116 10.328 4.368 10.2907 4.62 10.216C4.872 10.132 5.096 10.0153 5.292 9.866C5.49733 9.70733 5.66533 9.516 5.796 9.292C5.92667 9.068 5.992 8.81133 5.992 8.522C5.992 8.17667 5.91733 7.892 5.768 7.668C5.628 7.43467 5.43667 7.24333 5.194 7.094C4.96067 6.93533 4.69 6.80467 4.382 6.702C4.08333 6.59933 3.77067 6.49667 3.444 6.394C3.12667 6.29133 2.814 6.17467 2.506 6.044C2.20733 5.91333 1.93667 5.75 1.694 5.554C1.46067 5.34867 1.26933 5.09667 1.12 4.798C0.98 4.49 0.91 4.10733 0.91 3.65C0.91 3.174 0.998667 2.75867 1.176 2.404C1.36267 2.04933 1.60533 1.75533 1.904 1.522C2.212 1.28867 2.55733 1.116 2.94 1.004C3.32267 0.892 3.71467 0.836 4.116 0.836C4.676 0.836 5.18467 0.924666 5.642 1.102C6.09933 1.27933 6.524 1.592 6.916 2.04L6.034 2.726ZM13.8833 7.22C13.8833 6.59467 13.6966 6.09067 13.3233 5.708C12.95 5.316 12.4273 5.12 11.7553 5.12C11.4566 5.12 11.1673 5.18067 10.8873 5.302C10.6073 5.414 10.36 5.568 10.1453 5.764C9.93996 5.96 9.77196 6.184 9.6413 6.436C9.51996 6.688 9.4593 6.94933 9.4593 7.22H13.8833ZM9.4313 7.976C9.4593 8.30267 9.53863 8.61067 9.6693 8.9C9.79996 9.18933 9.97263 9.44133 10.1873 9.656C10.402 9.86133 10.6493 10.0247 10.9293 10.146C11.2093 10.2673 11.5126 10.328 11.8393 10.328C12.334 10.328 12.7586 10.216 13.1133 9.992C13.4773 9.75867 13.7526 9.49267 13.9393 9.194L14.6533 9.782C14.2613 10.2767 13.8273 10.6313 13.3513 10.846C12.8846 11.0607 12.3806 11.168 11.8393 11.168C11.354 11.168 10.9013 11.084 10.4813 10.916C10.0706 10.7387 9.71596 10.496 9.4173 10.188C9.11863 9.88 8.88063 9.516 8.7033 9.096C8.5353 8.676 8.4513 8.21867 8.4513 7.724C8.4513 7.22933 8.5353 6.772 8.7033 6.352C8.8713 5.932 9.10463 5.568 9.4033 5.26C9.70196 4.952 10.052 4.714 10.4533 4.546C10.8546 4.36867 11.2886 4.28 11.7553 4.28C12.25 4.28 12.6933 4.36867 13.0853 4.546C13.4773 4.72333 13.804 4.96133 14.0653 5.26C14.336 5.54933 14.5413 5.89467 14.6813 6.296C14.8213 6.688 14.8913 7.108 14.8913 7.556V7.976H9.4313ZM21.3406 5.988C21.1819 5.74533 20.9579 5.54 20.6686 5.372C20.3886 5.204 20.0666 5.12 19.7026 5.12C19.3199 5.11067 18.9746 5.17133 18.6666 5.302C18.3679 5.43267 18.1113 5.61467 17.8966 5.848C17.6819 6.08133 17.5186 6.36133 17.4066 6.688C17.2946 7.00533 17.2386 7.35067 17.2386 7.724C17.2386 8.09733 17.2946 8.44733 17.4066 8.774C17.5186 9.09133 17.6819 9.36667 17.8966 9.6C18.1113 9.83333 18.3679 10.0153 18.6666 10.146C18.9746 10.2767 19.3199 10.3373 19.7026 10.328C20.0666 10.328 20.3886 10.244 20.6686 10.076C20.9579 9.908 21.1819 9.70267 21.3406 9.46L22.0966 10.034C21.7699 10.4167 21.4013 10.7013 20.9906 10.888C20.5799 11.0653 20.1506 11.1587 19.7026 11.168C19.1706 11.1773 18.6899 11.098 18.2606 10.93C17.8313 10.7527 17.4626 10.51 17.1546 10.202C16.8559 9.894 16.6273 9.53 16.4686 9.11C16.3099 8.68067 16.2306 8.21867 16.2306 7.724C16.2306 7.22933 16.3099 6.772 16.4686 6.352C16.6273 5.92267 16.8559 5.554 17.1546 5.246C17.4626 4.938 17.8313 4.7 18.2606 4.532C18.6899 4.35467 19.1706 4.27067 19.7026 4.28C20.1506 4.28933 20.5799 4.38733 20.9906 4.574C21.4013 4.75133 21.7699 5.03133 22.0966 5.414L21.3406 5.988ZM28.0525 11C28.0338 10.8227 28.0198 10.65 28.0105 10.482C28.0105 10.3047 28.0105 10.1273 28.0105 9.95H27.9825C27.8798 10.1273 27.7492 10.2907 27.5905 10.44C27.4318 10.5893 27.2545 10.72 27.0585 10.832C26.8625 10.9347 26.6525 11.014 26.4285 11.07C26.2138 11.1353 25.9992 11.168 25.7845 11.168C24.9445 11.168 24.3238 10.9487 23.9225 10.51C23.5212 10.062 23.3205 9.42733 23.3205 8.606V4.448H24.2445V8.074C24.2445 8.438 24.2725 8.76 24.3285 9.04C24.3845 9.32 24.4778 9.558 24.6085 9.754C24.7485 9.94067 24.9305 10.0853 25.1545 10.188C25.3878 10.2813 25.6772 10.328 26.0225 10.328C26.0692 10.328 26.1998 10.3093 26.4145 10.272C26.6292 10.2347 26.8532 10.132 27.0865 9.964C27.3292 9.796 27.5438 9.544 27.7305 9.208C27.9172 8.872 28.0105 8.40533 28.0105 7.808V4.448H28.9345V9.558C28.9345 9.73533 28.9392 9.95933 28.9485 10.23C28.9672 10.5007 28.9858 10.7573 29.0045 11H28.0525ZM31.1978 6.492C31.1978 6.20267 31.1885 5.90867 31.1698 5.61C31.1605 5.31133 31.1511 4.924 31.1418 4.448H32.0518V5.666H32.0798C32.1451 5.48867 32.2385 5.32067 32.3598 5.162C32.4811 4.994 32.6258 4.84467 32.7938 4.714C32.9711 4.58333 33.1718 4.48067 33.3958 4.406C33.6291 4.322 33.8905 4.28 34.1798 4.28C34.4411 4.28 34.6698 4.308 34.8658 4.364L34.6838 5.274C34.5625 5.22733 34.3851 5.204 34.1518 5.204C33.7971 5.204 33.4938 5.274 33.2418 5.414C32.9898 5.54467 32.7798 5.71733 32.6118 5.932C32.4438 6.13733 32.3178 6.36133 32.2338 6.604C32.1591 6.84667 32.1218 7.08 32.1218 7.304V11H31.1978V6.492ZM40.5981 7.22C40.5981 6.59467 40.4115 6.09067 40.0381 5.708C39.6648 5.316 39.1421 5.12 38.4701 5.12C38.1715 5.12 37.8821 5.18067 37.6021 5.302C37.3221 5.414 37.0748 5.568 36.8601 5.764C36.6548 5.96 36.4868 6.184 36.3561 6.436C36.2348 6.688 36.1741 6.94933 36.1741 7.22H40.5981ZM36.1461 7.976C36.1741 8.30267 36.2535 8.61067 36.3841 8.9C36.5148 9.18933 36.6875 9.44133 36.9021 9.656C37.1168 9.86133 37.3641 10.0247 37.6441 10.146C37.9241 10.2673 38.2275 10.328 38.5541 10.328C39.0488 10.328 39.4735 10.216 39.8281 9.992C40.1921 9.75867 40.4675 9.49267 40.6541 9.194L41.3681 9.782C40.9761 10.2767 40.5421 10.6313 40.0661 10.846C39.5995 11.0607 39.0955 11.168 38.5541 11.168C38.0688 11.168 37.6161 11.084 37.1961 10.916C36.7855 10.7387 36.4308 10.496 36.1321 10.188C35.8335 9.88 35.5955 9.516 35.4181 9.096C35.2501 8.676 35.1661 8.21867 35.1661 7.724C35.1661 7.22933 35.2501 6.772 35.4181 6.352C35.5861 5.932 35.8195 5.568 36.1181 5.26C36.4168 4.952 36.7668 4.714 37.1681 4.546C37.5695 4.36867 38.0035 4.28 38.4701 4.28C38.9648 4.28 39.4081 4.36867 39.8001 4.546C40.1921 4.72333 40.5188 4.96133 40.7801 5.26C41.0508 5.54933 41.2561 5.89467 41.3961 6.296C41.5361 6.688 41.6061 7.108 41.6061 7.556V7.976H36.1461ZM53.1559 7.724C53.1559 7.36 53.0953 7.01933 52.9739 6.702C52.8619 6.38467 52.6986 6.10933 52.4839 5.876C52.2693 5.64267 52.0079 5.46067 51.6999 5.33C51.4013 5.19 51.0606 5.12 50.6779 5.12C50.2953 5.12 49.9453 5.19 49.6279 5.33C49.3106 5.46067 49.0353 5.64267 48.8019 5.876C48.5686 6.10933 48.3866 6.38467 48.2559 6.702C48.1253 7.01933 48.0599 7.36 48.0599 7.724C48.0599 8.088 48.1253 8.42867 48.2559 8.746C48.3866 9.06333 48.5686 9.33867 48.8019 9.572C49.0353 9.80533 49.3106 9.992 49.6279 10.132C49.9453 10.2627 50.2953 10.328 50.6779 10.328C51.0606 10.328 51.4013 10.2627 51.6999 10.132C52.0079 9.992 52.2693 9.80533 52.4839 9.572C52.6986 9.33867 52.8619 9.06333 52.9739 8.746C53.0953 8.42867 53.1559 8.088 53.1559 7.724ZM47.1779 4.448H48.1019V5.54H48.1299C48.2793 5.316 48.4566 5.12467 48.6619 4.966C48.8673 4.80733 49.0819 4.67667 49.3059 4.574C49.5299 4.47133 49.7586 4.39667 49.9919 4.35C50.2346 4.30333 50.4633 4.28 50.6779 4.28C51.1913 4.28 51.6579 4.36867 52.0779 4.546C52.5073 4.714 52.8759 4.952 53.1839 5.26C53.4919 5.568 53.7299 5.932 53.8979 6.352C54.0753 6.772 54.1639 7.22933 54.1639 7.724C54.1639 8.21867 54.0753 8.676 53.8979 9.096C53.7299 9.516 53.4919 9.88 53.1839 10.188C52.8759 10.496 52.5073 10.7387 52.0779 10.916C51.6579 11.084 51.1913 11.168 50.6779 11.168C50.4633 11.168 50.2346 11.1447 49.9919 11.098C49.7586 11.0513 49.5299 10.9767 49.3059 10.874C49.0819 10.7713 48.8673 10.6407 48.6619 10.482C48.4566 10.3233 48.2793 10.132 48.1299 9.908H48.1019V15.032H47.1779V4.448ZM59.4605 7.738C59.2272 7.738 58.9332 7.752 58.5785 7.78C58.2332 7.79867 57.8972 7.85467 57.5705 7.948C57.2532 8.032 56.9778 8.16733 56.7445 8.354C56.5205 8.54067 56.4085 8.79733 56.4085 9.124C56.4085 9.33867 56.4505 9.52533 56.5345 9.684C56.6278 9.83333 56.7492 9.95933 56.8985 10.062C57.0478 10.1553 57.2112 10.2253 57.3885 10.272C57.5752 10.3093 57.7618 10.328 57.9485 10.328C58.2845 10.328 58.5738 10.272 58.8165 10.16C59.0685 10.048 59.2785 9.89867 59.4465 9.712C59.6145 9.516 59.7358 9.292 59.8105 9.04C59.8945 8.77867 59.9365 8.50333 59.9365 8.214V7.738H59.4605ZM59.9365 6.982V6.814C59.9365 5.68467 59.3765 5.12 58.2565 5.12C57.4912 5.12 56.8238 5.37667 56.2545 5.89L55.6945 5.232C56.3105 4.59733 57.2345 4.28 58.4665 4.28C58.7838 4.28 59.0872 4.32667 59.3765 4.42C59.6752 4.51333 59.9318 4.658 60.1465 4.854C60.3612 5.04067 60.5338 5.27867 60.6645 5.568C60.7952 5.85733 60.8605 6.20267 60.8605 6.604V9.53C60.8605 9.782 60.8698 10.048 60.8885 10.328C60.9165 10.5987 60.9445 10.8227 60.9725 11H60.0765C60.0485 10.8413 60.0252 10.6687 60.0065 10.482C59.9972 10.2953 59.9925 10.1133 59.9925 9.936H59.9645C59.6938 10.3747 59.3718 10.692 58.9985 10.888C58.6345 11.0747 58.1865 11.168 57.6545 11.168C57.3652 11.168 57.0852 11.126 56.8145 11.042C56.5438 10.9673 56.3012 10.8507 56.0865 10.692C55.8812 10.524 55.7132 10.3233 55.5825 10.09C55.4612 9.84733 55.4005 9.56733 55.4005 9.25C55.4005 8.718 55.5358 8.30267 55.8065 8.004C56.0865 7.696 56.4318 7.46733 56.8425 7.318C57.2625 7.16867 57.7058 7.07533 58.1725 7.038C58.6485 7.00067 59.0825 6.982 59.4745 6.982H59.9365ZM65.4323 9.866L67.4343 4.448H68.5543L65.2783 12.708C65.0823 13.212 64.8303 13.6133 64.5223 13.912C64.2236 14.2107 63.7896 14.36 63.2203 14.36C63.0803 14.36 62.9356 14.3553 62.7863 14.346C62.6463 14.3367 62.5063 14.3087 62.3663 14.262L62.4643 13.366C62.6603 13.4687 62.8936 13.52 63.1643 13.52C63.4909 13.52 63.7476 13.4173 63.9343 13.212C64.1209 13.0067 64.2843 12.7173 64.4243 12.344L64.9003 11.084L62.2123 4.448H63.3743L65.4323 9.866ZM69.7502 5.904C69.7502 5.66133 69.7409 5.41867 69.7222 5.176C69.7129 4.93333 69.6989 4.69067 69.6802 4.448H70.6742V5.442H70.7022C70.9262 5.05933 71.2342 4.77 71.6262 4.574C72.0275 4.378 72.4242 4.28 72.8162 4.28C72.9935 4.28 73.1802 4.29867 73.3762 4.336C73.5815 4.37333 73.7775 4.44333 73.9642 4.546C74.1509 4.63933 74.3235 4.77467 74.4822 4.952C74.6502 5.12933 74.7902 5.358 74.9022 5.638C75.0889 5.218 75.3829 4.88667 75.7842 4.644C76.1949 4.40133 76.6195 4.28 77.0582 4.28C77.8982 4.28 78.5189 4.504 78.9202 4.952C79.3215 5.39067 79.5222 6.02067 79.5222 6.842V11H78.5982V7.178C78.5982 6.51533 78.4815 6.00667 78.2482 5.652C78.0149 5.29733 77.5809 5.12 76.9462 5.12C76.6009 5.12 76.3115 5.19 76.0782 5.33C75.8449 5.46067 75.6535 5.638 75.5042 5.862C75.3642 6.086 75.2615 6.34267 75.1962 6.632C75.1309 6.912 75.0982 7.206 75.0982 7.514V11H74.1742V7.178C74.1742 6.51533 74.0575 6.00667 73.8242 5.652C73.5909 5.29733 73.1569 5.12 72.5222 5.12C72.4662 5.12 72.3355 5.13867 72.1302 5.176C71.9342 5.21333 71.7289 5.316 71.5142 5.484C71.2995 5.652 71.1035 5.904 70.9262 6.24C70.7582 6.576 70.6742 7.04267 70.6742 7.64V11H69.7502V5.904ZM86.7681 7.22C86.7681 6.59467 86.5814 6.09067 86.2081 5.708C85.8347 5.316 85.3121 5.12 84.6401 5.12C84.3414 5.12 84.0521 5.18067 83.7721 5.302C83.4921 5.414 83.2447 5.568 83.0301 5.764C82.8247 5.96 82.6567 6.184 82.5261 6.436C82.4047 6.688 82.3441 6.94933 82.3441 7.22H86.7681ZM82.3161 7.976C82.3441 8.30267 82.4234 8.61067 82.5541 8.9C82.6847 9.18933 82.8574 9.44133 83.0721 9.656C83.2867 9.86133 83.5341 10.0247 83.8141 10.146C84.0941 10.2673 84.3974 10.328 84.7241 10.328C85.2187 10.328 85.6434 10.216 85.9981 9.992C86.3621 9.75867 86.6374 9.49267 86.8241 9.194L87.5381 9.782C87.1461 10.2767 86.7121 10.6313 86.2361 10.846C85.7694 11.0607 85.2654 11.168 84.7241 11.168C84.2387 11.168 83.7861 11.084 83.3661 10.916C82.9554 10.7387 82.6007 10.496 82.3021 10.188C82.0034 9.88 81.7654 9.516 81.5881 9.096C81.4201 8.676 81.3361 8.21867 81.3361 7.724C81.3361 7.22933 81.4201 6.772 81.5881 6.352C81.7561 5.932 81.9894 5.568 82.2881 5.26C82.5867 4.952 82.9367 4.714 83.3381 4.546C83.7394 4.36867 84.1734 4.28 84.6401 4.28C85.1347 4.28 85.5781 4.36867 85.9701 4.546C86.3621 4.72333 86.6887 4.96133 86.9501 5.26C87.2207 5.54933 87.4261 5.89467 87.5661 6.296C87.7061 6.688 87.7761 7.108 87.7761 7.556V7.976H82.3161ZM90.3334 4.448C90.352 4.62533 90.3614 4.80267 90.3614 4.98C90.3707 5.148 90.3754 5.32067 90.3754 5.498H90.4034C90.506 5.32067 90.6367 5.15733 90.7954 5.008C90.954 4.85867 91.1314 4.73267 91.3274 4.63C91.5234 4.518 91.7287 4.434 91.9434 4.378C92.1674 4.31267 92.3867 4.28 92.6014 4.28C93.4414 4.28 94.062 4.504 94.4634 4.952C94.8647 5.39067 95.0654 6.02067 95.0654 6.842V11H94.1414V7.374C94.1414 6.646 94.0154 6.09067 93.7634 5.708C93.5114 5.316 93.0447 5.12 92.3634 5.12C92.3167 5.12 92.186 5.13867 91.9714 5.176C91.7567 5.21333 91.528 5.316 91.2854 5.484C91.052 5.652 90.842 5.904 90.6554 6.24C90.4687 6.576 90.3754 7.04267 90.3754 7.64V11H89.4514V5.89C89.4514 5.71267 89.442 5.48867 89.4234 5.218C89.414 4.94733 89.4 4.69067 89.3814 4.448H90.3334ZM100.619 5.288H98.7287V9.152C98.7287 9.39467 98.752 9.59533 98.7987 9.754C98.8453 9.90333 98.9107 10.02 98.9947 10.104C99.0787 10.188 99.1767 10.2487 99.2887 10.286C99.41 10.314 99.5407 10.328 99.6807 10.328C99.8393 10.328 100.003 10.3047 100.171 10.258C100.339 10.2113 100.493 10.1507 100.633 10.076L100.675 10.93C100.329 11.0887 99.914 11.168 99.4287 11.168C99.2513 11.168 99.0647 11.1447 98.8687 11.098C98.682 11.0513 98.5093 10.9627 98.3507 10.832C98.192 10.7013 98.0613 10.524 97.9587 10.3C97.856 10.076 97.8047 9.782 97.8047 9.418V5.288H96.4187V4.448H97.8047V2.6H98.7287V4.448H100.619V5.288ZM105.351 6.002C105.211 5.73133 105.024 5.51667 104.791 5.358C104.558 5.19933 104.273 5.12 103.937 5.12C103.778 5.12 103.615 5.13867 103.447 5.176C103.288 5.21333 103.144 5.274 103.013 5.358C102.882 5.43267 102.775 5.53067 102.691 5.652C102.616 5.77333 102.579 5.92267 102.579 6.1C102.579 6.408 102.686 6.632 102.901 6.772C103.116 6.912 103.438 7.03333 103.867 7.136L104.805 7.36C105.262 7.46267 105.64 7.67267 105.939 7.99C106.247 8.298 106.401 8.68533 106.401 9.152C106.401 9.50667 106.326 9.81467 106.177 10.076C106.037 10.328 105.846 10.538 105.603 10.706C105.37 10.8647 105.099 10.9813 104.791 11.056C104.483 11.1307 104.17 11.168 103.853 11.168C103.349 11.168 102.878 11.0747 102.439 10.888C102.01 10.692 101.641 10.3607 101.333 9.894L102.131 9.348C102.318 9.64667 102.551 9.88467 102.831 10.062C103.12 10.2393 103.461 10.328 103.853 10.328C104.04 10.328 104.226 10.3093 104.413 10.272C104.6 10.2253 104.763 10.16 104.903 10.076C105.052 9.98267 105.169 9.866 105.253 9.726C105.346 9.586 105.393 9.42267 105.393 9.236C105.393 8.90933 105.272 8.676 105.029 8.536C104.786 8.38667 104.492 8.27 104.147 8.186L103.251 7.976C103.139 7.948 102.985 7.90133 102.789 7.836C102.602 7.77067 102.416 7.67267 102.229 7.542C102.052 7.41133 101.898 7.24333 101.767 7.038C101.636 6.82333 101.571 6.562 101.571 6.254C101.571 5.918 101.636 5.624 101.767 5.372C101.907 5.12 102.089 4.91467 102.313 4.756C102.546 4.59733 102.808 4.48067 103.097 4.406C103.386 4.322 103.685 4.28 103.993 4.28C104.45 4.28 104.875 4.36867 105.267 4.546C105.659 4.72333 105.962 5.02667 106.177 5.456L105.351 6.002Z" fill="white"/>
</svg>
