<svg width="64" height="22" viewBox="0 0 64 22" fill="none" xmlns="http://www.w3.org/2000/svg">
<path d="M46.0721 2.41333L44.8975 5.26533H47.2588L46.0721 2.41333Z" fill="white"/>
<path d="M5.47286 2.41333L4.31152 5.26533H6.64352L5.47286 2.41333Z" fill="white"/>
<path d="M32.4261 2.81732C32.2235 2.70265 31.9115 2.68799 31.6155 2.68799H29.5088V4.27599H31.5875C31.9168 4.27599 32.1941 4.27065 32.4328 4.12932C32.6528 4.01332 32.7848 3.76132 32.7848 3.44932C32.7848 3.14265 32.6475 2.92132 32.4261 2.81732Z" fill="white"/>
<path d="M39.7547 15.124C39.5467 15 39.24 14.9946 38.9387 14.9946H36.832V16.6013H38.9107C39.244 16.6013 39.528 16.5906 39.7587 16.456C39.98 16.32 40.112 16.076 40.112 15.768C40.108 15.46 39.976 15.2386 39.7547 15.124Z" fill="white"/>
<path d="M31.4276 14.9919H29.1982V16.8146H31.4062C32.0636 16.8146 32.4729 16.4893 32.4729 15.8719C32.4716 15.2426 32.0462 14.9919 31.4276 14.9919Z" fill="white"/>
<path d="M63.0158 16.0667C63.0038 16.0547 62.9904 16.0414 62.9784 16.032C63.3024 15.8214 63.5184 15.456 63.5184 15.04V13.516C63.5184 12.8614 62.9891 12.3334 62.3358 12.3334H58.9091C57.8411 12.3334 57.0358 12.648 56.4491 13.1227C56.2851 12.664 55.8638 12.3334 55.3478 12.3334H51.9211C50.9784 12.3334 50.2358 12.5667 49.6704 12.9507C49.4651 12.584 49.0958 12.3334 48.6531 12.3334H42.9464C42.4864 12.3334 42.0984 12.6014 41.9024 12.984C41.8211 12.9267 41.7611 12.86 41.6758 12.8094C40.8478 12.3667 39.9678 12.3334 39.0611 12.3334H35.1104C34.6504 12.3334 34.2611 12.604 34.0664 12.9894C33.4651 12.5987 32.6238 12.3334 31.4278 12.3334H25.9638C25.6344 12.3334 25.3211 12.4667 25.0958 12.7094L23.8011 14.1054L22.5584 12.7254C22.3358 12.4707 22.0171 12.332 21.6798 12.332H14.8024C14.1491 12.332 13.6211 12.8614 13.6211 13.5147V20.6707C13.6211 21.3254 14.1504 21.8534 14.8024 21.8534H21.5771C21.9064 21.8534 22.2198 21.716 22.4438 21.4734L23.7491 20.0614L24.9878 21.4547C25.2118 21.708 25.5344 21.8507 25.8718 21.8507H29.1958C29.8504 21.8507 30.3784 21.3214 30.3784 20.6707V19.4494H31.3291C32.4851 19.4494 33.3211 19.212 33.9291 18.8507V20.6707C33.9291 21.3227 34.4584 21.8507 35.1118 21.8507H36.8304C37.4851 21.8507 38.0131 21.3214 38.0131 20.6707V19.236H38.6571C38.8144 19.236 38.9251 19.2414 39.0051 19.2467C39.0104 19.3747 39.0104 19.528 39.0078 19.6294V20.6707C39.0078 21.3227 39.5398 21.8507 40.1904 21.8507H41.9064C42.0984 21.8507 42.2718 21.7987 42.4291 21.7174C42.5891 21.796 42.7611 21.8507 42.9504 21.8507H48.6584C48.8438 21.8507 49.0158 21.7987 49.1718 21.7227C49.3278 21.7987 49.4958 21.8507 49.6851 21.8507H53.0158C54.0758 21.8507 54.9398 21.5907 55.5864 21.132C55.7638 21.5534 56.1824 21.8507 56.6718 21.8507H60.0024C62.4251 21.8507 63.8691 20.564 63.8691 18.4107C63.8691 17.4134 63.5998 16.6707 63.0158 16.0667ZM31.3304 18.2667H29.1971V20.668H25.8731L23.7664 18.3L21.5771 20.668H14.8024V13.5107H21.6798L23.7864 15.8574L25.9624 13.5107H31.4264C32.7824 13.5107 34.3091 13.8907 34.3091 15.872C34.3091 17.8574 32.8264 18.2707 31.3304 18.2667ZM40.7878 17.3454C41.1664 17.484 41.4771 17.736 41.6211 17.9467C41.8651 18.296 41.8971 18.6214 41.9051 19.252V20.6707H40.1891V19.7747C40.1891 19.3454 40.2304 18.7067 39.9104 18.3734C39.6651 18.1187 39.2851 18.0587 38.6584 18.0587H36.8318V20.6707H35.1131V13.5147H39.0638C39.9278 13.5147 40.5571 13.5507 41.1211 13.8507C41.6598 14.176 41.9998 14.624 41.9998 15.4387C41.9998 16.5827 41.2358 17.1654 40.7878 17.3454ZM48.6558 14.9934H44.6504V16.296H48.5571V17.7574H44.6504V19.1787L48.6558 19.1867V20.6707H42.9491V13.5147H48.6558V14.9934ZM53.0171 20.6627H49.6864V19.1254H53.0024C53.3251 19.1254 53.5558 19.0854 53.6998 18.948C53.8171 18.8387 53.8998 18.6747 53.8998 18.48C53.8998 18.272 53.8118 18.108 53.6918 18.008C53.5584 17.8987 53.3824 17.8494 53.0824 17.8494C51.4851 17.7974 49.4811 17.8987 49.4811 15.636C49.4811 14.5947 50.1318 13.5054 51.9264 13.5054H55.3531V15.028H52.2158C51.9024 15.028 51.7011 15.0414 51.5304 15.1587C51.3424 15.276 51.2718 15.448 51.2718 15.6747C51.2718 15.9454 51.4304 16.1254 51.6451 16.208C51.8278 16.2707 52.0198 16.2894 52.3118 16.2894L53.2304 16.316C54.1571 16.3414 54.7958 16.5014 55.1811 16.892C55.5171 17.2374 55.6944 17.6747 55.6944 18.4094C55.6944 19.952 54.7358 20.6707 53.0171 20.6627ZM60.0051 20.6627H56.6744V19.1254H59.9918C60.3144 19.1254 60.5451 19.0854 60.6878 18.948C60.8051 18.8387 60.8878 18.6747 60.8878 18.48C60.8878 18.272 60.7998 18.108 60.6798 18.008C60.5478 17.8987 60.3718 17.8494 60.0704 17.8494C58.4718 17.7974 56.4691 17.8987 56.4691 15.636C56.4691 14.5947 57.1198 13.5054 58.9144 13.5054H62.3411V15.028H59.2051C58.8904 15.028 58.6878 15.0414 58.5184 15.1587C58.3304 15.276 58.2611 15.448 58.2611 15.6747C58.2611 15.9454 58.4211 16.1254 58.6331 16.208C58.8171 16.2707 59.0078 16.2894 59.2998 16.2894L60.2184 16.316C61.1464 16.3414 61.7864 16.5014 62.1718 16.892C62.5051 17.2374 62.6851 17.6747 62.6851 18.4094C62.6851 19.952 61.7238 20.6707 60.0051 20.6627Z" fill="white"/>
<path d="M57.6479 0.0159912H55.8972C55.2425 0.0159912 54.7145 0.545325 54.7145 1.19732V1.93599L53.9025 0.587991C53.6865 0.234658 53.3039 0.0173245 52.8919 0.0173245H50.2852C49.6319 0.0173245 49.1039 0.546658 49.1039 1.19866V2.20266L48.4759 0.733324C48.2905 0.299991 47.8639 0.0173245 47.3919 0.0173245H44.8292C44.5692 0.0173245 44.3212 0.102658 44.1239 0.251991C43.9279 0.103991 43.6812 0.0173245 43.4159 0.0173245H41.7639C40.3585 0.0173245 39.3185 0.357325 38.5532 1.02132C38.4652 0.457325 37.9972 0.0173245 37.4079 0.0173245H35.6612C35.1945 0.0173245 34.8039 0.293324 34.6092 0.682658C34.5359 0.629324 34.4799 0.565324 34.3972 0.517325C33.5945 0.0533245 32.7505 0.0173245 31.7332 0.0173245H27.7999C27.5785 0.0173245 27.3852 0.0946578 27.2065 0.199991C27.0319 0.0946578 26.8359 0.0173245 26.6145 0.0173245H20.9025C20.6612 0.0173245 20.4519 0.106658 20.2652 0.229324C20.0772 0.106658 19.8679 0.0173245 19.6279 0.0173245H16.7772C16.3052 0.0173245 15.8772 0.301325 15.6919 0.738658L14.6759 3.13332L13.5572 0.703991C13.3625 0.285324 12.9425 0.0173245 12.4839 0.0173245H9.69187C9.03854 0.0173245 8.51054 0.546658 8.51054 1.19866V2.22666L7.86921 0.730658C7.68254 0.297324 7.25587 0.0159912 6.78254 0.0159912H4.24387C3.77054 0.0159912 3.34387 0.298658 3.15721 0.731991L0.0958727 7.88799C-0.0614606 8.25466 -0.0227939 8.67066 0.194539 9.00399C0.413206 9.33466 0.783873 9.53466 1.18121 9.53466H3.03987C3.51454 9.53466 3.94521 9.24666 4.12787 8.80666L4.48921 7.93732H6.47054L6.82654 8.80132C7.00787 9.24399 7.43987 9.53332 7.91987 9.53332H11.3985C12.0519 9.53332 12.5799 9.00399 12.5799 8.35199V8.32399L12.8039 8.83199C12.9932 9.25866 13.4172 9.53466 13.8839 9.53466L15.3865 9.53732C15.8559 9.53732 16.2772 9.26132 16.4665 8.83332L16.6932 8.32666V8.35599C16.6932 9.00799 17.2212 9.53599 17.8745 9.53599H19.6279C19.8679 9.53599 20.0772 9.44532 20.2652 9.32399C20.4519 9.44532 20.6612 9.53599 20.9025 9.53599H26.6145C26.8359 9.53599 27.0319 9.45866 27.2065 9.35332C27.3839 9.45866 27.5785 9.53599 27.7999 9.53599H29.5119C30.1652 9.53599 30.6932 9.00666 30.6932 8.35466V6.93332H31.3465C31.4945 6.93332 31.5999 6.93732 31.6785 6.94266C31.6865 7.06399 31.6839 7.20799 31.6839 7.30399L31.6812 7.46132L31.6879 8.36399C31.6932 9.01199 32.2225 9.53599 32.8705 9.53599H34.5959C34.7892 9.53599 34.9639 9.47599 35.1252 9.39332C35.2892 9.47732 35.4652 9.53599 35.6599 9.53599H37.4065C37.9799 9.53599 38.4332 9.12266 38.5439 8.58399C39.5132 9.39866 40.8785 9.53599 41.6385 9.53599H43.6425C44.1199 9.53599 44.5519 9.24266 44.7319 8.79599L45.0799 7.93866H47.0505L47.4119 8.80799C47.5945 9.24666 48.0239 9.53466 48.5025 9.53466H51.9825C52.6359 9.53466 53.1639 9.00532 53.1639 8.35332V7.22399L54.2132 8.96399C54.4279 9.31732 54.8105 9.53466 55.2265 9.53466H57.6479C58.3012 9.53466 58.8292 9.00532 58.8292 8.35332V1.19732C58.8292 0.545325 58.2985 0.0159912 57.6479 0.0159912ZM19.6265 8.35199H17.8732L17.8665 2.74799L15.3865 8.35199H13.8839L11.3999 2.74266V8.35199H7.91854L7.26121 6.75599H3.70121L3.03721 8.35199H1.17854L4.24121 1.19599H6.77987L9.69054 7.97199V1.19599H12.4825L14.7212 6.05066L16.7759 1.19599H19.6265V8.35199ZM26.6132 2.68666H22.6105V3.97599H26.5185V5.44266H22.6105V6.87199H26.6132V8.35199H20.9012V1.19599H26.6132V2.68666ZM33.4625 5.03199C33.8372 5.17599 34.1572 5.42666 34.3092 5.63466C34.5519 5.99066 34.5932 6.30799 34.5932 6.94666V8.35066H32.8679L32.8599 7.44799C32.8599 7.01866 32.9012 6.39999 32.5905 6.05466C32.3412 5.80399 31.9599 5.74932 31.3439 5.74932H29.5105V8.35199H27.7985H27.7972V1.19732H31.7305C32.6052 1.19732 33.2492 1.21999 33.8012 1.53999C34.3425 1.85999 34.6665 2.32666 34.6665 3.12532C34.6665 4.26532 33.9052 4.85599 33.4625 5.03199ZM37.4079 8.35199H35.6612V1.19599H37.4079V8.35199ZM57.6479 8.35199H55.2252L51.9812 2.98132V8.35199H48.5012L47.8345 6.75599H44.2799L43.6372 8.35199H41.6345C40.8039 8.35199 39.7545 8.16799 39.1599 7.56132C38.5545 6.95332 38.2425 6.12932 38.2425 4.82932C38.2425 3.76799 38.4305 2.79732 39.1585 2.02932C39.7092 1.45866 40.5745 1.19599 41.7559 1.19599H43.4079V2.72932H41.7879C41.1652 2.72932 40.8119 2.82132 40.4732 3.15332C40.1812 3.45466 39.9825 4.02399 39.9825 4.77466C39.9825 5.53999 40.1345 6.09199 40.4545 6.45332C40.7199 6.73732 41.1999 6.82266 41.6465 6.82266H42.4132L44.8292 1.19599H47.3919L50.2852 7.96399V1.19599H52.8919L55.8972 6.17999V1.19599H57.6479V8.35199ZM42.3839 3.91199L41.6412 5.64399C41.4772 5.64399 41.3665 5.62532 41.3052 5.60932C41.2479 5.50266 41.1692 5.26666 41.1692 4.77599C41.1692 4.27999 41.2892 4.02266 41.3052 3.99999C41.3545 3.95199 41.3959 3.91066 41.7972 3.91066L42.3839 3.91199Z" fill="white"/>
<path d="M24.8682 17.1039L27.4948 20.0213V14.2839L24.8682 17.1039Z" fill="white"/>
<path d="M20.7961 14.9946H16.5107V16.2946H20.2641V17.756H16.5107V19.18H20.7134L22.6667 17.0773L20.7961 14.9946Z" fill="white"/>
</svg>
