<svg width="48" height="14" viewBox="0 0 48 14" fill="none" xmlns="http://www.w3.org/2000/svg">
<g opacity="0.6">
<path d="M19.1527 0.223877L16.7217 13.2509H20.6097L23.0427 0.223877H19.1527Z" fill="white"/>
<path d="M13.4623 0.238457L9.6543 9.12249L9.2483 7.78107C8.4973 6.1648 6.3653 3.84357 3.8623 2.38071L7.3443 13.2444L11.4583 13.2381L17.5813 0.235718L13.4623 0.238457Z" fill="white"/>
<path d="M7.772 1.17077C7.546 0.37724 6.891 0.140734 6.078 0.112427H0.05L0 0.371761C4.691 1.41093 7.795 3.91478 9.083 6.92544L7.772 1.17077Z" fill="white"/>
<path d="M30.923 2.72119C32.195 2.70292 33.117 2.95678 33.833 3.21977L34.184 3.37044L34.71 0.546977C33.94 0.283076 32.733 0 31.227 0C27.385 0 24.677 1.76695 24.656 4.29911C24.631 6.17015 26.585 7.2148 28.061 7.83848C29.576 8.47768 30.084 8.88403 30.077 9.45475C30.065 10.3268 28.869 10.7268 27.752 10.7268C26.195 10.7268 25.368 10.5304 24.091 10.0446L23.59 9.83645L23.043 12.7521C23.953 13.1165 25.632 13.4297 27.375 13.4461C31.462 13.4461 34.118 11.7002 34.146 8.99453C34.163 7.51431 33.126 6.38474 30.879 5.4579C29.519 4.85339 28.687 4.45161 28.695 3.84162C28.695 3.30012 29.401 2.72119 30.923 2.72119Z" fill="white"/>
<path d="M44.688 0.238525H41.684C40.751 0.238525 40.057 0.470465 39.647 1.31969L33.874 13.2582H37.957C37.957 13.2582 38.623 11.6529 38.774 11.3013C39.221 11.3013 43.188 11.3068 43.753 11.3068C43.869 11.7616 44.227 13.2582 44.227 13.2582H47.834L44.688 0.238525ZM39.893 8.63494C40.213 7.88707 41.442 4.99421 41.442 4.99421C41.421 5.02982 41.759 4.24086 41.96 3.7505L42.222 4.87367C42.222 4.87367 42.967 7.98386 43.123 8.63494H39.893Z" fill="white"/>
</g>
</svg>
