<svg width="49" height="27" viewBox="0 0 49 27" fill="none" xmlns="http://www.w3.org/2000/svg">
<g opacity="0.6">
<path d="M33.933 4.22055e-07C30.192 0.000913572 26.782 1.29576 24.212 3.42249C21.64 1.2985 18.232 0.00273984 14.495 0.00273984C14.464 0.00273984 14.432 0.00273984 14.402 0.00273984C6.444 0.0502236 0 5.96196 0 13.2388C0 20.545 6.494 26.474 14.494 26.474C18.231 26.474 21.639 25.1801 24.21 23.0543C23.673 22.6114 23.187 22.1211 22.728 21.6079H25.721C25.27 22.1128 24.778 22.5858 24.249 23.026H24.247C24.235 23.0379 24.222 23.0452 24.21 23.0552C26.783 25.1828 30.195 26.4795 33.938 26.4786C41.943 26.4759 48.43 20.5477 48.428 13.2388C48.428 13.2361 48.428 13.2343 48.428 13.2325C48.429 5.9236 41.938 -0.00182588 33.933 4.22055e-07ZM22.894 4.78947H25.649C26.055 5.23874 26.432 5.71175 26.774 6.20668H21.859C22.176 5.73367 22.524 5.24696 22.894 4.78947ZM21.003 7.59649H27.61C27.845 8.05489 28.053 8.52882 28.235 9.01462H20.22C20.3 8.87764 20.58 8.3261 21.003 7.59649ZM5.917 16.6102L6.796 11.5495L4.813 16.6102H3.75L3.612 11.5495L2.673 16.6102H1.184L2.418 9.89854H4.67L4.749 14.0168L6.27 9.89854H8.713L7.496 16.6102H5.917ZM11.182 16.5992L11.233 16.0632C11.209 16.066 10.739 16.7106 9.65 16.7106C9.08 16.7106 8.16 16.4267 8.16 15.1921C8.16 13.6224 9.562 13.1019 10.897 13.1019C11.107 13.1019 11.56 13.1366 11.56 13.1366C11.56 13.1366 11.611 13.0407 11.611 12.7814C11.611 12.3549 11.191 12.2965 10.616 12.2965C9.603 12.2965 8.934 12.5439 8.934 12.5439L9.158 11.3294C9.158 11.3294 9.97 11.019 11.027 11.019C11.574 11.019 13.147 11.0719 13.147 12.7184L12.541 16.5992H11.182ZM16.925 14.8898C16.925 16.7627 14.938 16.6823 14.591 16.6823C13.296 16.6823 12.896 16.5189 12.859 16.5097L13.065 15.277C13.067 15.266 13.715 15.4916 14.436 15.4916C14.852 15.4916 15.392 15.4541 15.392 15.0003C15.392 14.3209 13.46 14.4835 13.46 12.8699C13.46 11.4463 14.618 11.0299 15.76 11.0299C16.642 11.0299 17.184 11.1404 17.184 11.1404L16.989 12.3841C16.989 12.3841 16.152 12.3211 15.935 12.3211C15.386 12.3211 15.087 12.4307 15.087 12.7814C15.086 13.4863 16.925 13.1411 16.925 14.8898ZM19.311 15.3811C19.448 15.3811 19.603 15.3382 19.709 15.3382L19.516 16.5353C19.361 16.5746 18.922 16.717 18.359 16.7207C17.64 16.7262 17.129 16.3591 17.129 15.5263C17.129 14.9674 18.006 10.3624 18.04 10.3323H19.583L19.426 11.156H20.196L19.999 12.4828H19.182L18.748 14.9273C18.715 15.1218 18.774 15.3811 19.311 15.3811ZM22.705 11.0007C24.399 11.0007 24.906 12.133 24.906 13.0617C24.906 13.4333 24.702 14.3465 24.702 14.3465H21.566C21.566 14.3465 21.276 15.4742 22.933 15.4742C23.71 15.4742 24.572 15.1272 24.572 15.1272L24.3 16.4851C24.3 16.4851 23.802 16.717 22.67 16.717C21.443 16.717 20.004 16.2431 20.004 14.2524C20.005 12.5275 21.153 11.0007 22.705 11.0007ZM26.792 20.2445H21.65C21.337 19.788 21.045 19.3195 20.794 18.8273H27.637C27.385 19.3168 27.103 19.7898 26.792 20.2445ZM26.447 16.6202H24.863L25.826 11.1578H27.263L27.125 11.9495C27.125 11.9495 27.637 11.0884 28.328 11.0884C28.529 11.0884 28.626 11.1066 28.626 11.1066C28.421 11.4883 28.24 11.8381 28.052 12.7412C26.98 12.3942 26.898 14.2871 26.447 16.6202ZM32.482 16.5353C32.482 16.5353 31.652 16.7289 31.132 16.7289C29.29 16.7289 28.355 15.5683 28.355 13.8105C28.355 11.1596 30.088 9.74787 31.869 9.74787C32.674 9.74787 33.607 10.093 33.607 10.093L33.355 11.586C33.355 11.586 32.724 11.1833 31.939 11.1833C30.889 11.1833 29.947 12.0983 29.947 13.7612C29.947 14.5803 30.386 15.3437 31.482 15.3437C32.003 15.3437 32.758 14.9976 32.758 14.9976L32.482 16.5353ZM36.197 16.602L36.249 16.0623C36.224 16.065 35.754 16.7097 34.666 16.7097C34.096 16.7097 33.176 16.4257 33.176 15.1912C33.176 13.6215 34.578 13.101 35.912 13.101C36.122 13.101 36.576 13.1357 36.576 13.1357C36.576 13.1357 36.628 13.0407 36.628 12.7814C36.628 12.3549 36.208 12.2965 35.632 12.2965C34.619 12.2965 33.951 12.5439 33.951 12.5439L34.175 11.3294C34.175 11.3294 34.987 11.019 36.045 11.019C36.591 11.019 38.165 11.0719 38.164 12.7184L37.558 16.5992C37.557 16.602 36.197 16.602 36.197 16.602ZM39.404 16.6202H37.82L38.783 11.1578H40.221L40.083 11.9495C40.083 11.9495 40.596 11.0884 41.287 11.0884C41.488 11.0884 41.584 11.1066 41.584 11.1066C41.38 11.4883 41.197 11.8381 41.01 12.7412C39.937 12.3942 39.855 14.2871 39.404 16.6202ZM44.133 16.6056L44.2 16.1025C44.2 16.1025 43.688 16.6924 42.762 16.6924C41.479 16.6924 40.85 15.561 40.85 14.4049C40.85 12.617 42.028 11.0582 43.442 11.0582C44.352 11.0601 44.933 11.7933 44.933 11.7933L45.267 9.90768L46.814 9.90494L45.634 16.6056H44.133ZM47.185 16.4166C47.144 16.4842 47.086 16.5362 47.012 16.5764C46.939 16.6138 46.861 16.633 46.779 16.633C46.699 16.633 46.622 16.6138 46.548 16.5764C46.474 16.5362 46.416 16.4842 46.375 16.4166C46.333 16.3481 46.313 16.2787 46.313 16.2048C46.313 16.1299 46.334 16.0587 46.375 15.9911C46.416 15.9235 46.477 15.8687 46.55 15.8322C46.626 15.7948 46.701 15.7756 46.779 15.7756C46.859 15.7756 46.935 15.7948 47.009 15.8322C47.085 15.8696 47.143 15.9217 47.185 15.9911C47.228 16.0596 47.247 16.1308 47.247 16.2048C47.247 16.2787 47.227 16.349 47.185 16.4166Z" fill="white"/>
<path d="M47.0606 20.4552C47.0506 20.4488 47.0416 20.4387 47.0256 20.4333C47.0096 20.4278 46.9846 20.425 46.9456 20.425H46.8516V20.562H46.9516C46.9986 20.562 47.0296 20.5584 47.0476 20.5428C47.0646 20.5301 47.0726 20.5145 47.0726 20.4926C47.0726 20.478 47.0686 20.468 47.0606 20.4552Z" fill="white"/>
<path d="M47.3838 20.3731C47.3408 20.3019 47.2818 20.2516 47.2068 20.2142C47.1318 20.1768 47.0558 20.1576 46.9778 20.1576C46.8978 20.1576 46.8218 20.1768 46.7478 20.2142C46.6738 20.2516 46.6128 20.3037 46.5718 20.3731C46.5288 20.4407 46.5098 20.5119 46.5098 20.5849C46.5098 20.658 46.5308 20.7301 46.5718 20.7968C46.6148 20.8644 46.6728 20.9192 46.7458 20.9566C46.8198 20.994 46.8978 21.0132 46.9798 21.0132C47.0598 21.0132 47.1378 20.994 47.2108 20.9566C47.2838 20.9192 47.3428 20.8644 47.3838 20.7968C47.4258 20.7301 47.4458 20.6589 47.4458 20.5849C47.4458 20.511 47.4248 20.4398 47.3838 20.3731ZM47.0958 20.8224L47.0518 20.7502C47.0168 20.6936 46.9878 20.6562 46.9658 20.6416C46.9518 20.6324 46.9298 20.6251 46.9018 20.6251H46.8548V20.8215H46.7728V20.3603H46.9468C47.0068 20.3603 47.0498 20.3649 47.0738 20.374C47.1008 20.3831 47.1238 20.3959 47.1378 20.4188C47.1538 20.4398 47.1608 20.4626 47.1608 20.4863C47.1608 20.5201 47.1468 20.5484 47.1218 20.5749C47.0958 20.5986 47.0598 20.6142 47.0168 20.6169C47.0348 20.6224 47.0488 20.6315 47.0598 20.6416C47.0808 20.6598 47.1048 20.69 47.1348 20.732L47.1968 20.8224H47.0958Z" fill="white"/>
<path d="M11.0221 14.149C9.89111 14.149 9.66211 14.6129 9.66211 14.9992C9.66211 15.1983 9.78711 15.5306 10.2661 15.5306C11.1951 15.5306 11.3881 14.4184 11.3581 14.1819C11.3141 14.1737 11.2861 14.15 11.0221 14.149Z" fill="white"/>
<path d="M22.711 12.2616C21.87 12.2616 21.708 13.1355 21.708 13.2277H23.421C23.421 13.1574 23.582 12.2616 22.711 12.2616Z" fill="white"/>
<path d="M43.7091 12.4141C43.0301 12.4141 42.4931 13.1336 42.4941 14.2267C42.4941 14.8933 42.7541 15.3206 43.3101 15.3206C44.1461 15.3206 44.5491 14.3244 44.5491 13.582C44.5491 12.7629 44.2641 12.4141 43.7091 12.4141Z" fill="white"/>
<path d="M47.1147 16.0274C47.0797 15.9708 47.0307 15.927 46.9687 15.895C46.9067 15.8631 46.8437 15.8475 46.7777 15.8475C46.7137 15.8475 46.6487 15.864 46.5867 15.895C46.5247 15.9242 46.4757 15.9699 46.4407 16.0274C46.4057 16.085 46.3877 16.1461 46.3877 16.2055C46.3877 16.2667 46.4057 16.3269 46.4387 16.3826C46.4757 16.4393 46.5227 16.4822 46.5847 16.516C46.6467 16.547 46.7107 16.5653 46.7777 16.5653C46.8447 16.5653 46.9107 16.547 46.9707 16.516C47.0327 16.484 47.0807 16.4402 47.1167 16.3826C47.1517 16.326 47.1677 16.2667 47.1677 16.2055C47.1677 16.1452 47.1497 16.085 47.1147 16.0274ZM46.8977 16.4402L46.8527 16.3689C46.8177 16.3114 46.7897 16.2749 46.7687 16.2612C46.7517 16.2493 46.7317 16.2438 46.7027 16.2438H46.6567V16.4393H46.5727V15.979H46.7477C46.8067 15.979 46.8507 15.9836 46.8757 15.9936C46.9007 16.0019 46.9227 16.0174 46.9397 16.0375C46.9567 16.0576 46.9627 16.0804 46.9627 16.105C46.9627 16.1388 46.9487 16.1671 46.9227 16.1927C46.8967 16.2192 46.8607 16.2301 46.8187 16.2347C46.8387 16.242 46.8517 16.2502 46.8617 16.2585C46.8827 16.2776 46.9067 16.305 46.9357 16.3489L46.9977 16.4402H46.8977Z" fill="white"/>
<path d="M36.0387 14.149C34.9077 14.149 34.6787 14.6129 34.6787 14.9992C34.6787 15.1983 34.8027 15.5306 35.2827 15.5306C36.2117 15.5306 36.4037 14.4184 36.3747 14.1819C36.3297 14.1737 36.3017 14.15 36.0387 14.149Z" fill="white"/>
<path d="M46.8642 16.073C46.8562 16.0638 46.8452 16.0565 46.8302 16.0501C46.8132 16.0456 46.7882 16.041 46.7482 16.041L46.6572 16.0419V16.1807H46.7562C46.8032 16.1807 46.8342 16.1752 46.8532 16.1616C46.8682 16.1479 46.8772 16.1305 46.8772 16.1104C46.8772 16.0949 46.8732 16.0858 46.8642 16.073Z" fill="white"/>
</g>
</svg>
