<svg width="27" height="27" viewBox="0 0 27 27" fill="none" xmlns="http://www.w3.org/2000/svg">
<mask id="mask0_1256_4679" style="mask-type:luminance" maskUnits="userSpaceOnUse" x="0" y="0" width="27" height="27">
<path d="M27 0H0V27H27V0Z" fill="white"/>
</mask>
<g mask="url(#mask0_1256_4679)">
<path d="M27 13.8106C27 12.8926 26.9244 11.9692 26.7624 11.0674H13.77V16.2649H21.2085C20.9007 17.9416 19.9071 19.4239 18.4545 20.3662V23.7385H22.896C25.5015 21.3895 27 17.9173 27 13.8106Z" fill="#4285F4"/>
<path d="M13.77 27.0001C17.4852 27.0001 20.6172 25.804 22.8987 23.7412L18.4626 20.3689C17.2287 21.1924 15.633 21.6595 13.7754 21.6595C10.1817 21.6595 7.13608 19.2835 6.04258 16.0894H1.46338V19.567C3.80158 24.1246 8.56438 27.0001 13.77 27.0001Z" fill="#34A853"/>
<path d="M6.03723 16.0868C5.45943 14.4101 5.45943 12.5957 6.03723 10.919V7.44141H1.46073C-0.494071 11.2565 -0.494071 15.7493 1.46073 19.5644L6.03723 16.0868Z" fill="#FBBC04"/>
<path d="M13.77 5.34057C15.7329 5.31087 17.631 6.03447 19.0539 7.36557L22.9878 3.50997C20.4957 1.22037 17.1909 -0.0405303 13.77 -3.02525e-05C8.56438 -3.02525e-05 3.80158 2.87547 1.46338 7.43847L6.03718 10.9161C7.12528 7.71657 10.1763 5.34057 13.77 5.34057Z" fill="#EA4335"/>
</g>
</svg>
