<svg width="24" height="27" viewBox="0 0 24 27" fill="none" xmlns="http://www.w3.org/2000/svg">
<path d="M23.5007 21.0393C23.0701 21.9815 22.5598 22.8508 21.9701 23.65C21.1636 24.738 20.5052 25.4912 19.9977 25.9097C19.2104 26.5954 18.3655 26.9491 17.4603 26.968C16.8102 26.968 16.0283 26.7925 15.1176 26.4388C14.2041 26.0852 13.3647 25.9097 12.5939 25.9097C11.7874 25.9097 10.9233 26.0852 9.99886 26.4388C9.07441 26.7925 8.32827 26.9788 7.75769 26.9977C6.89084 27.0328 6.02675 26.671 5.16265 25.9124C4.61127 25.4561 3.92273 24.6786 3.09978 23.5717C2.21374 22.3919 1.4868 21.0231 0.916219 19.4626C0.307235 17.7753 0 16.1446 0 14.5652C0 12.7564 0.411475 11.1959 1.23991 9.88655C1.89004 8.83634 2.75414 8.00751 3.83495 7.40006C4.91576 6.79261 6.08435 6.48214 7.34347 6.46324C8.032 6.46324 8.93451 6.66573 10.0565 7.06259C11.1757 7.45946 11.8944 7.66194 12.2099 7.66194C12.4458 7.66194 13.244 7.42706 14.5964 6.9546C15.8747 6.51724 16.9555 6.33635 17.8416 6.40925C20.2391 6.59283 22.0414 7.48915 23.2374 9.10092C21.0922 10.332 20.0334 12.0545 20.0526 14.2683C20.0718 15.9907 20.7329 17.4243 22.0277 18.5636C22.6147 19.0928 23.2703 19.5004 24 19.7893C23.8436 20.224 23.6763 20.6397 23.5007 21.0393ZM18.0007 0.539953C18.0007 1.88984 17.4795 3.15063 16.4426 4.31693C15.1917 5.70461 13.6747 6.50644 12.0315 6.37955C12.0096 6.21756 11.9986 6.04748 11.9986 5.86659C11.9986 4.57071 12.5939 3.18303 13.6528 2.04912C14.1794 1.47407 14.8515 0.996214 15.6662 0.615547C16.481 0.242979 17.2491 0.035097 17.9705 0C17.9925 0.180884 18.0007 0.361769 18.0007 0.539953Z" fill="black"/>
</svg>
