<svg width="18" height="19" viewBox="0 0 18 19" fill="none" xmlns="http://www.w3.org/2000/svg">
<path d="M1 18.5V12.5H17V18.5H15V14.5H3V18.5H1ZM1.5 11.5C1.08334 11.5 0.729002 11.354 0.437002 11.062C0.145002 10.77 -0.000664389 10.416 2.2779e-06 10C2.2779e-06 9.58333 0.146002 9.229 0.438002 8.937C0.730002 8.645 1.084 8.49934 1.5 8.5C1.91667 8.5 2.271 8.646 2.563 8.938C2.855 9.23 3.00067 9.584 3 10C3 10.4167 2.854 10.771 2.562 11.063C2.27 11.355 1.916 11.5007 1.5 11.5ZM4 11.5V2.5C4 1.95 4.196 1.479 4.588 1.087C4.98 0.695002 5.45067 0.499335 6 0.500002H12C12.55 0.500002 13.021 0.696002 13.413 1.088C13.805 1.48 14.0007 1.95067 14 2.5V11.5H4ZM16.5 11.5C16.0833 11.5 15.729 11.354 15.437 11.062C15.145 10.77 14.9993 10.416 15 10C15 9.58333 15.146 9.229 15.438 8.937C15.73 8.645 16.084 8.49934 16.5 8.5C16.9167 8.5 17.271 8.646 17.563 8.938C17.855 9.23 18.0007 9.584 18 10C18 10.4167 17.854 10.771 17.562 11.063C17.27 11.355 16.916 11.5007 16.5 11.5Z" fill="#1E1E1E"/>
</svg>
