<svg width="155" height="47" viewBox="0 0 155 47" fill="none" xmlns="http://www.w3.org/2000/svg">
<rect x="0.45" y="1.1668" width="154.025" height="44.666" rx="3.55" fill="black" stroke="#A6A6A6" stroke-width="0.9"/>
<path d="M21.1875 44.0224C20.856 44.0224 20.5325 44.0182 20.2037 44.0109C19.5224 44.0021 18.8427 43.9436 18.1701 43.8357C17.543 43.7291 16.9355 43.5307 16.3677 43.2472C15.805 42.9661 15.2919 42.5974 14.8478 42.1553C14.3973 41.7185 14.0223 41.2118 13.7375 40.6554C13.4497 40.0954 13.2504 39.4951 13.1468 38.8755C13.0349 38.2097 12.9743 37.5365 12.9656 36.8616C12.9587 36.6351 12.9497 35.8809 12.9497 35.8809V11.0696C12.9497 11.0696 12.9593 10.327 12.9657 10.1088C12.974 9.43504 13.0342 8.76286 13.1458 8.0981C13.2496 7.47678 13.449 6.87477 13.737 6.31291C14.0207 5.75689 14.3937 5.24984 14.8415 4.81143C15.2887 4.36886 15.8035 3.99829 16.3671 3.71324C16.9337 3.43064 17.54 3.2337 18.1659 3.12902C18.8406 3.02008 19.5227 2.96117 20.2063 2.95281L21.188 2.9397H132.995L133.989 2.95334C134.666 2.96128 135.342 3.01966 136.01 3.12797C136.643 3.23396 137.255 3.43228 137.828 3.71639C138.957 4.29085 139.876 5.19969 140.456 6.31553C140.739 6.87351 140.935 7.47061 141.038 8.08657C141.151 8.75678 141.214 9.43424 141.227 10.1135C141.23 10.4177 141.23 10.7444 141.23 11.0696C141.239 11.4724 141.239 11.8557 141.239 12.2422V34.7208C141.239 35.111 141.239 35.4918 141.23 35.8756C141.23 36.2249 141.23 36.5449 141.226 36.8742C141.213 37.5414 141.151 38.2067 141.04 38.865C140.939 39.4891 140.74 40.094 140.453 40.6586C140.166 41.209 139.793 41.7113 139.348 42.1469C138.903 42.5914 138.389 42.9622 137.825 43.2452C137.254 43.5309 136.642 43.7299 136.01 43.8357C135.338 43.9441 134.658 44.0027 133.977 44.0109C133.658 44.0182 133.325 44.0224 133.001 44.0224L131.821 44.0245L21.1875 44.0224Z" fill="black"/>
<path d="M38.9474 23.8041C38.9591 22.9076 39.2003 22.0286 39.6486 21.2489C40.0968 20.4692 40.7376 19.8141 41.5112 19.3445C41.0197 18.6516 40.3714 18.0813 39.6176 17.6791C38.8639 17.2768 38.0255 17.0535 37.169 17.0271C35.3421 16.8378 33.571 18.1063 32.64 18.1063C31.691 18.1063 30.2576 17.0459 28.7141 17.0772C27.7157 17.1091 26.7427 17.3957 25.8899 17.9091C25.0371 18.4226 24.3335 19.1454 23.8478 20.0071C21.7437 23.6035 23.3132 28.889 25.3287 31.796C26.3371 33.2195 27.5157 34.8096 29.0578 34.7532C30.5669 34.6915 31.1305 33.8033 32.952 33.8033C34.7567 33.8033 35.2855 34.7532 36.8589 34.7174C38.4781 34.6914 39.4984 33.2876 40.4714 31.8506C41.196 30.8363 41.7535 29.7153 42.1234 28.529C41.1826 28.1362 40.3798 27.4787 39.815 26.6385C39.2502 25.7983 38.9485 24.8125 38.9474 23.8041Z" fill="white"/>
<path d="M35.9755 15.1151C36.8584 14.0687 37.2933 12.7238 37.188 11.366C35.8391 11.5058 34.5931 12.1423 33.6983 13.1485C33.2608 13.64 32.9257 14.2119 32.7122 14.8314C32.4987 15.4509 32.411 16.1058 32.454 16.7588C33.1287 16.7657 33.7962 16.6213 34.4061 16.3366C35.0161 16.0519 35.5527 15.6342 35.9755 15.1151Z" fill="white"/>
<path d="M58.0229 31.1494H52.8732L51.6365 34.7544H49.4553L54.333 21.4167H56.5992L61.477 34.7544H59.2586L58.0229 31.1494ZM53.4066 29.4858H57.4886L55.4763 23.6352H55.42L53.4066 29.4858Z" fill="white"/>
<path d="M72.0111 29.8927C72.0111 32.9145 70.3728 34.856 67.9005 34.856C67.2742 34.8883 66.6513 34.7459 66.1032 34.445C65.5551 34.1441 65.1039 33.697 64.8013 33.1547H64.7545V37.9712H62.7327V25.0301H64.6897V26.6474H64.7269C65.0435 26.1078 65.5023 25.6629 66.0546 25.3602C66.6068 25.0575 67.2319 24.9082 67.8633 24.9283C70.3632 24.9283 72.0111 26.8792 72.0111 29.8927ZM69.9329 29.8927C69.9329 27.9239 68.9023 26.6296 67.3299 26.6296C65.7851 26.6296 64.746 27.9512 64.746 29.8927C64.746 31.852 65.7851 33.1642 67.3299 33.1642C68.9024 33.1642 69.9329 31.8793 69.9329 29.8927Z" fill="white"/>
<path d="M82.8524 29.8927C82.8524 32.9145 81.2141 34.856 78.7418 34.856C78.1155 34.8883 77.4926 34.7459 76.9445 34.445C76.3964 34.1441 75.9452 33.697 75.6426 33.1547H75.5958V37.9712H73.574V25.03H75.531V26.6474H75.5682C75.8847 26.1077 76.3436 25.6629 76.8958 25.3602C77.4481 25.0574 78.0732 24.9082 78.7046 24.9283C81.2045 24.9283 82.8524 26.8792 82.8524 29.8927ZM80.7742 29.8927C80.7742 27.9239 79.7437 26.6296 78.1712 26.6296C76.6264 26.6296 75.5873 27.9512 75.5873 29.8927C75.5873 31.852 76.6264 33.1641 78.1712 33.1641C79.7437 33.1641 80.7742 31.8793 80.7742 29.8927Z" fill="white"/>
<path d="M90.0177 31.0382C90.1675 32.3608 91.469 33.2292 93.2475 33.2292C94.9517 33.2292 96.1778 32.3608 96.1778 31.1682C96.1778 30.1329 95.4383 29.5131 93.6874 29.0882L91.9365 28.6718C89.4557 28.0803 88.304 26.9349 88.304 25.0763C88.304 22.775 90.3354 21.1943 93.2199 21.1943C96.0747 21.1943 98.0318 22.775 98.0976 25.0763H96.0566C95.9345 23.7452 94.8199 22.9418 93.1912 22.9418C91.5625 22.9418 90.448 23.7547 90.448 24.9378C90.448 25.8808 91.1598 26.4356 92.9012 26.8604L94.3896 27.2212C97.1616 27.8684 98.3133 28.9676 98.3133 30.9185C98.3133 33.4138 96.2999 34.9766 93.0977 34.9766C90.1016 34.9766 88.0787 33.4505 87.948 31.0381L90.0177 31.0382Z" fill="white"/>
<path d="M102.677 22.729V25.0303H104.55V26.6109H102.677V31.9718C102.677 32.8046 103.052 33.1927 103.875 33.1927C104.098 33.1888 104.32 33.1734 104.54 33.1465V34.7177C104.17 34.786 103.794 34.8169 103.417 34.81C101.423 34.81 100.645 34.0705 100.645 32.1847V26.6109H99.2131V25.0303H100.645V22.729H102.677Z" fill="white"/>
<path d="M105.635 29.8928C105.635 26.8332 107.46 24.9106 110.306 24.9106C113.162 24.9106 114.979 26.8332 114.979 29.8928C114.979 32.9608 113.172 34.875 110.306 34.875C107.442 34.875 105.635 32.9608 105.635 29.8928ZM112.919 29.8928C112.919 27.794 111.945 26.5553 110.306 26.5553C108.668 26.5553 107.695 27.8035 107.695 29.8928C107.695 32 108.668 33.2293 110.306 33.2293C111.945 33.2293 112.919 32 112.919 29.8928Z" fill="white"/>
<path d="M116.646 25.0302H118.574V26.6853H118.621C118.751 26.1684 119.058 25.7116 119.49 25.3916C119.921 25.0717 120.451 24.9081 120.99 24.9284C121.223 24.9276 121.456 24.9526 121.683 25.0029V26.8699C121.389 26.7812 121.082 26.7405 120.774 26.7493C120.481 26.7376 120.188 26.7887 119.916 26.8992C119.644 27.0097 119.4 27.177 119.2 27.3895C119 27.6021 118.848 27.8548 118.757 28.1305C118.665 28.4062 118.634 28.6982 118.668 28.9866V34.7544H116.646L116.646 25.0302Z" fill="white"/>
<path d="M131.005 31.8983C130.733 33.6636 128.992 34.875 126.764 34.875C123.898 34.875 122.12 32.9797 122.12 29.939C122.12 26.8888 123.908 24.9106 126.679 24.9106C129.404 24.9106 131.118 26.7588 131.118 29.7072V30.3911H124.161V30.5117C124.128 30.8696 124.174 31.2301 124.294 31.5693C124.414 31.9085 124.605 32.2187 124.856 32.4792C125.106 32.7397 125.41 32.9446 125.747 33.0803C126.084 33.2159 126.447 33.2793 126.81 33.266C127.288 33.3102 127.768 33.201 128.177 32.9546C128.587 32.7081 128.906 32.3377 129.085 31.8983L131.005 31.8983ZM124.17 28.996H129.095C129.113 28.6743 129.063 28.3522 128.949 28.0502C128.836 27.7482 128.66 27.4726 128.433 27.2409C128.206 27.0092 127.933 26.8262 127.631 26.7035C127.329 26.5809 127.005 26.5211 126.679 26.528C126.349 26.5261 126.023 26.5885 125.718 26.7118C125.414 26.835 125.137 27.0166 124.903 27.2461C124.67 27.4755 124.485 27.7483 124.36 28.0486C124.234 28.349 124.169 28.671 124.17 28.996Z" fill="white"/>
<path d="M53.1529 11.3776C53.5768 11.3476 54.0022 11.4108 54.3983 11.5627C54.7944 11.7146 55.1515 11.9514 55.4437 12.2561C55.7359 12.5607 55.956 12.9256 56.0881 13.3243C56.2201 13.7231 56.2609 14.1458 56.2075 14.562C56.2075 16.6095 55.0866 17.7864 53.1529 17.7864H50.8081V11.3776H53.1529ZM51.8164 16.88H53.0403C53.3432 16.8979 53.6463 16.8489 53.9276 16.7365C54.2089 16.6241 54.4612 16.4513 54.6663 16.2305C54.8714 16.0097 55.024 15.7465 55.1131 15.4602C55.2021 15.1738 55.2254 14.8715 55.1811 14.5751C55.2222 14.2799 55.1966 13.9794 55.1061 13.6952C55.0157 13.4109 54.8627 13.1499 54.6581 12.9309C54.4535 12.7118 54.2023 12.5402 53.9227 12.4282C53.643 12.3163 53.3417 12.2668 53.0403 12.2833H51.8164V16.88Z" fill="white"/>
<path d="M57.3464 15.3658C57.3156 15.048 57.3524 14.7273 57.4545 14.4244C57.5566 14.1214 57.7217 13.8429 57.9392 13.6066C58.1568 13.3703 58.4219 13.1815 58.7177 13.0524C59.0134 12.9232 59.3333 12.8564 59.6567 12.8564C59.9801 12.8564 60.2999 12.9232 60.5957 13.0524C60.8915 13.1815 61.1566 13.3703 61.3741 13.6066C61.5917 13.8429 61.7568 14.1214 61.8589 14.4244C61.961 14.7273 61.9978 15.048 61.967 15.3658C61.9984 15.684 61.962 16.0051 61.8602 16.3086C61.7583 16.612 61.5933 16.8911 61.3757 17.1278C61.1582 17.3646 60.8928 17.5537 60.5968 17.6832C60.3007 17.8127 59.9805 17.8795 59.6567 17.8795C59.3329 17.8795 59.0127 17.8127 58.7166 17.6832C58.4205 17.5537 58.1552 17.3646 57.9376 17.1278C57.72 16.8911 57.555 16.612 57.4532 16.3086C57.3514 16.0051 57.315 15.684 57.3464 15.3658ZM60.9725 15.3658C60.9725 14.3175 60.4955 13.7044 59.6583 13.7044C58.8179 13.7044 58.3451 14.3175 58.3451 15.3659C58.3451 16.4226 58.8179 17.031 59.6583 17.031C60.4955 17.0309 60.9725 16.4184 60.9725 15.3658Z" fill="white"/>
<path d="M68.109 17.7861H67.1061L66.0936 14.2241H66.0171L65.0088 17.7861H64.0154L62.665 12.9497H63.6457L64.5233 16.6402H64.5955L65.6027 12.9497H66.5302L67.5374 16.6402H67.6139L68.4873 12.9497H69.4541L68.109 17.7861Z" fill="white"/>
<path d="M70.5899 12.9497H71.5206V13.718H71.5928C71.7154 13.442 71.9221 13.2107 72.1841 13.0563C72.4462 12.9018 72.7505 12.8319 73.0547 12.8563C73.2931 12.8386 73.5325 12.8741 73.755 12.9601C73.9776 13.0462 74.1778 13.1805 74.3406 13.3533C74.5035 13.526 74.6249 13.7328 74.6958 13.9581C74.7667 14.1835 74.7854 14.4217 74.7504 14.6552V17.786H73.7836V14.8948C73.7836 14.1176 73.4415 13.7311 72.7264 13.7311C72.5646 13.7237 72.403 13.7509 72.2528 13.8108C72.1026 13.8708 71.9674 13.9621 71.8562 14.0785C71.7451 14.1949 71.6608 14.3337 71.6091 14.4853C71.5574 14.6368 71.5395 14.7977 71.5567 14.9567V17.7861H70.5898L70.5899 12.9497Z" fill="white"/>
<path d="M76.291 11.0618H77.2578V17.7862H76.291V11.0618Z" fill="white"/>
<path d="M78.602 15.3659C78.5712 15.0481 78.608 14.7274 78.7102 14.4244C78.8123 14.1214 78.9774 13.8429 79.195 13.6066C79.4125 13.3703 79.6777 13.1815 79.9735 13.0524C80.2692 12.9232 80.5891 12.8564 80.9125 12.8564C81.236 12.8564 81.5558 12.9232 81.8516 13.0524C82.1474 13.1815 82.4126 13.3703 82.6301 13.6066C82.8477 13.8429 83.0128 14.1214 83.1149 14.4244C83.217 14.7274 83.2539 15.0481 83.2231 15.3659C83.2544 15.6841 83.218 16.0052 83.1162 16.3087C83.0143 16.6121 82.8493 16.8912 82.6317 17.1279C82.4141 17.3646 82.1487 17.5538 81.8526 17.6833C81.5566 17.8127 81.2363 17.8796 80.9125 17.8796C80.5887 17.8796 80.2685 17.8127 79.9724 17.6833C79.6764 17.5538 79.411 17.3646 79.1934 17.1279C78.9758 16.8912 78.8108 16.6121 78.7089 16.3087C78.607 16.0052 78.5706 15.6841 78.602 15.3659ZM82.2281 15.3659C82.2281 14.3176 81.7511 13.7045 80.9139 13.7045C80.0735 13.7045 79.6007 14.3176 79.6007 15.3659C79.6007 16.4227 80.0735 17.031 80.9139 17.031C81.7511 17.031 82.2281 16.4185 82.2281 15.3659Z" fill="white"/>
<path d="M84.2407 16.4184C84.2407 15.5479 84.8973 15.046 86.0628 14.9747L87.3898 14.8991V14.4817C87.3898 13.9709 87.0477 13.6824 86.3869 13.6824C85.8472 13.6824 85.4732 13.8781 85.3659 14.22H84.4298C84.5286 13.3893 85.3202 12.8564 86.4315 12.8564C87.6597 12.8564 88.3524 13.4601 88.3524 14.4817V17.7862H87.4217V17.1065H87.3452C87.1899 17.3503 86.9719 17.5491 86.7134 17.6825C86.4549 17.8159 86.1651 17.8792 85.8737 17.8659C85.6681 17.887 85.4602 17.8653 85.2635 17.8023C85.0669 17.7392 84.8858 17.6362 84.7319 17.4998C84.5781 17.3635 84.4549 17.1968 84.3703 17.0105C84.2857 16.8243 84.2415 16.6226 84.2407 16.4184ZM87.3898 16.0052V15.6008L86.1935 15.6764C85.5188 15.7209 85.2129 15.9475 85.2129 16.3739C85.2129 16.8091 85.5953 17.0625 86.1213 17.0625C86.2754 17.0779 86.4311 17.0625 86.579 17.0173C86.727 16.9721 86.8642 16.8979 86.9826 16.7993C87.1009 16.7007 87.198 16.5795 87.268 16.4431C87.3379 16.3067 87.3794 16.1577 87.3898 16.0052Z" fill="white"/>
<path d="M89.6233 15.3659C89.6233 13.8377 90.4191 12.8695 91.6568 12.8695C91.963 12.8556 92.2669 12.928 92.5329 13.0783C92.7989 13.2285 93.0161 13.4504 93.1591 13.718H93.2314V11.0618H94.1982V17.7862H93.2718V17.022H93.1953C93.0412 17.2879 92.8164 17.507 92.5452 17.6557C92.2741 17.8045 91.9668 17.8771 91.6568 17.8659C90.4106 17.8659 89.6233 16.8978 89.6233 15.3659ZM90.622 15.3659C90.622 16.3917 91.1118 17.009 91.931 17.009C92.7459 17.009 93.2495 16.3828 93.2495 15.3701C93.2495 14.3621 92.7406 13.727 91.931 13.727C91.1171 13.727 90.622 14.3485 90.622 15.3659Z" fill="white"/>
<path d="M98.1982 15.3658C98.1674 15.048 98.2042 14.7273 98.3063 14.4244C98.4084 14.1214 98.5735 13.8429 98.791 13.6066C99.0086 13.3703 99.2737 13.1815 99.5695 13.0524C99.8652 12.9232 100.185 12.8564 100.508 12.8564C100.832 12.8564 101.152 12.9232 101.448 13.0524C101.743 13.1815 102.008 13.3703 102.226 13.6066C102.443 13.8429 102.609 14.1214 102.711 14.4244C102.813 14.7273 102.85 15.048 102.819 15.3658C102.85 15.684 102.814 16.0051 102.712 16.3086C102.61 16.612 102.445 16.8911 102.228 17.1278C102.01 17.3646 101.745 17.5537 101.449 17.6832C101.153 17.8127 100.832 17.8795 100.508 17.8795C100.185 17.8795 99.8645 17.8127 99.5684 17.6832C99.2724 17.5537 99.007 17.3646 98.7894 17.1278C98.5718 16.8911 98.4068 16.612 98.305 16.3086C98.2032 16.0051 98.1668 15.684 98.1982 15.3658ZM101.824 15.3658C101.824 14.3175 101.347 13.7044 100.51 13.7044C99.6697 13.7044 99.1969 14.3175 99.1969 15.3659C99.1969 16.4226 99.6697 17.031 100.51 17.031C101.347 17.0309 101.824 16.4184 101.824 15.3658Z" fill="white"/>
<path d="M104.116 12.9497H105.047V13.718H105.119C105.242 13.442 105.448 13.2107 105.711 13.0563C105.973 12.9018 106.277 12.8319 106.581 12.8563C106.819 12.8386 107.059 12.8741 107.281 12.9601C107.504 13.0462 107.704 13.1805 107.867 13.3533C108.03 13.526 108.151 13.7328 108.222 13.9581C108.293 14.1835 108.312 14.4217 108.277 14.6552V17.786H107.31V14.8948C107.31 14.1176 106.968 13.7311 106.253 13.7311C106.091 13.7237 105.929 13.7509 105.779 13.8108C105.629 13.8708 105.494 13.9621 105.383 14.0785C105.272 14.1949 105.187 14.3337 105.136 14.4853C105.084 14.6368 105.066 14.7977 105.083 14.9567V17.7861H104.116V12.9497Z" fill="white"/>
<path d="M113.74 11.7456V12.9717H114.801V13.7757H113.74V16.2626C113.74 16.7692 113.951 16.9911 114.432 16.9911C114.556 16.9907 114.679 16.9833 114.801 16.969V17.7641C114.628 17.7948 114.452 17.8111 114.275 17.8129C113.2 17.8129 112.772 17.4395 112.772 16.507V13.7757H111.994V12.9717H112.772V11.7456H113.74Z" fill="white"/>
<path d="M116.122 11.0618H117.08V13.727H117.157C117.285 13.4485 117.498 13.2158 117.765 13.0608C118.032 12.9058 118.341 12.8359 118.65 12.8606C118.888 12.8479 119.125 12.887 119.345 12.9751C119.565 13.0632 119.762 13.1982 119.924 13.3704C120.085 13.5426 120.205 13.7478 120.277 13.9713C120.348 14.1949 120.369 14.4313 120.338 14.6636V17.7862H119.37V14.8991C119.37 14.1266 119.005 13.7354 118.322 13.7354C118.156 13.7219 117.989 13.7445 117.832 13.8014C117.676 13.8584 117.534 13.9485 117.417 14.0653C117.299 14.182 117.209 14.3228 117.152 14.4776C117.096 14.6324 117.074 14.7976 117.089 14.9615V17.7861H116.122L116.122 11.0618Z" fill="white"/>
<path d="M125.975 16.4804C125.844 16.9224 125.559 17.3048 125.171 17.5606C124.783 17.8164 124.316 17.9293 123.852 17.8796C123.53 17.888 123.209 17.827 122.912 17.7008C122.616 17.5745 122.351 17.3861 122.135 17.1486C121.92 16.9111 121.76 16.6302 121.665 16.3253C121.571 16.0205 121.545 15.699 121.589 15.3833C121.546 15.0666 121.573 14.7444 121.667 14.4387C121.761 14.1329 121.92 13.8507 122.135 13.6111C122.349 13.3715 122.613 13.1801 122.908 13.0499C123.204 12.9198 123.524 12.8538 123.848 12.8565C125.211 12.8565 126.033 13.7759 126.033 15.2946V15.6277H122.574V15.6812C122.559 15.8587 122.582 16.0373 122.64 16.2057C122.699 16.374 122.793 16.5284 122.916 16.6588C123.039 16.7893 123.188 16.8929 123.354 16.9632C123.52 17.0334 123.698 17.0687 123.879 17.0667C124.11 17.0941 124.344 17.053 124.552 16.9486C124.759 16.8442 124.931 16.6812 125.044 16.4804L125.975 16.4804ZM122.574 14.9218H125.049C125.061 14.7595 125.038 14.5964 124.983 14.4431C124.928 14.2898 124.84 14.1497 124.727 14.0317C124.613 13.9137 124.476 13.8205 124.324 13.758C124.171 13.6955 124.008 13.6652 123.843 13.6689C123.675 13.6668 123.51 13.6978 123.355 13.76C123.2 13.8223 123.059 13.9145 122.941 14.0313C122.823 14.148 122.729 14.287 122.666 14.4399C122.603 14.5929 122.572 14.7567 122.574 14.9218Z" fill="white"/>
</svg>
