<?xml version="1.0" encoding="utf-8"?>
<!-- Generator: Adobe Illustrator 28.1.0, SVG Export Plug-In . SVG Version: 6.00 Build 0)  -->
<svg  width="350" height="40"  version="1.1" id="Layer_1" xmlns="http://www.w3.org/2000/svg" xmlns:xlink="http://www.w3.org/1999/xlink" x="0px" y="0px"
	 viewBox="0 0 295 18" style="enable-background:new 0 0 295 18;" xml:space="preserve">
<style type="text/css">
	.st0{fill:#003364;}
</style>
<g>
	<path class="st0" d="M160.32,16.8c-0.51-0.06-0.89-0.19-1.15-0.37c-0.27-0.2-0.78-0.7-1.52-1.5l-4.07-4.42l3.32-3.1
		c0.56-0.53,1-0.88,1.3-1.03c0.31-0.15,0.73-0.26,1.27-0.31l0.1-0.01V5.53h-4.76v0.53h0.11c0.37,0,0.65,0.04,0.84,0.1
		c0.16,0.06,0.24,0.17,0.24,0.36c0,0.17-0.23,0.67-1.79,2.17c-0.64,0.61-1.46,1.34-2.44,2.19V7.53c0-0.59,0.09-0.98,0.27-1.16
		c0.12-0.12,0.44-0.27,1.24-0.31l0.1,0V5.53h-5.16v0.53l0.1,0.01c0.79,0.05,1.1,0.2,1.22,0.32c0.12,0.11,0.25,0.4,0.25,1.15v7.59
		c0,0.89-0.13,1.22-0.23,1.34c-0.1,0.12-0.4,0.28-1.24,0.34l-0.1,0.01v0.5h5.11v-0.5l-0.1-0.01c-0.63-0.05-1.04-0.16-1.21-0.32
		c-0.12-0.11-0.26-0.39-0.26-1.16V12.2l0.42-0.39l3.27,3.56c0.23,0.25,0.4,0.48,0.51,0.67c0.13,0.23,0.15,0.34,0.15,0.4
		c0,0.13-0.06,0.21-0.18,0.26c-0.16,0.06-0.48,0.09-0.94,0.11l-0.1,0v0.5h5.52v-0.5L160.32,16.8z"/>
	<path class="st0" d="M169.19,5.53v0.51l0.09,0.01c0.61,0.06,1.02,0.2,1.23,0.42c0.14,0.15,0.31,0.56,0.31,1.69v4.47
		c0,1.07-0.13,1.88-0.4,2.38c-0.47,0.9-1.4,1.35-2.77,1.35c-1.27,0-2.1-0.43-2.55-1.32c-0.24-0.48-0.36-1.18-0.36-2.06V7.49
		c0-0.75,0.14-1.03,0.26-1.13c0.12-0.11,0.44-0.25,1.24-0.31l0.1-0.01V5.53h-5.14v0.51l0.1,0.01c0.79,0.06,1.1,0.2,1.22,0.31
		c0.12,0.11,0.26,0.39,0.26,1.13v5.36c0,1.08,0.19,1.96,0.56,2.61c0.7,1.24,2.02,1.86,3.93,1.86c1.94,0,3.27-0.64,3.97-1.89
		c0.38-0.68,0.57-1.63,0.57-2.82V8.15c0-0.87,0.1-1.43,0.29-1.66c0.19-0.23,0.61-0.38,1.25-0.45l0.09-0.01V5.53H169.19z"/>
	<path class="st0" d="M187.52,5.53v0.52l0.1,0c0.32,0.01,0.56,0.05,0.72,0.12c0.26,0.11,0.39,0.29,0.39,0.57
		c0,0.08-0.01,0.19-0.04,0.34c-0.04,0.25-0.13,0.54-0.25,0.86l-2.05,5.57l-2.37-6.19c-0.09-0.23-0.14-0.39-0.17-0.46
		c-0.02-0.06-0.03-0.14-0.03-0.24c0-0.26,0.1-0.41,0.31-0.49c0.15-0.05,0.44-0.08,0.85-0.09l0.1,0V5.53h-4.79v0.52l0.1,0
		c0.35,0.01,0.61,0.05,0.77,0.12c0.28,0.12,0.48,0.35,0.62,0.71l0.79,2.07l-1.7,4.52l-2.38-6.2c-0.06-0.17-0.11-0.3-0.14-0.4
		c-0.03-0.1-0.04-0.2-0.04-0.3c0-0.21,0.1-0.34,0.32-0.42c0.13-0.05,0.37-0.08,0.7-0.09l0.1,0V5.53h-4.4v0.52l0.1,0.01
		c0.47,0.03,0.8,0.21,1.02,0.56c0.23,0.37,0.65,1.39,1.24,3.04l2.74,7.66h0.41l2.56-7.06l2.65,7.06h0.41l3.59-10.27
		c0.14-0.37,0.34-0.64,0.61-0.79c0.15-0.09,0.37-0.15,0.66-0.2l0.09-0.01V5.53H187.52z"/>
	<path class="st0" d="M202.25,14.14l-0.03,0.06c-0.42,0.97-0.9,1.58-1.43,1.83c-0.53,0.25-1.37,0.38-2.5,0.38
		c-1.3,0-1.74-0.05-1.88-0.09c-0.06-0.02-0.24-0.07-0.24-0.51v-4.23h2.51c0.85,0,1.18,0.16,1.3,0.3c0.18,0.2,0.34,0.64,0.46,1.29
		l0.02,0.08h0.59V9.01h-0.59l-0.02,0.09c-0.12,0.65-0.27,1.09-0.46,1.29c-0.18,0.2-0.62,0.3-1.31,0.3h-2.51v-3.8
		c0-0.27,0.04-0.37,0.07-0.41c0.01-0.02,0.08-0.08,0.38-0.08h2.31c0.97,0,1.59,0.11,1.86,0.32c0.27,0.21,0.47,0.69,0.61,1.43
		l0.02,0.08h0.62l-0.06-2.71h-9.22v0.52l0.1,0.01c0.75,0.05,1.04,0.21,1.15,0.32c0.11,0.12,0.24,0.41,0.24,1.14v7.78
		c0,0.78-0.13,1.05-0.24,1.15c-0.17,0.15-0.56,0.25-1.16,0.32l-0.09,0.01v0.52h9.35l0.82-3.16H202.25z"/>
	<path class="st0" d="M211.76,5.53v0.52l0.1,0.01c0.76,0.07,1.06,0.22,1.17,0.33c0.26,0.27,0.4,0.87,0.4,1.8v5.52l-6.53-8.15
		l-0.03-0.04h-3.13v0.53l0.1,0c0.34,0.01,0.6,0.05,0.77,0.12c0.16,0.06,0.37,0.24,0.61,0.53l0.21,0.25v7.68c0,0.9-0.1,1.47-0.28,1.7
		c-0.18,0.23-0.63,0.38-1.31,0.45l-0.09,0.01v0.52h4.3v-0.52l-0.09-0.01c-0.6-0.07-0.99-0.18-1.15-0.35
		c-0.26-0.27-0.39-0.87-0.39-1.8V8.12l7.51,9.37l0.03,0.04h0.46V8.21c0-1.11,0.17-1.53,0.31-1.7c0.2-0.23,0.62-0.39,1.26-0.45
		l0.09-0.01V5.53H211.76z"/>
	<path class="st0" d="M221.53,6.36c0.13-0.12,0.45-0.26,1.28-0.3l0.1,0V5.53h-5.21v0.53l0.1,0c0.83,0.04,1.15,0.19,1.28,0.3
		c0.12,0.11,0.27,0.41,0.27,1.16v7.78c0,0.79-0.15,1.07-0.27,1.17c-0.19,0.15-0.62,0.25-1.29,0.3l-0.09,0.01v0.53h5.21v-0.53
		l-0.09-0.01c-0.67-0.05-1.1-0.15-1.29-0.3c-0.12-0.1-0.27-0.38-0.27-1.17V7.53C221.26,6.92,221.35,6.53,221.53,6.36z"/>
	<path class="st0" d="M93.53,5.53v7.98c0,0.57,0.08,1.02,0.24,1.36c0.31,0.63,0.88,0.95,1.71,0.95c0.57,0,1.5-0.19,2.04-0.56
		c0.31-0.21,0.62-0.49,0.94-0.86V7.56c0-0.64-0.13-1.06-0.38-1.26c-0.25-0.2-0.75-0.32-1.5-0.36V5.53h4.05v8.78
		c0,0.57,0.1,0.95,0.31,1.17c0.2,0.21,0.64,0.3,1.3,0.28v0.35c-0.46,0.12-0.8,0.22-1.02,0.28c-0.22,0.06-0.58,0.18-1.09,0.34
		c-0.22,0.07-0.69,0.25-1.43,0.54c-0.04,0-0.07-0.02-0.08-0.06c-0.01-0.04-0.01-0.08-0.01-0.13v-2.01c-0.57,0.67-1.09,1.17-1.56,1.5
		c-0.71,0.5-1.84,0.75-2.63,0.75c-0.73,0-1.41-0.26-2.06-0.77c-0.65-0.51-0.98-1.36-0.98-2.56V7.5c0-0.66-0.14-1.1-0.43-1.32
		c-0.18-0.14-0.58-0.24-1.18-0.3V5.53H93.53z"/>
	<path class="st0" d="M124.81,6.72c0.9,0.8,1.35,1.92,1.35,3.39h-8.22c0.08,1.89,0.53,3.27,1.34,4.13c0.81,0.86,1.89,1.29,2.99,1.29
		c0.89,0,1.64-0.22,2.25-0.67c0.61-0.45,1.18-1.08,1.69-1.91l0.45,0.15c-0.35,1.04-1,2-1.96,2.88c-0.96,0.88-2.13,1.32-3.51,1.32
		c-1.6,0-2.96-0.58-3.83-1.74c-0.87-1.16-1.31-2.49-1.31-4c0-1.64,0.51-3.06,1.52-4.25c1.01-1.19,2.45-1.79,4.08-1.79
		C122.86,5.53,123.91,5.93,124.81,6.72z M118.58,7.66c-0.27,0.44-0.47,1-0.59,1.67h5.5c-0.09-0.82-0.25-1.42-0.48-1.82
		c-0.42-0.72-1.11-1.08-2.09-1.08C119.95,6.42,119.09,6.83,118.58,7.66z"/>
	<path class="st0" d="M112.59,6.72c0.9,0.8,1.35,1.92,1.35,3.39h-8.22c0.08,1.89,0.53,3.27,1.34,4.13c0.81,0.86,1.89,1.29,2.99,1.29
		c0.89,0,1.64-0.22,2.25-0.67c0.61-0.45,1.18-1.08,1.69-1.91l0.45,0.15c-0.35,1.04-1,2-1.96,2.88c-0.96,0.88-2.13,1.32-3.51,1.32
		c-1.6,0-2.96-0.58-3.83-1.74c-0.87-1.16-1.31-2.49-1.31-4c0-1.64,0.51-3.06,1.52-4.25c1.01-1.19,2.45-1.79,4.08-1.79
		C110.64,5.53,111.69,5.93,112.59,6.72z M106.36,7.66c-0.27,0.44-0.47,1-0.59,1.67h5.5c-0.09-0.82-0.25-1.42-0.48-1.82
		c-0.42-0.72-1.11-1.08-2.09-1.08C107.73,6.42,106.87,6.83,106.36,7.66z"/>
	<path class="st0" d="M128.29,16.94c0.59-0.08,1.01-0.22,1.25-0.44c0.24-0.22,0.36-0.71,0.36-1.48V8.67c0-0.53-0.05-0.9-0.15-1.12
		c-0.16-0.31-0.48-0.47-0.98-0.47c-0.08,0-0.15,0-0.23,0.01s-0.18,0.02-0.29,0.04V6.7c0.34-0.1,1.15-0.36,2.43-0.77l1.18-0.39
		c0.06,0,0.09,0.02,0.11,0.06c0.01,0.04,0.02,0.1,0.02,0.17v1.84c0.77-0.72,1.37-1.21,1.8-1.47c0.65-0.41,1.82-0.61,2.52-0.61
		c0.57,0,1.08,0.16,1.55,0.49c0.9,0.63,1.35,1.76,1.35,3.38v5.83c0,0.6,0.12,1.03,0.36,1.3c0.24,0.27,0.64,0.4,1.21,0.41v0.35h-5.35
		v-0.35c0.61-0.08,1.04-0.25,1.28-0.51c0.24-0.25,0.36-0.81,0.36-1.65V9.45c0-0.72-0.13-1.31-0.4-1.78
		c-0.27-0.47-0.76-0.71-1.47-0.71c-0.49,0-1.49,0.17-1.99,0.5c-0.28,0.19-0.65,0.51-1.1,0.95v6.99c0,0.6,0.13,1,0.4,1.21
		c0.27,0.2,0.69,0.31,1.27,0.33v0.35h-5.48V16.94z"/>
	<path class="st0" d="M85.51,16.17c-0.22-0.1-0.43-0.22-0.64-0.35c0.64-0.45,1.19-0.99,1.67-1.63c1.06-1.44,1.59-3.2,1.59-5.29
		c0-2.63-0.83-4.74-2.5-6.3c-1.51-1.42-3.35-2.14-5.52-2.14c-2.2,0-4.05,0.72-5.55,2.16C72.92,4.2,72.1,6.3,72.1,8.91
		c0,2.41,0.69,4.36,2.07,5.85c0.3,0.32,0.64,0.63,1.04,0.93l0.85,0.56c0.31,0.19,0.65,0.37,1.01,0.55c0.95,0.39,2.57,0.77,4.77,0.31
		c0.49-0.1,0.96-0.24,1.4-0.41c0.01,0,0.02-0.01,0.04-0.02c0.31,0.11,0.64,0.21,1,0.29c0.96,0.21,2.07,0.32,3.31,0.32h0.9v-0.53
		C87.19,16.69,86.25,16.51,85.51,16.17z M80.12,16.45c-1.47,0-2.72-0.61-3.73-1.84c-1.01-1.23-1.52-3.13-1.52-5.7
		c0-2.58,0.51-4.48,1.52-5.71s2.26-1.84,3.72-1.84c1.42,0,2.65,0.59,3.68,1.78c1.04,1.19,1.55,3.11,1.55,5.78
		c0,2.63-0.51,4.55-1.54,5.75c-0.06,0.07-0.12,0.13-0.18,0.2c-0.57-0.54-1.1-1.16-1.56-1.75c-0.27-0.34-0.58-0.74-0.8-1
		c-0.02-0.02-0.03-0.05-0.05-0.07c-0.56-0.68-1.48-0.83-2.07-0.35c-0.41,0.34-0.54,0.91-0.38,1.45c0.05,0.2,0.15,0.41,0.29,0.59
		c0.04,0.05,0.09,0.11,0.13,0.16c0,0,0.17,0.17,0.26,0.25c0.2,0.19,0.42,0.4,0.8,0.72c0.52,0.43,1.11,0.89,1.49,1.09
		c0.07,0.04,0.15,0.08,0.22,0.12C81.39,16.32,80.78,16.45,80.12,16.45z M80.83,13.7c-0.38,0.31-0.98,0.21-1.35-0.23
		c-0.36-0.44-0.35-1.05,0.03-1.37c0.38-0.31,0.98-0.21,1.35,0.23C81.22,12.78,81.21,13.39,80.83,13.7z"/>
</g>
</svg>
