<?xml version="1.0" encoding="utf-8"?>
<!-- Generator: Adobe Illustrator 28.1.0, SVG Export Plug-In . SVG Version: 6.00 Build 0)  -->
<svg version="1.1" id="Layer_1" xmlns="http://www.w3.org/2000/svg" xmlns:xlink="http://www.w3.org/1999/xlink" x="0px" y="0px"
	 viewBox="0 0 165.13 130" style="enable-background:new 0 0 165.13 130;" xml:space="preserve">
<style type="text/css">
	.st0{fill:#003364;}
</style>
<g>
	<g>
		<path class="st0" d="M40.48,119.84c-0.17-0.53-0.67-0.61-0.93-0.61c-0.28,0-0.77,0.08-0.95,0.61l-1.65,5.1
			c-0.01,0.03-0.01,0.05-0.01,0.07c0,0.09,0.08,0.16,0.19,0.16h0.53c0.08,0,0.17-0.07,0.2-0.15l0.57-1.79h2.28l0.57,1.79
			c0.03,0.08,0.09,0.15,0.19,0.15H42c0.11,0,0.19-0.07,0.19-0.16c0-0.01,0-0.05-0.01-0.07L40.48,119.84z M39.54,119.9
			c0.07,0,0.12,0.04,0.13,0.12l0.8,2.54h-1.89l0.8-2.54C39.42,119.94,39.47,119.9,39.54,119.9z"/>
		<path class="st0" d="M46.87,120.74c-0.43,0-0.83,0.12-1.23,0.35v-0.11c0-0.11-0.09-0.19-0.2-0.19h-0.43c-0.12,0-0.2,0.08-0.2,0.19
			v4.01c0,0.11,0.09,0.19,0.2,0.19h0.44c0.11,0,0.21-0.09,0.21-0.19v-3.28c0.43-0.21,0.8-0.32,1.2-0.32c0.19,0,0.23-0.11,0.23-0.16
			v-0.32C47.09,120.85,47.07,120.74,46.87,120.74z"/>
		<path class="st0" d="M52.19,124.61h-0.51c-0.33,0-0.45-0.04-0.45-0.47v-2.7h0.93c0.12,0,0.21-0.08,0.21-0.19v-0.27
			c0-0.11-0.09-0.19-0.21-0.19h-0.93v-0.83c0-0.09-0.08-0.16-0.17-0.16h-0.03l-0.47,0.07c-0.11,0.01-0.19,0.09-0.19,0.19v0.73h-0.84
			c-0.12,0-0.2,0.07-0.2,0.17v0.21c0,0.09,0.08,0.16,0.2,0.17l0.84,0.08v2.72c0,0.91,0.44,1.08,1.25,1.08
			c0.17,0,0.41-0.01,0.59-0.04c0.12-0.01,0.19-0.07,0.19-0.16v-0.28C52.42,124.61,52.26,124.61,52.19,124.61z"/>
		<path class="st0" d="M55.79,120.8h-0.43c-0.12,0-0.21,0.08-0.21,0.19v4.01c0,0.11,0.09,0.19,0.21,0.19h0.43
			c0.12,0,0.21-0.08,0.21-0.19v-4.01C56.01,120.88,55.91,120.8,55.79,120.8z"/>
		<path class="st0" d="M55.81,119.16h-0.45c-0.12,0-0.21,0.08-0.21,0.19v0.63c0,0.11,0.09,0.19,0.21,0.19h0.45
			c0.12,0,0.21-0.08,0.21-0.19v-0.63C56.02,119.25,55.93,119.16,55.81,119.16z"/>
		<path class="st0" d="M61.31,122.85l-0.89-0.47c-0.4-0.2-0.6-0.35-0.6-0.57c0-0.36,0.27-0.43,0.8-0.43c0.37,0,0.84,0.03,1.39,0.07
			h0.03c0.12,0,0.19-0.05,0.19-0.16v-0.25c0-0.08-0.04-0.16-0.2-0.19c-0.45-0.07-0.93-0.11-1.4-0.11c-1.12,0-1.65,0.35-1.65,1.08
			c0,0.45,0.29,0.81,0.93,1.15l0.91,0.47c0.51,0.27,0.65,0.4,0.65,0.63c0,0.37-0.24,0.53-0.85,0.53c-0.33,0-0.99-0.04-1.41-0.08
			h-0.04c-0.11,0-0.2,0.07-0.2,0.15v0.28c0,0.09,0.07,0.16,0.21,0.19c0.41,0.09,1.03,0.12,1.43,0.12c1.12,0,1.71-0.4,1.71-1.17
			C62.31,123.57,62.03,123.22,61.31,122.85z"/>
		<path class="st0" d="M66.88,120.74c-0.63,0-1.04,0.05-1.4,0.11c-0.15,0.01-0.21,0.08-0.21,0.17v0.28c0,0.05,0.03,0.16,0.2,0.16
			h0.05c0.37-0.03,0.8-0.07,1.37-0.07c0.68,0,0.93,0.23,0.93,0.85v0.28H67.2c-1.53,0-2.2,0.39-2.2,1.31v0.09
			c0,0.6,0.25,1.31,1.49,1.31c0.43,0,0.84-0.11,1.35-0.36v0.12c0,0.11,0.09,0.19,0.21,0.19h0.41c0.12,0,0.21-0.08,0.21-0.19v-2.74
			C68.66,121.24,68.08,120.74,66.88,120.74z M65.84,123.82c0-0.51,0.2-0.75,1.33-0.75h0.63v1.21c-0.45,0.21-0.8,0.31-1.17,0.31
			c-0.48,0-0.79-0.12-0.79-0.68C65.84,123.91,65.84,123.82,65.84,123.82z"/>
		<path class="st0" d="M73.92,120.74c-0.49,0-0.88,0.09-1.4,0.35V121c0-0.11-0.09-0.19-0.2-0.19h-0.45c-0.12,0-0.2,0.08-0.2,0.19
			v4.01c0,0.11,0.09,0.19,0.2,0.19h0.44c0.11,0,0.21-0.09,0.21-0.19v-3.29c0.45-0.2,0.85-0.29,1.17-0.29c0.71,0,0.96,0.27,0.96,1.01
			v2.58c0,0.11,0.09,0.19,0.21,0.19h0.43c0.12,0,0.21-0.08,0.21-0.19v-2.58C75.51,121.3,74.98,120.74,73.92,120.74z"/>
		<path class="st0" d="M87.78,119.28h-0.45c-0.12,0-0.21,0.08-0.21,0.19v2.25h-3v-2.25c0-0.11-0.09-0.19-0.21-0.19h-0.45
			c-0.12,0-0.21,0.08-0.21,0.19v5.53c0,0.11,0.09,0.19,0.21,0.19h0.45c0.12,0,0.21-0.08,0.21-0.19v-2.58h3v2.58
			c0,0.11,0.09,0.19,0.21,0.19h0.45c0.12,0,0.21-0.08,0.21-0.19v-5.53C87.99,119.36,87.9,119.28,87.78,119.28z"/>
		<path class="st0" d="M92.96,120.74c-1.27,0-2.03,0.69-2.03,1.87v0.71c0,0.72,0.27,1.92,2.07,1.92c0.57,0,1.07-0.04,1.61-0.13
			c0.15-0.03,0.2-0.08,0.2-0.21v-0.27c0-0.08-0.07-0.15-0.17-0.15h-0.05c-0.39,0.05-1.04,0.08-1.59,0.08
			c-0.85,0-1.21-0.37-1.21-1.25v-0.08h2.97c0.12,0,0.2-0.08,0.2-0.2v-0.43C94.96,121.42,94.23,120.74,92.96,120.74z M91.79,122.61
			c0-0.8,0.4-1.2,1.17-1.2c0.8,0,1.15,0.36,1.15,1.2v0.04h-2.3v-0.04H91.79z"/>
		<path class="st0" d="M99.89,120.74c-0.43,0-0.83,0.12-1.23,0.35v-0.11c0-0.11-0.09-0.19-0.2-0.19h-0.43c-0.12,0-0.2,0.08-0.2,0.19
			v4.01c0,0.11,0.09,0.19,0.2,0.19h0.44c0.11,0,0.21-0.09,0.21-0.19v-3.28c0.43-0.21,0.8-0.32,1.2-0.32c0.19,0,0.23-0.11,0.23-0.16
			v-0.32C100.12,120.85,100.09,120.74,99.89,120.74z"/>
		<path class="st0" d="M103.51,119.16h-0.45c-0.12,0-0.21,0.08-0.21,0.19v0.63c0,0.11,0.09,0.19,0.21,0.19h0.45
			c0.12,0,0.21-0.08,0.21-0.19v-0.63C103.73,119.25,103.63,119.16,103.51,119.16z"/>
		<path class="st0" d="M103.5,120.8h-0.43c-0.12,0-0.21,0.08-0.21,0.19v4.01c0,0.11,0.09,0.19,0.21,0.19h0.43
			c0.12,0,0.21-0.08,0.21-0.19v-4.01C103.71,120.88,103.62,120.8,103.5,120.8z"/>
		<path class="st0" d="M109.3,124.61h-0.51c-0.33,0-0.45-0.04-0.45-0.47v-2.7h0.93c0.12,0,0.21-0.08,0.21-0.19v-0.27
			c0-0.11-0.09-0.19-0.21-0.19h-0.93v-0.83c0-0.09-0.08-0.16-0.17-0.16h-0.03l-0.47,0.07c-0.12,0.01-0.19,0.09-0.19,0.19v0.73h-0.84
			c-0.12,0-0.2,0.07-0.2,0.17v0.21c0,0.09,0.08,0.16,0.2,0.17l0.84,0.08v2.72c0,0.91,0.44,1.08,1.25,1.08
			c0.17,0,0.41-0.01,0.59-0.04c0.12-0.01,0.19-0.07,0.19-0.16v-0.28C109.52,124.61,109.35,124.61,109.3,124.61z"/>
		<path class="st0" d="M113.87,120.74c-0.63,0-1.04,0.05-1.4,0.11c-0.15,0.01-0.21,0.08-0.21,0.17v0.28c0,0.05,0.03,0.16,0.2,0.16
			h0.05c0.37-0.03,0.8-0.07,1.37-0.07c0.68,0,0.93,0.23,0.93,0.85v0.28h-0.63c-1.53,0-2.2,0.39-2.2,1.31v0.09
			c0,0.6,0.25,1.31,1.49,1.31c0.43,0,0.84-0.11,1.35-0.36v0.12c0,0.11,0.09,0.19,0.21,0.19h0.41c0.12,0,0.21-0.08,0.21-0.19v-2.74
			C115.64,121.24,115.07,120.74,113.87,120.74z M112.81,123.82c0-0.51,0.2-0.75,1.33-0.75h0.63v1.21c-0.45,0.21-0.8,0.31-1.17,0.31
			c-0.48,0-0.79-0.12-0.79-0.68V123.82z"/>
		<path class="st0" d="M122.57,120.8h-1.96c-1.76,0-2.03,0.89-2.03,1.43v0.07c0,0.39,0.12,0.68,0.39,0.91
			c-0.21,0.12-0.35,0.33-0.35,0.57v0.01c0,0.23,0.12,0.52,0.43,0.64h0.01c-0.27,0.2-0.53,0.55-0.53,0.99v0.07
			c0,0.59,0.36,1.28,2.09,1.28c1.4,0,2.08-0.41,2.08-1.25v-0.07c0-0.8-0.97-1.01-1.75-1.19l-1.33-0.29
			c-0.21-0.05-0.25-0.12-0.25-0.23c0-0.11,0.07-0.17,0.19-0.24c0.31,0.11,0.63,0.16,1.04,0.16c1.35,0,2.03-0.47,2.03-1.37v-0.07
			c0-0.33-0.09-0.6-0.27-0.79l0.27-0.04c0.09-0.01,0.19-0.05,0.19-0.17V121C122.81,120.89,122.69,120.8,122.57,120.8z
			 M119.42,122.22c0-0.72,0.63-0.81,1.17-0.81c0.55,0,1.17,0.09,1.17,0.81v0.07c0,0.39-0.15,0.77-1.17,0.77
			c-0.79,0-1.17-0.25-1.17-0.77V122.22z M121.85,125.5c0,0.4-0.2,0.65-1.23,0.65c-0.63,0-1.25-0.08-1.25-0.68v-0.08
			c0-0.37,0.15-0.57,0.41-0.77l1,0.23c0.84,0.19,1.07,0.32,1.07,0.59V125.5z"/>
		<path class="st0" d="M127.39,120.74c-1.27,0-2.03,0.69-2.03,1.87v0.71c0,0.72,0.27,1.92,2.07,1.92c0.57,0,1.07-0.04,1.61-0.13
			c0.15-0.03,0.2-0.08,0.2-0.21v-0.27c0-0.08-0.07-0.15-0.17-0.15h-0.05c-0.39,0.05-1.04,0.08-1.59,0.08
			c-0.85,0-1.21-0.37-1.21-1.25v-0.08h2.97c0.12,0,0.2-0.08,0.2-0.2v-0.43C129.4,121.42,128.67,120.74,127.39,120.74z
			 M126.22,122.61c0-0.8,0.4-1.2,1.17-1.2c0.8,0,1.15,0.36,1.15,1.2v0.04h-2.3v-0.04H126.22z"/>
	</g>
	<path class="st0" d="M150.26,77.58c-1.65-1.21-4.77-4.26-9.37-9.15l-25.19-27.22l20.64-19.13c3.45-3.28,6.14-5.4,8.1-6.36
		c1.95-0.97,4.61-1.63,7.99-1.96V11.8h-27.71v1.96c2.3,0,4.09,0.23,5.36,0.67c1.25,0.45,1.89,1.37,1.89,2.78
		c0,2-3.7,6.5-11.11,13.55c-4.13,3.9-9.46,8.62-15.97,14.18V23.26c0-3.78,0.6-6.26,1.81-7.43c1.2-1.17,3.88-1.85,8.01-2.07V11.8
		H84.6v1.96c4.06,0.28,6.67,0.97,7.82,2.09c1.16,1.12,1.73,3.6,1.73,7.42v45.88c0,4.49-0.52,7.31-1.55,8.51
		c-0.99,1.13-3.48,1.79-7.46,1.89C79.12,79.26,74.5,78,71.06,76.38c-1.01-0.48-2-1.05-2.98-1.69c2.69-2,5.09-4.38,7.13-7.14
		c4.93-6.71,7.43-15.04,7.43-24.75c0-12.27-3.93-22.21-11.7-29.52C63.88,6.62,55.19,3.25,45.09,3.25c-10.25,0-19,3.41-26.02,10.13
		c-7.65,7.35-11.52,17.24-11.52,29.4c0,11.23,3.26,20.45,9.69,27.39c1.39,1.51,3.02,2.97,4.89,4.36l3.93,2.61l0.01,0.01
		c1.48,0.88,3.06,1.75,4.76,2.56c3.05,1.24,7.46,2.42,13.14,2.42c2.77,0,5.85-0.28,9.22-0.99c2.34-0.49,4.54-1.13,6.55-1.91
		c0.33-0.13,0.67-0.28,1-0.43c1.44,0.55,2.94,1.03,4.57,1.4c4.48,1.04,9.61,1.56,15.37,1.56h3.9l0,0h29.86v-1.81
		c-4-0.35-6.58-1.04-7.77-2.09c-1.19-1.05-1.79-3.54-1.79-7.47V51.25l3.26-3.02l20.37,22.01c1.45,1.59,2.5,2.98,3.18,4.2
		c0.67,1.21,1.01,2.11,1.01,2.69c0,1.07-0.52,1.79-1.55,2.14c-1.04,0.36-3.01,0.6-5.94,0.69v1.81h32.35v-1.81
		C154.35,79.59,151.93,78.79,150.26,77.58z M45.11,77.46c-6.7,0-12.43-2.84-17.04-8.43c-4.62-5.62-6.97-14.44-6.97-26.25
		c0-11.83,2.36-20.68,6.99-26.3c4.62-5.6,10.35-8.43,17.01-8.43c6.45,0,12.11,2.74,16.83,8.14c4.73,5.41,7.13,14.36,7.13,26.59
		c0,12.08-2.37,21-7.05,26.46c-0.05,0.07-0.12,0.13-0.17,0.2c-2.46-2.5-4.77-5.04-6.77-7.73c-1.12-1.49-3.72-5.25-3.93-5.52
		c-2.6-3.28-6.89-4.04-9.59-1.71c-1.73,1.51-2.38,3.93-1.93,6.34c0.19,1.27,0.68,2.53,1.49,3.66c0.19,0.27,0.4,0.52,0.61,0.77
		c0.01,0.01,0.8,0.83,1.23,1.24c0.93,0.91,1.93,1.96,3.7,3.49c2.4,2.09,5.17,4.3,6.93,5.3c0.13,0.08,0.28,0.16,0.41,0.23
		C51.24,76.8,48.28,77.46,45.11,77.46z M49.32,64.28c-1.76,1.52-4.56,1.03-6.25-1.11c-1.69-2.13-1.64-5.1,0.12-6.63
		c1.76-1.52,4.56-1.03,6.25,1.11C51.13,59.79,51.08,62.76,49.32,64.28z"/>
	<path class="st0" d="M59.08,65.56"/>
	<path class="st0" d="M50.96,55.19"/>
	<g>
		<path class="st0" d="M95.32,110.12c-0.51-0.05-0.89-0.19-1.15-0.37c-0.27-0.2-0.77-0.69-1.52-1.49l-4.05-4.41l3.3-3.08
			c0.56-0.53,0.99-0.88,1.29-1.03c0.31-0.15,0.73-0.25,1.27-0.31l0.09-0.01v-0.52h-4.74v0.53h0.11c0.36,0,0.64,0.04,0.84,0.11
			C90.92,99.6,91,99.72,91,99.91c0,0.17-0.23,0.67-1.79,2.16c-0.64,0.6-1.45,1.33-2.44,2.18v-3.34c0-0.59,0.09-0.97,0.27-1.15
			c0.12-0.12,0.44-0.27,1.24-0.31h0.11v-0.52h-5.13v0.52l0.09,0.01c0.79,0.05,1.09,0.2,1.21,0.32c0.12,0.11,0.25,0.4,0.25,1.15v7.55
			c0,0.88-0.12,1.21-0.23,1.33c-0.11,0.12-0.4,0.28-1.24,0.35l-0.09,0.01v0.49h5.09v-0.49l-0.09-0.01
			c-0.63-0.05-1.04-0.16-1.21-0.32c-0.12-0.11-0.25-0.39-0.25-1.16v-3.1l0.43-0.4l3.26,3.54c0.23,0.25,0.4,0.48,0.51,0.67
			c0.12,0.23,0.15,0.33,0.15,0.4c0,0.13-0.05,0.21-0.19,0.25c-0.16,0.05-0.48,0.09-0.95,0.11H89.9v0.51h5.5v-0.49L95.32,110.12z"/>
		<path class="st0" d="M104.15,98.91v0.51l0.09,0.01c0.6,0.05,1.01,0.2,1.23,0.41c0.15,0.15,0.31,0.56,0.31,1.68v4.45
			c0,1.07-0.13,1.87-0.4,2.37c-0.47,0.89-1.4,1.35-2.76,1.35c-1.27,0-2.09-0.43-2.54-1.31c-0.24-0.48-0.36-1.17-0.36-2.05v-5.46
			c0-0.75,0.15-1.03,0.27-1.13c0.12-0.11,0.44-0.25,1.24-0.31h0.09v-0.52h-5.13v0.51l0.09,0.01c0.79,0.05,1.09,0.2,1.21,0.31
			c0.12,0.11,0.25,0.39,0.25,1.12v5.34c0,1.07,0.19,1.95,0.56,2.6c0.69,1.23,2.01,1.85,3.92,1.85c1.93,0,3.25-0.63,3.94-1.88
			c0.37-0.68,0.56-1.63,0.56-2.81v-4.45c0-0.87,0.09-1.43,0.28-1.65c0.19-0.23,0.61-0.37,1.25-0.44l0.09-0.01v-0.51h-4.2V98.91z"/>
		<path class="st0" d="M122.41,98.91v0.52h0.11c0.32,0.01,0.56,0.05,0.72,0.12c0.25,0.11,0.39,0.29,0.39,0.57
			c0,0.08-0.01,0.2-0.04,0.33c-0.04,0.25-0.12,0.55-0.24,0.87l-2.04,5.56l-2.36-6.16c-0.09-0.23-0.15-0.39-0.16-0.45
			c-0.01-0.07-0.03-0.15-0.03-0.24c0-0.25,0.11-0.41,0.32-0.49c0.15-0.05,0.44-0.08,0.85-0.08h0.11v-0.52h-4.77v0.52h0.11
			c0.35,0,0.6,0.04,0.77,0.12c0.28,0.12,0.48,0.35,0.61,0.71l0.79,2.07l-1.69,4.5l-2.37-6.18c-0.07-0.16-0.11-0.31-0.13-0.4
			c-0.03-0.09-0.04-0.2-0.04-0.29c0-0.21,0.11-0.35,0.32-0.43c0.13-0.04,0.37-0.08,0.69-0.08h0.11v-0.52h-4.38v0.52h0.09
			c0.47,0.03,0.8,0.21,1.03,0.56c0.23,0.37,0.64,1.39,1.24,3.02l2.73,7.63h0.4l2.54-7.03l2.64,7.03h0.41l3.57-10.23
			c0.13-0.37,0.33-0.64,0.6-0.79c0.15-0.09,0.37-0.16,0.67-0.2l0.09-0.01v-0.51h-3.65V98.91z"/>
		<path class="st0" d="M137.09,107.49l-0.03,0.05c-0.43,0.96-0.91,1.57-1.43,1.83c-0.53,0.25-1.37,0.37-2.49,0.37
			c-1.31,0-1.73-0.05-1.88-0.09c-0.07-0.01-0.24-0.07-0.24-0.51v-4.21h2.5c0.85,0,1.17,0.16,1.29,0.29c0.19,0.2,0.33,0.64,0.47,1.29
			l0.01,0.08h0.59v-4.24h-0.59l-0.01,0.08c-0.12,0.65-0.27,1.08-0.45,1.29c-0.17,0.2-0.61,0.29-1.31,0.29h-2.5v-3.78
			c0-0.27,0.04-0.37,0.07-0.4c0.01-0.01,0.08-0.08,0.37-0.08h2.3c0.96,0,1.59,0.11,1.85,0.32c0.27,0.21,0.47,0.69,0.61,1.43
			l0.01,0.08h0.63l-0.07-2.7h-9.18v0.52l0.09,0.01c0.75,0.05,1.04,0.2,1.15,0.32s0.24,0.41,0.24,1.15v7.75
			c0,0.77-0.13,1.05-0.24,1.15c-0.17,0.15-0.56,0.25-1.15,0.32l-0.09,0.01v0.52h9.31l0.83-3.14H137.09z"/>
		<path class="st0" d="M146.56,98.91v0.52l0.09,0.01c0.76,0.07,1.05,0.21,1.17,0.33c0.27,0.27,0.4,0.87,0.4,1.79v5.5l-6.5-8.11
			l-0.03-0.04h-3.12v0.53h0.11c0.35,0.01,0.6,0.05,0.76,0.12c0.16,0.07,0.36,0.24,0.61,0.53l0.21,0.25v7.65
			c0,0.89-0.09,1.47-0.28,1.69s-0.63,0.39-1.31,0.45l-0.09,0.01v0.52h4.29v-0.52l-0.09-0.01c-0.6-0.07-0.99-0.19-1.15-0.35
			c-0.25-0.27-0.39-0.87-0.39-1.8v-6.49l7.49,9.34l0.03,0.04h0.45v-9.29c0-1.11,0.16-1.53,0.31-1.69c0.2-0.24,0.63-0.39,1.25-0.45
			l0.09-0.01v-0.52h-4.32V98.91z"/>
		<path class="st0" d="M156.29,99.73c0.13-0.12,0.45-0.27,1.28-0.31h0.09v-0.52h-5.2v0.52h0.09c0.83,0.04,1.15,0.19,1.28,0.31
			c0.12,0.11,0.27,0.4,0.27,1.16v7.75c0,0.79-0.15,1.07-0.27,1.17c-0.19,0.15-0.61,0.25-1.28,0.29l-0.09,0.01v0.52h5.2v-0.52
			l-0.09-0.01c-0.67-0.05-1.09-0.15-1.28-0.29c-0.12-0.09-0.27-0.37-0.27-1.17v-7.75C156.01,100.29,156.1,99.89,156.29,99.73z"/>
		<path class="st0" d="M28.8,98.91v7.94c0,0.56,0.08,1.01,0.24,1.36c0.31,0.63,0.88,0.95,1.69,0.95c0.57,0,1.49-0.19,2.04-0.56
			c0.31-0.21,0.63-0.49,0.93-0.85v-6.81c0-0.64-0.12-1.05-0.37-1.25c-0.25-0.2-0.75-0.32-1.49-0.36v-0.41h4.04v8.74
			c0,0.56,0.11,0.95,0.31,1.16c0.2,0.21,0.64,0.31,1.29,0.28v0.35c-0.45,0.12-0.8,0.21-1.01,0.28c-0.21,0.07-0.57,0.17-1.09,0.35
			c-0.21,0.08-0.69,0.25-1.43,0.53c-0.04,0-0.07-0.01-0.08-0.05c-0.01-0.04-0.01-0.08-0.01-0.13v-2c-0.57,0.67-1.08,1.17-1.55,1.49
			c-0.71,0.49-1.83,0.75-2.62,0.75c-0.72,0-1.41-0.25-2.05-0.77c-0.65-0.51-0.97-1.36-0.97-2.54v-6.45c0-0.65-0.15-1.09-0.43-1.32
			c-0.19-0.13-0.57-0.24-1.17-0.29v-0.35h3.74V98.91z"/>
		<path class="st0" d="M59.95,100.09c0.89,0.79,1.35,1.92,1.35,3.37h-8.18c0.08,1.88,0.53,3.25,1.33,4.12
			c0.8,0.85,1.88,1.29,2.98,1.29c0.89,0,1.64-0.23,2.25-0.67c0.61-0.45,1.17-1.08,1.69-1.89l0.44,0.15c-0.35,1.04-1,1.99-1.95,2.86
			c-0.95,0.88-2.12,1.32-3.49,1.32c-1.59,0-2.94-0.57-3.81-1.73s-1.31-2.48-1.31-3.98c0-1.64,0.51-3.05,1.51-4.24
			c1.01-1.19,2.44-1.79,4.06-1.79C58.02,98.91,59.06,99.29,59.95,100.09z M53.75,101.03c-0.27,0.44-0.47,0.99-0.59,1.67h5.48
			c-0.09-0.81-0.25-1.41-0.48-1.81c-0.41-0.72-1.11-1.08-2.08-1.08C55.13,99.8,54.26,100.2,53.75,101.03z"/>
		<path class="st0" d="M47.78,100.09c0.89,0.8,1.35,1.92,1.35,3.37h-8.18c0.08,1.88,0.53,3.25,1.33,4.12
			c0.8,0.87,1.88,1.29,2.98,1.29c0.89,0,1.64-0.23,2.25-0.67c0.61-0.45,1.17-1.08,1.69-1.89l0.44,0.15c-0.35,1.04-1,1.99-1.95,2.86
			c-0.95,0.88-2.12,1.32-3.49,1.32c-1.59,0-2.94-0.57-3.81-1.73s-1.31-2.48-1.31-3.98c0-1.64,0.51-3.05,1.51-4.24
			c1.01-1.19,2.44-1.79,4.06-1.79C45.84,98.91,46.89,99.29,47.78,100.09z M41.58,101.03c-0.27,0.44-0.47,0.99-0.59,1.67h5.48
			c-0.09-0.81-0.25-1.41-0.48-1.81c-0.41-0.72-1.11-1.08-2.08-1.08C42.95,99.8,42.08,100.2,41.58,101.03z"/>
		<path class="st0" d="M63.43,110.27c0.59-0.08,1-0.23,1.24-0.44c0.24-0.21,0.36-0.71,0.36-1.48v-6.32c0-0.53-0.05-0.89-0.15-1.11
			c-0.16-0.31-0.48-0.47-0.97-0.47c-0.08,0-0.15,0-0.23,0.01c-0.08,0.01-0.17,0.03-0.29,0.04v-0.44c0.35-0.09,1.15-0.36,2.42-0.77
			l1.17-0.39c0.05,0,0.09,0.03,0.11,0.07c0.01,0.04,0.01,0.09,0.01,0.17v1.83c0.76-0.72,1.36-1.2,1.8-1.47
			c0.65-0.4,1.81-0.61,2.52-0.61c0.56,0,1.08,0.16,1.55,0.48c0.89,0.63,1.35,1.76,1.35,3.37v5.81c0,0.6,0.12,1.03,0.36,1.29
			c0.24,0.27,0.64,0.4,1.2,0.41v0.35h-5.33v-0.35c0.61-0.08,1.04-0.25,1.28-0.51c0.24-0.25,0.36-0.8,0.36-1.65v-5.32
			c0-0.72-0.13-1.31-0.4-1.77c-0.27-0.47-0.76-0.71-1.47-0.71c-0.49,0-1.48,0.16-1.99,0.49c-0.28,0.19-0.64,0.51-1.09,0.95v6.97
			c0,0.6,0.13,1,0.4,1.2c0.27,0.2,0.69,0.32,1.27,0.33v0.35h-5.46v-0.33H63.43z"/>
		<path class="st0" d="M20.82,109.51c-0.21-0.09-0.43-0.21-0.64-0.35c0.64-0.44,1.19-0.99,1.67-1.63c1.05-1.44,1.59-3.2,1.59-5.26
			c0-2.62-0.83-4.72-2.49-6.28c-1.51-1.43-3.34-2.13-5.49-2.13c-2.18,0-4.04,0.72-5.53,2.16c-1.64,1.57-2.45,3.65-2.45,6.26
			c0,2.4,0.69,4.34,2.07,5.82c0.29,0.32,0.64,0.63,1.04,0.92l0.84,0.56c0.32,0.19,0.65,0.37,1.01,0.55
			c0.95,0.39,2.56,0.76,4.76,0.31c0.49-0.11,0.96-0.24,1.4-0.41c0.01,0,0.03-0.01,0.04-0.01c0.31,0.12,0.64,0.21,0.99,0.29
			c0.96,0.21,2.07,0.32,3.3,0.32h0.89v-0.53C22.48,110.03,21.55,109.84,20.82,109.51z M15.45,109.78c-1.47,0-2.7-0.61-3.72-1.84
			c-1.01-1.23-1.51-3.12-1.51-5.68c0-2.57,0.51-4.46,1.52-5.69c1.01-1.23,2.25-1.84,3.7-1.84c1.41,0,2.64,0.59,3.66,1.77
			s1.55,3.1,1.55,5.76c0,2.62-0.51,4.53-1.53,5.73c-0.05,0.07-0.12,0.13-0.17,0.2c-0.57-0.55-1.09-1.16-1.56-1.75
			c-0.27-0.35-0.57-0.73-0.8-0.99c-0.01-0.03-0.04-0.05-0.05-0.07c-0.56-0.67-1.48-0.83-2.05-0.35c-0.41,0.33-0.53,0.91-0.37,1.44
			c0.05,0.2,0.15,0.4,0.28,0.59c0.04,0.05,0.08,0.11,0.13,0.16c0,0,0.17,0.17,0.27,0.25c0.2,0.19,0.41,0.4,0.8,0.72
			c0.52,0.43,1.11,0.88,1.49,1.09c0.08,0.04,0.15,0.08,0.23,0.12C16.72,109.66,16.1,109.78,15.45,109.78z M16.16,107.05
			c-0.37,0.31-0.97,0.21-1.35-0.23c-0.36-0.44-0.35-1.05,0.03-1.36c0.37-0.31,0.97-0.21,1.35,0.23
			C16.54,106.13,16.53,106.73,16.16,107.05z"/>
	</g>
</g>
</svg>
